<?xml version="1.0" encoding="utf-8"?>
<!-- Generator: Adobe Illustrator 17.0.1, SVG Export Plug-In . SVG Version: 6.00 Build 0)  -->
<!DOCTYPE svg PUBLIC "-//W3C//DTD SVG 1.1//EN" "http://www.w3.org/Graphics/SVG/1.1/DTD/svg11.dtd">
<svg version="1.1" xmlns="http://www.w3.org/2000/svg" xmlns:xlink="http://www.w3.org/1999/xlink" x="0px" y="0px" width="500px"
	 height="500px" viewBox="0 0 500 500" enable-background="new 0 0 500 500" xml:space="preserve">
<g id="Layer_1">
</g>
<g id="Layer_2">
</g>
<g id="Layer_3">
</g>
<g id="Layer_4">
	<g>
		<g>
			
				<line fill="none" stroke="#F95959" stroke-width="5" stroke-linecap="round" stroke-linejoin="round" stroke-miterlimit="10" x1="346.801" y1="305.973" x2="153.199" y2="194.573"/>
			
				<line fill="none" stroke="#F95959" stroke-width="5" stroke-linecap="round" stroke-linejoin="round" stroke-miterlimit="10" x1="346.72" y1="194.432" x2="153.28" y2="306.114"/>
			
				<line fill="none" stroke="#F95959" stroke-width="5" stroke-linecap="round" stroke-linejoin="round" stroke-miterlimit="10" x1="249.5" y1="363" x2="249.5" y2="137"/>
			
				<line fill="none" stroke="#F95959" stroke-width="5" stroke-linecap="round" stroke-linejoin="round" stroke-miterlimit="10" x1="212.07" y1="332.22" x2="250" y2="310.446"/>
			
				<line fill="none" stroke="#F95959" stroke-width="5" stroke-linecap="round" stroke-linejoin="round" stroke-miterlimit="10" x1="287.93" y1="332.22" x2="250" y2="310.446"/>
			
				<line fill="none" stroke="#F95959" stroke-width="5" stroke-linecap="round" stroke-linejoin="round" stroke-miterlimit="10" x1="302.003" y1="324.095" x2="302.111" y2="280.359"/>
			
				<line fill="none" stroke="#F95959" stroke-width="5" stroke-linecap="round" stroke-linejoin="round" stroke-miterlimit="10" x1="339.933" y1="258.398" x2="302.111" y2="280.359"/>
			
				<line fill="none" stroke="#F95959" stroke-width="5" stroke-linecap="round" stroke-linejoin="round" stroke-miterlimit="10" x1="339.933" y1="242.148" x2="302.111" y2="220.187"/>
			
				<line fill="none" stroke="#F95959" stroke-width="5" stroke-linecap="round" stroke-linejoin="round" stroke-miterlimit="10" x1="302.003" y1="176.451" x2="302.111" y2="220.187"/>
			
				<line fill="none" stroke="#F95959" stroke-width="5" stroke-linecap="round" stroke-linejoin="round" stroke-miterlimit="10" x1="287.93" y1="168.326" x2="250" y2="190.1"/>
			
				<line fill="none" stroke="#F95959" stroke-width="5" stroke-linecap="round" stroke-linejoin="round" stroke-miterlimit="10" x1="212.07" y1="168.326" x2="250" y2="190.1"/>
			
				<line fill="none" stroke="#F95959" stroke-width="5" stroke-linecap="round" stroke-linejoin="round" stroke-miterlimit="10" x1="197.997" y1="176.451" x2="197.889" y2="220.187"/>
			
				<line fill="none" stroke="#F95959" stroke-width="5" stroke-linecap="round" stroke-linejoin="round" stroke-miterlimit="10" x1="160.067" y1="242.148" x2="197.889" y2="220.187"/>
			
				<line fill="none" stroke="#F95959" stroke-width="5" stroke-linecap="round" stroke-linejoin="round" stroke-miterlimit="10" x1="160.067" y1="258.398" x2="197.889" y2="280.359"/>
			
				<line fill="none" stroke="#F95959" stroke-width="5" stroke-linecap="round" stroke-linejoin="round" stroke-miterlimit="10" x1="197.997" y1="324.095" x2="197.889" y2="280.359"/>
		</g>
		<path fill="none" stroke="#F95959" stroke-width="5" stroke-linecap="round" stroke-linejoin="round" stroke-miterlimit="10" d="
			M129.079,179.116c0,0,2.003-12.02-7.012-21.035c-9.015-9.015-20.785-6.761-20.785-6.761l-1.753,0.25c0,0-11.77,2.254-20.785-6.761
			c-9.015-9.015-7.012-21.035-7.012-21.035"/>
		<path fill="none" stroke="#F95959" stroke-width="5" stroke-linecap="round" stroke-linejoin="round" stroke-miterlimit="10" d="
			M114.054,194.141c0,0,2.003-12.02-7.012-21.035c-9.015-9.015-20.785-6.761-20.785-6.761l-1.753,0.25c0,0-11.77,2.254-20.785-6.761
			c-9.015-9.015-7.012-21.035-7.012-21.035"/>
		<path fill="none" stroke="#F95959" stroke-width="5" stroke-linecap="round" stroke-linejoin="round" stroke-miterlimit="10" d="
			M443.293,365.61c0,0,2.003-12.02-7.012-21.035c-9.015-9.015-20.785-6.761-20.785-6.761l-1.753,0.25c0,0-11.77,2.254-20.785-6.761
			c-9.015-9.015-7.012-21.035-7.012-21.035"/>
		<path fill="none" stroke="#F95959" stroke-width="5" stroke-linecap="round" stroke-linejoin="round" stroke-miterlimit="10" d="
			M428.268,380.635c0,0,2.003-12.02-7.012-21.035s-20.785-6.761-20.785-6.761l-1.753,0.25c0,0-11.77,2.254-20.785-6.761
			c-9.015-9.015-7.012-21.035-7.012-21.035"/>
		<path fill="none" stroke="#F95959" stroke-width="5" stroke-linecap="round" stroke-linejoin="round" stroke-miterlimit="10" d="
			M369.791,179.116c0,0-2.003-12.02,7.012-21.035c9.015-9.015,20.785-6.761,20.785-6.761l1.753,0.25c0,0,11.77,2.254,20.785-6.761
			c9.015-9.015,7.012-21.035,7.012-21.035"/>
		<path fill="none" stroke="#F95959" stroke-width="5" stroke-linecap="round" stroke-linejoin="round" stroke-miterlimit="10" d="
			M384.816,194.141c0,0-2.003-12.02,7.012-21.035c9.015-9.015,20.785-6.761,20.785-6.761l1.753,0.25c0,0,11.77,2.254,20.785-6.761
			c9.015-9.015,7.012-21.035,7.012-21.035"/>
		<path fill="none" stroke="#F95959" stroke-width="5" stroke-linecap="round" stroke-linejoin="round" stroke-miterlimit="10" d="
			M55.577,365.61c0,0-2.003-12.02,7.012-21.035c9.015-9.015,20.785-6.761,20.785-6.761l1.753,0.25c0,0,11.77,2.254,20.785-6.761
			s7.012-21.035,7.012-21.035"/>
		<path fill="none" stroke="#F95959" stroke-width="5" stroke-linecap="round" stroke-linejoin="round" stroke-miterlimit="10" d="
			M70.602,380.635c0,0-2.003-12.02,7.012-21.035s20.785-6.761,20.785-6.761l1.753,0.25c0,0,11.77,2.254,20.785-6.761
			c9.015-9.015,7.012-21.035,7.012-21.035"/>
		
			<circle fill="none" stroke="#F95959" stroke-width="5" stroke-linecap="round" stroke-linejoin="round" stroke-miterlimit="10" cx="456.839" cy="250" r="10.39"/>
		
			<circle fill="none" stroke="#F95959" stroke-width="5" stroke-linecap="round" stroke-linejoin="round" stroke-miterlimit="10" cx="43.161" cy="250" r="10.39"/>
		
			<circle fill="none" stroke="#F95959" stroke-width="5" stroke-linecap="round" stroke-linejoin="round" stroke-miterlimit="10" cx="250" cy="456.839" r="10.39"/>
		
			<circle fill="none" stroke="#F95959" stroke-width="5" stroke-linecap="round" stroke-linejoin="round" stroke-miterlimit="10" cx="250" cy="43.161" r="10.39"/>
		
			<line fill="none" stroke="#F95959" stroke-width="5" stroke-linecap="round" stroke-linejoin="round" stroke-miterlimit="10" x1="167.5" y1="354" x2="167.5" y2="383"/>
		
			<line fill="none" stroke="#F95959" stroke-width="5" stroke-linecap="round" stroke-linejoin="round" stroke-miterlimit="10" x1="167.5" y1="396" x2="167.5" y2="407"/>
		
			<line fill="none" stroke="#F95959" stroke-width="5" stroke-linecap="round" stroke-linejoin="round" stroke-miterlimit="10" x1="184.5" y1="375" x2="184.5" y2="396"/>
		
			<line fill="none" stroke="#F95959" stroke-width="5" stroke-linecap="round" stroke-linejoin="round" stroke-miterlimit="10" x1="159.5" y1="86" x2="159.5" y2="116"/>
		
			<line fill="none" stroke="#F95959" stroke-width="5" stroke-linecap="round" stroke-linejoin="round" stroke-miterlimit="10" x1="159.5" y1="127" x2="159.5" y2="140"/>
		
			<line fill="none" stroke="#F95959" stroke-width="5" stroke-linecap="round" stroke-linejoin="round" stroke-miterlimit="10" x1="175.5" y1="106" x2="175.5" y2="127"/>
		
			<line fill="none" stroke="#F95959" stroke-width="5" stroke-linecap="round" stroke-linejoin="round" stroke-miterlimit="10" x1="327.5" y1="429" x2="327.5" y2="398"/>
		
			<line fill="none" stroke="#F95959" stroke-width="5" stroke-linecap="round" stroke-linejoin="round" stroke-miterlimit="10" x1="327.5" y1="388" x2="327.5" y2="374"/>
		
			<line fill="none" stroke="#F95959" stroke-width="5" stroke-linecap="round" stroke-linejoin="round" stroke-miterlimit="10" x1="312.5" y1="407" x2="312.5" y2="388"/>
		
			<line fill="none" stroke="#F95959" stroke-width="5" stroke-linecap="round" stroke-linejoin="round" stroke-miterlimit="10" x1="319.5" y1="153" x2="319.5" y2="124"/>
		
			<line fill="none" stroke="#F95959" stroke-width="5" stroke-linecap="round" stroke-linejoin="round" stroke-miterlimit="10" x1="319.5" y1="111" x2="319.5" y2="100"/>
		
			<line fill="none" stroke="#F95959" stroke-width="5" stroke-linecap="round" stroke-linejoin="round" stroke-miterlimit="10" x1="305.5" y1="132" x2="305.5" y2="111"/>
		<path fill="none" stroke="#F95959" stroke-width="5" stroke-linecap="round" stroke-linejoin="round" stroke-miterlimit="10" d="
			M289.358,97.79c-12.748-3.338-26.128-5.115-39.923-5.115c-14.37,0-28.289,1.928-41.513,5.54"/>
		<path fill="none" stroke="#F95959" stroke-width="5" stroke-linecap="round" stroke-linejoin="round" stroke-miterlimit="10" d="
			M354.133,132.616c-5.643-5.043-11.653-9.685-17.985-13.88"/>
		<path fill="none" stroke="#F95959" stroke-width="5" stroke-linecap="round" stroke-linejoin="round" stroke-miterlimit="10" d="
			M403.071,283.242c3.706-17.057,4.612-35.026,2.27-53.328c-0.43-3.358-0.962-6.678-1.595-9.957"/>
		<path fill="none" stroke="#F95959" stroke-width="5" stroke-linecap="round" stroke-linejoin="round" stroke-miterlimit="10" d="
			M397.603,302.472"/>
		<path fill="none" stroke="#F95959" stroke-width="5" stroke-linecap="round" stroke-linejoin="round" stroke-miterlimit="10" d="
			M344.781,374.842c6.149-4.698,11.941-9.84,17.328-15.377"/>
		<path fill="none" stroke="#F95959" stroke-width="5" stroke-linecap="round" stroke-linejoin="round" stroke-miterlimit="10" d="
			M217.445,403.793c10.329,2.135,21.029,3.258,31.99,3.258c12.339,0,24.347-1.422,35.867-4.111"/>
		<path fill="none" stroke="#F95959" stroke-width="5" stroke-linecap="round" stroke-linejoin="round" stroke-miterlimit="10" d="
			M93.058,266.055c1.15,11.199,3.494,22.107,6.918,32.576"/>
		<path fill="none" stroke="#F95959" stroke-width="5" stroke-linecap="round" stroke-linejoin="round" stroke-miterlimit="10" d="
			M98.424,206.085c-4.022,13.896-6.177,28.585-6.177,43.778"/>
		<path fill="none" stroke="#F95959" stroke-width="5" stroke-linecap="round" stroke-linejoin="round" stroke-miterlimit="10" d="
			M395.058,102.344c-24.05-23.605-53.696-41.215-86.363-50.897"/>
		<path fill="none" stroke="#F95959" stroke-width="5" stroke-linecap="round" stroke-linejoin="round" stroke-miterlimit="10" d="
			M452.089,205.389c-1.77-8.075-4.004-15.957-6.671-23.62"/>
		<path fill="none" stroke="#F95959" stroke-width="5" stroke-linecap="round" stroke-linejoin="round" stroke-miterlimit="10" d="
			M443.215,324.207c6.209-16.157,10.45-33.291,12.429-51.107"/>
		<path fill="none" stroke="#F95959" stroke-width="5" stroke-linecap="round" stroke-linejoin="round" stroke-miterlimit="10" d="
			M331.034,440.45c28.743-12.245,54.148-30.807,74.473-53.942"/>
		<path fill="none" stroke="#F95959" stroke-width="5" stroke-linecap="round" stroke-linejoin="round" stroke-miterlimit="10" d="
			M109.461,401.871c17.341,16.055,37.437,29.177,59.5,38.577"/>
		<path fill="none" stroke="#F95959" stroke-width="5" stroke-linecap="round" stroke-linejoin="round" stroke-miterlimit="10" d="
			M45.057,278.715c1.404,10.115,3.54,19.997,6.352,29.59"/>
		<path fill="none" stroke="#F95959" stroke-width="5" stroke-linecap="round" stroke-linejoin="round" stroke-miterlimit="10" d="
			M55.038,180.511c-5.532,15.519-9.263,31.893-10.943,48.87"/>
		<path fill="none" stroke="#F95959" stroke-width="5" stroke-linecap="round" stroke-linejoin="round" stroke-miterlimit="10" d="
			M141.419,73.932c-11.185,6.9-21.7,14.851-31.392,23.739"/>
		<path fill="none" stroke="#F95959" stroke-width="5" stroke-linecap="round" stroke-linejoin="round" stroke-miterlimit="10" d="
			M194.085,50.809c-11.259,3.166-22.174,7.27-32.642,12.237"/>
	</g>
</g>
</svg>
