<?xml version="1.0" encoding="utf-8"?>
<!-- Generator: Adobe Illustrator 17.0.1, SVG Export Plug-In . SVG Version: 6.00 Build 0)  -->
<!DOCTYPE svg PUBLIC "-//W3C//DTD SVG 1.1//EN" "http://www.w3.org/Graphics/SVG/1.1/DTD/svg11.dtd">
<svg version="1.1" id="Layer_1" xmlns="http://www.w3.org/2000/svg" xmlns:xlink="http://www.w3.org/1999/xlink" x="0px" y="0px"
	 width="500px" height="500px" viewBox="0 0 500 500" enable-background="new 0 0 500 500" xml:space="preserve">
<g>
	<g>
		<g>
			
				<line fill="none" stroke="#F95959" stroke-width="5" stroke-linecap="round" stroke-linejoin="round" x1="58" y1="130.5" x2="68" y2="130.5"/>
			
				<line fill="none" stroke="#F95959" stroke-width="5" stroke-linecap="round" stroke-linejoin="round" stroke-dasharray="19,19" x1="87" y1="130.5" x2="424" y2="130.5"/>
			
				<line fill="none" stroke="#F95959" stroke-width="5" stroke-linecap="round" stroke-linejoin="round" x1="433" y1="130.5" x2="443" y2="130.5"/>
		</g>
	</g>
	
		<line fill="none" stroke="#F95959" stroke-width="5" stroke-linecap="round" stroke-linejoin="round" stroke-miterlimit="10" x1="156.5" y1="31" x2="156.5" y2="98"/>
	
		<line fill="none" stroke="#F95959" stroke-width="5" stroke-linecap="round" stroke-linejoin="round" stroke-miterlimit="10" x1="344.5" y1="31" x2="344.5" y2="98"/>
	<path fill="none" stroke="#F95959" stroke-width="5" stroke-linecap="round" stroke-linejoin="round" stroke-miterlimit="10" d="
		M397.059,469.5H64.408c-9.271,0-16.908-7.898-16.908-17.169V80.886c0-9.271,7.637-16.386,16.908-16.386h371.446
		c9.271,0,16.646,7.115,16.646,16.386v332.651v38.795c0,9.271-7.375,17.169-16.646,17.169H397.059z"/>
	
		<circle fill="none" stroke="#F95959" stroke-width="5" stroke-linecap="round" stroke-linejoin="round" stroke-miterlimit="10" cx="155.884" cy="97.448" r="11.116"/>
	
		<circle fill="none" stroke="#F95959" stroke-width="5" stroke-linecap="round" stroke-linejoin="round" stroke-miterlimit="10" cx="344.378" cy="97.448" r="11.116"/>
	<g>
		
			<rect x="103.5" y="174.5" fill="none" stroke="#F95959" stroke-width="5" stroke-linecap="round" stroke-linejoin="round" stroke-miterlimit="10" width="23" height="26"/>
		
			<rect x="148.5" y="174.5" fill="none" stroke="#F95959" stroke-width="5" stroke-linecap="round" stroke-linejoin="round" stroke-miterlimit="10" width="23" height="26"/>
		
			<rect x="193.5" y="174.5" fill="none" stroke="#F95959" stroke-width="5" stroke-linecap="round" stroke-linejoin="round" stroke-miterlimit="10" width="24" height="26"/>
		
			<rect x="239.5" y="174.5" fill="none" stroke="#F95959" stroke-width="5" stroke-linecap="round" stroke-linejoin="round" stroke-miterlimit="10" width="23" height="26"/>
		
			<rect x="284.5" y="174.5" fill="none" stroke="#F95959" stroke-width="5" stroke-linecap="round" stroke-linejoin="round" stroke-miterlimit="10" width="24" height="26"/>
		
			<rect x="330.5" y="174.5" fill="none" stroke="#F95959" stroke-width="5" stroke-linecap="round" stroke-linejoin="round" stroke-miterlimit="10" width="23" height="26"/>
		
			<rect x="375.5" y="174.5" fill="none" stroke="#F95959" stroke-width="5" stroke-linecap="round" stroke-linejoin="round" stroke-miterlimit="10" width="24" height="26"/>
	</g>
	<g>
		
			<rect x="103.5" y="221.5" fill="none" stroke="#F95959" stroke-width="5" stroke-linecap="round" stroke-linejoin="round" stroke-miterlimit="10" width="23" height="24"/>
		
			<rect x="148.5" y="221.5" fill="none" stroke="#F95959" stroke-width="5" stroke-linecap="round" stroke-linejoin="round" stroke-miterlimit="10" width="23" height="24"/>
		
			<rect x="193.5" y="221.5" fill="none" stroke="#F95959" stroke-width="5" stroke-linecap="round" stroke-linejoin="round" stroke-miterlimit="10" width="24" height="24"/>
		
			<rect x="239.5" y="221.5" fill="none" stroke="#F95959" stroke-width="5" stroke-linecap="round" stroke-linejoin="round" stroke-miterlimit="10" width="23" height="24"/>
		
			<rect x="284.5" y="221.5" fill="none" stroke="#F95959" stroke-width="5" stroke-linecap="round" stroke-linejoin="round" stroke-miterlimit="10" width="24" height="24"/>
		
			<rect x="330.5" y="221.5" fill="none" stroke="#F95959" stroke-width="5" stroke-linecap="round" stroke-linejoin="round" stroke-miterlimit="10" width="23" height="24"/>
		
			<rect x="375.5" y="221.5" fill="none" stroke="#F95959" stroke-width="5" stroke-linecap="round" stroke-linejoin="round" stroke-miterlimit="10" width="24" height="24"/>
	</g>
	<g>
		
			<rect x="103.5" y="267.5" fill="none" stroke="#F95959" stroke-width="5" stroke-linecap="round" stroke-linejoin="round" stroke-miterlimit="10" width="23" height="25"/>
		
			<rect x="148.5" y="267.5" fill="none" stroke="#F95959" stroke-width="5" stroke-linecap="round" stroke-linejoin="round" stroke-miterlimit="10" width="23" height="25"/>
		
			<rect x="193.5" y="267.5" fill="none" stroke="#F95959" stroke-width="5" stroke-linecap="round" stroke-linejoin="round" stroke-miterlimit="10" width="24" height="25"/>
		
			<rect x="239.5" y="267.5" fill="none" stroke="#F95959" stroke-width="5" stroke-linecap="round" stroke-linejoin="round" stroke-miterlimit="10" width="23" height="25"/>
		
			<rect x="284.5" y="267.5" fill="none" stroke="#F95959" stroke-width="5" stroke-linecap="round" stroke-linejoin="round" stroke-miterlimit="10" width="24" height="25"/>
		
			<rect x="330.5" y="267.5" fill="none" stroke="#F95959" stroke-width="5" stroke-linecap="round" stroke-linejoin="round" stroke-miterlimit="10" width="23" height="25"/>
		
			<rect x="375.5" y="267.5" fill="none" stroke="#F95959" stroke-width="5" stroke-linecap="round" stroke-linejoin="round" stroke-miterlimit="10" width="24" height="25"/>
	</g>
	<g>
		
			<rect x="103.5" y="313.5" fill="none" stroke="#F95959" stroke-width="5" stroke-linecap="round" stroke-linejoin="round" stroke-miterlimit="10" width="23" height="25"/>
		
			<rect x="148.5" y="313.5" fill="none" stroke="#F95959" stroke-width="5" stroke-linecap="round" stroke-linejoin="round" stroke-miterlimit="10" width="23" height="25"/>
		
			<rect x="193.5" y="313.5" fill="none" stroke="#F95959" stroke-width="5" stroke-linecap="round" stroke-linejoin="round" stroke-miterlimit="10" width="24" height="25"/>
		
			<rect x="239.5" y="313.5" fill="none" stroke="#F95959" stroke-width="5" stroke-linecap="round" stroke-linejoin="round" stroke-miterlimit="10" width="23" height="25"/>
		
			<rect x="284.5" y="313.5" fill="none" stroke="#F95959" stroke-width="5" stroke-linecap="round" stroke-linejoin="round" stroke-miterlimit="10" width="24" height="25"/>
		
			<rect x="330.5" y="313.5" fill="none" stroke="#F95959" stroke-width="5" stroke-linecap="round" stroke-linejoin="round" stroke-miterlimit="10" width="23" height="25"/>
		
			<rect x="375.5" y="313.5" fill="none" stroke="#F95959" stroke-width="5" stroke-linecap="round" stroke-linejoin="round" stroke-miterlimit="10" width="24" height="25"/>
	</g>
	<g>
		
			<rect x="103.5" y="359.5" fill="none" stroke="#F95959" stroke-width="5" stroke-linecap="round" stroke-linejoin="round" stroke-miterlimit="10" width="23" height="26"/>
		
			<rect x="148.5" y="359.5" fill="none" stroke="#F95959" stroke-width="5" stroke-linecap="round" stroke-linejoin="round" stroke-miterlimit="10" width="23" height="26"/>
		
			<rect x="193.5" y="359.5" fill="none" stroke="#F95959" stroke-width="5" stroke-linecap="round" stroke-linejoin="round" stroke-miterlimit="10" width="24" height="26"/>
		
			<rect x="239.5" y="359.5" fill="none" stroke="#F95959" stroke-width="5" stroke-linecap="round" stroke-linejoin="round" stroke-miterlimit="10" width="23" height="26"/>
		
			<rect x="284.5" y="359.5" fill="none" stroke="#F95959" stroke-width="5" stroke-linecap="round" stroke-linejoin="round" stroke-miterlimit="10" width="24" height="26"/>
		
			<rect x="330.5" y="359.5" fill="none" stroke="#F95959" stroke-width="5" stroke-linecap="round" stroke-linejoin="round" stroke-miterlimit="10" width="23" height="26"/>
		
			<rect x="375.5" y="359.5" fill="none" stroke="#F95959" stroke-width="5" stroke-linecap="round" stroke-linejoin="round" stroke-miterlimit="10" width="24" height="26"/>
	</g>
	
		<line fill="none" stroke="#F95959" stroke-width="5" stroke-linecap="round" stroke-linejoin="round" stroke-miterlimit="10" x1="398.509" y1="468.151" x2="452.157" y2="414.503"/>
	<path fill="none" stroke="#F95959" stroke-width="5" stroke-linecap="round" stroke-linejoin="round" stroke-miterlimit="10" d="
		M396.5,469v-39.643c0-9.271,8.075-15.857,17.346-15.857H452"/>
</g>
</svg>
