<?xml version="1.0" encoding="utf-8"?>
<!-- Generator: Adobe Illustrator 17.0.1, SVG Export Plug-In . SVG Version: 6.00 Build 0)  -->
<!DOCTYPE svg PUBLIC "-//W3C//DTD SVG 1.1//EN" "http://www.w3.org/Graphics/SVG/1.1/DTD/svg11.dtd">
<svg version="1.1" xmlns="http://www.w3.org/2000/svg" xmlns:xlink="http://www.w3.org/1999/xlink" x="0px" y="0px" width="500px"
	 height="500px" viewBox="0 0 500 500" enable-background="new 0 0 500 500" xml:space="preserve">
<g id="Layer_1">
</g>
<g id="Layer_2">
</g>
<g id="Layer_3">
</g>
<g id="Layer_4">
	<g>
		<g>
			
				<line fill="none" stroke="#F95959" stroke-width="5" stroke-linecap="round" stroke-linejoin="round" stroke-miterlimit="10" x1="473.042" y1="314.405" x2="18.987" y2="301.103"/>
			
				<line fill="none" stroke="#F95959" stroke-width="5" stroke-linecap="round" stroke-linejoin="round" stroke-miterlimit="10" x1="472.722" y1="325.32" x2="15.393" y2="311.922"/>
			<path fill="none" stroke="#F95959" stroke-width="5" stroke-linecap="round" stroke-linejoin="round" stroke-miterlimit="10" d="
				M14.653,328.289"/>
			<path fill="none" stroke="#F95959" stroke-width="5" stroke-linecap="round" stroke-linejoin="round" stroke-miterlimit="10" d="
				M472.592,341.704"/>
			
				<polyline fill="none" stroke="#F95959" stroke-width="5" stroke-linecap="round" stroke-linejoin="round" stroke-miterlimit="10" points="
				32.477,362.673 9.422,361.998 3.527,326.868 14.4,327.187 15.165,301.054 72.872,262.262 97.313,190.489 			"/>
			
				<line fill="none" stroke="#F95959" stroke-width="5" stroke-linecap="round" stroke-linejoin="round" stroke-miterlimit="10" x1="115.185" y1="231.63" x2="126.452" y2="215.208"/>
			
				<line fill="none" stroke="#F95959" stroke-width="5" stroke-linecap="round" stroke-linejoin="round" stroke-miterlimit="10" x1="99.363" y1="254.693" x2="105.77" y2="245.354"/>
			
				<line fill="none" stroke="#F95959" stroke-width="5" stroke-linecap="round" stroke-linejoin="round" stroke-miterlimit="10" x1="136.608" y1="225.264" x2="143.172" y2="215.698"/>
			
				<line fill="none" stroke="#F95959" stroke-width="5" stroke-linecap="round" stroke-linejoin="round" stroke-miterlimit="10" x1="116.083" y1="255.183" x2="129.821" y2="235.157"/>
			<path fill="none" stroke="#F95959" stroke-width="5" stroke-linecap="round" stroke-linejoin="round" stroke-miterlimit="10" d="
				M13.905,323.353c-3.698-0.108-6.59-3.793-6.46-8.23c0.13-4.437,3.233-7.946,6.93-7.838"/>
			
				<circle fill="none" stroke="#F95959" stroke-width="5" stroke-linecap="round" stroke-linejoin="round" stroke-miterlimit="10" cx="75.254" cy="364.014" r="33.936"/>
			<path fill="none" stroke="#F95959" stroke-width="5" stroke-linecap="round" stroke-linejoin="round" stroke-miterlimit="10" d="
				M318.548,377.984c2.71,15.55,16.046,27.578,32.439,28.059c16.324,0.478,30.293-10.654,33.98-25.92"/>
			
				<circle fill="none" stroke="#F95959" stroke-width="5" stroke-linecap="round" stroke-linejoin="round" stroke-miterlimit="10" cx="75.254" cy="364.014" r="16.968"/>
			
				<circle fill="none" stroke="#F95959" stroke-width="5" stroke-linecap="round" stroke-linejoin="round" stroke-miterlimit="10" cx="351.98" cy="372.121" r="16.968"/>
			<path fill="none" stroke="#F95959" stroke-width="5" stroke-linecap="round" stroke-linejoin="round" stroke-miterlimit="10" d="
				M185.91,364.437l5.036-171.908l-126.641-3.71c0,0-14.912-9.432-4.582-22.754c10.33-13.322,24.704-31.277,24.704-31.277
				l375.143,10.99l15.481,118.716l-2.955,100.871l-82.305,8.012l-10.044-28.586l-51.235-1.568l-14.019,27.712l-198.172-5.806
				c0.671-22.921-17.108-41.555-39.787-42.22s-40.916,17.209-41.581,39.887"/>
			<path fill="none" stroke="#F95959" stroke-width="5" stroke-linecap="round" stroke-linejoin="round" stroke-miterlimit="10" d="
				M327.216,239.412c-0.296,10.09-8.715,18.03-18.805,17.734l-83.524-2.447c-10.09-0.296-18.03-8.715-17.734-18.805l0.72-24.584
				c0.296-10.09,8.715-18.03,18.805-17.734l83.524,2.447c10.09,0.296,18.03,8.715,17.734,18.805L327.216,239.412z"/>
			
				<line fill="none" stroke="#F95959" stroke-width="5" stroke-linecap="round" stroke-linejoin="round" stroke-miterlimit="10" x1="157.167" y1="264.186" x2="158.829" y2="207.429"/>
			
				<line fill="none" stroke="#F95959" stroke-width="5" stroke-linecap="round" stroke-linejoin="round" stroke-miterlimit="10" x1="158.3" y1="206.867" x2="92.811" y2="204.949"/>
			
				<line fill="none" stroke="#F95959" stroke-width="5" stroke-linecap="round" stroke-linejoin="round" stroke-miterlimit="10" x1="156.605" y1="264.715" x2="72.561" y2="262.253"/>
			<path fill="none" stroke="#F95959" stroke-width="5" stroke-linecap="round" stroke-linejoin="round" stroke-miterlimit="10" d="
				M491.035,352.748c-0.148,5.053-4.365,9.03-9.418,8.882l-0.255-0.008c-5.053-0.148-9.03-4.365-8.882-9.418l1.926-65.744
				c0.148-5.053,4.365-9.03,9.418-8.882l0.255,0.007c5.053,0.148,9.03,4.365,8.882,9.418L491.035,352.748z"/>
			<path fill="none" stroke="#F95959" stroke-width="5" stroke-linecap="round" stroke-linejoin="round" stroke-miterlimit="10" d="
				M305.299,129.917c-0.148,5.053-4.365,9.03-9.418,8.882l-65.744-1.926c-5.053-0.148-9.03-4.365-8.882-9.418l0.007-0.255
				c0.148-5.053,4.365-9.03,9.418-8.882l65.744,1.926c5.053,0.148,9.03,4.365,8.882,9.418L305.299,129.917z"/>
			<path fill="none" stroke="#F95959" stroke-width="5" stroke-linecap="round" stroke-linejoin="round" stroke-miterlimit="10" d="
				M403.623,92.378c-0.148,5.053-4.365,9.03-9.418,8.882l-65.744-1.926c-5.053-0.148-9.03-4.365-8.882-9.418l0.008-0.255
				c0.148-5.053,4.365-9.03,9.418-8.882l65.744,1.926c5.053,0.148,9.03,4.365,8.882,9.418L403.623,92.378z"/>
			
				<line fill="none" stroke="#F95959" stroke-width="5" stroke-linecap="round" stroke-linejoin="round" stroke-miterlimit="10" x1="262.789" y1="229.686" x2="283.233" y2="210.406"/>
			
				<line fill="none" stroke="#F95959" stroke-width="5" stroke-linecap="round" stroke-linejoin="round" stroke-miterlimit="10" x1="254.344" y1="216.819" x2="261.809" y2="209.779"/>
			
				<line fill="none" stroke="#F95959" stroke-width="5" stroke-linecap="round" stroke-linejoin="round" stroke-miterlimit="10" x1="220.927" y1="240.521" x2="240.567" y2="221.999"/>
			
				<line fill="none" stroke="#F95959" stroke-width="5" stroke-linecap="round" stroke-linejoin="round" stroke-miterlimit="10" x1="304.766" y1="218.743" x2="312.691" y2="211.269"/>
			
				<line fill="none" stroke="#F95959" stroke-width="5" stroke-linecap="round" stroke-linejoin="round" stroke-miterlimit="10" x1="275.38" y1="242.116" x2="290.426" y2="227.927"/>
			<path fill="none" stroke="#F95959" stroke-width="5" stroke-linecap="round" stroke-linejoin="round" stroke-miterlimit="10" d="
				M453.828,243.121c-0.296,10.09-8.715,18.03-18.805,17.734l-83.524-2.447c-10.09-0.296-18.03-8.715-17.734-18.805l0.72-24.584
				c0.296-10.09,8.715-18.03,18.805-17.734l83.524,2.447c10.09,0.296,18.03,8.715,17.734,18.805L453.828,243.121z"/>
			
				<line fill="none" stroke="#F95959" stroke-width="5" stroke-linecap="round" stroke-linejoin="round" stroke-miterlimit="10" x1="391.255" y1="236.13" x2="411.699" y2="216.85"/>
			
				<line fill="none" stroke="#F95959" stroke-width="5" stroke-linecap="round" stroke-linejoin="round" stroke-miterlimit="10" x1="376.251" y1="245.071" x2="383.028" y2="238.681"/>
			
				<line fill="none" stroke="#F95959" stroke-width="5" stroke-linecap="round" stroke-linejoin="round" stroke-miterlimit="10" x1="356.613" y1="244.496" x2="376.253" y2="225.974"/>
			
				<line fill="none" stroke="#F95959" stroke-width="5" stroke-linecap="round" stroke-linejoin="round" stroke-miterlimit="10" x1="437.986" y1="245.875" x2="445.911" y2="238.401"/>
			
				<line fill="none" stroke="#F95959" stroke-width="5" stroke-linecap="round" stroke-linejoin="round" stroke-miterlimit="10" x1="405.709" y1="245.934" x2="420.755" y2="231.745"/>
			
				<rect x="316.486" y="100.271" transform="matrix(0.9996 0.0293 -0.0293 0.9996 3.7142 -10.4945)" fill="none" stroke="#F95959" stroke-width="5" stroke-linecap="round" stroke-linejoin="round" stroke-miterlimit="10" width="87.356" height="42.586"/>
			
				<rect x="219.76" y="89.82" transform="matrix(0.9996 0.0293 -0.0293 0.9996 3.1753 -7.7014)" fill="none" stroke="#F95959" stroke-width="5" stroke-linecap="round" stroke-linejoin="round" stroke-miterlimit="10" width="89.539" height="29.483"/>
			<g>
				
					<line fill="none" stroke="#F95959" stroke-width="5" stroke-linecap="round" stroke-linejoin="round" stroke-miterlimit="10" x1="472.652" y1="165.972" x2="484.212" y2="250.021"/>
				
					<line fill="none" stroke="#F95959" stroke-width="5" stroke-linecap="round" stroke-linejoin="round" stroke-miterlimit="10" x1="474.826" y1="185.055" x2="466.864" y2="186.15"/>
				
					<line fill="none" stroke="#F95959" stroke-width="5" stroke-linecap="round" stroke-linejoin="round" stroke-miterlimit="10" x1="481.153" y1="231.06" x2="473.191" y2="232.155"/>
			</g>
			<path fill="none" stroke="#F95959" stroke-width="5" stroke-linecap="round" stroke-linejoin="round" stroke-miterlimit="10" d="
				M414.834,392.115c0,0-2.255,2.9-5.87,2.794c-3.614-0.106-5.698-3.061-5.698-3.061s-2.082-3.027-5.696-3.133
				c-3.614-0.106-5.87,2.794-5.87,2.794"/>
			<path fill="none" stroke="#F95959" stroke-width="5" stroke-linecap="round" stroke-linejoin="round" stroke-miterlimit="10" d="
				M455.589,393.309c0,0-2.255,2.9-5.87,2.794c-3.614-0.106-5.698-3.061-5.698-3.061s-2.082-3.027-5.696-3.133
				c-3.614-0.106-5.87,2.794-5.87,2.794"/>
			<path fill="none" stroke="#F95959" stroke-width="5" stroke-linecap="round" stroke-linejoin="round" stroke-miterlimit="10" d="
				M432.353,381.156c0,0-2.255,2.9-5.87,2.794c-3.614-0.106-5.698-3.061-5.698-3.061s-2.082-3.027-5.696-3.133
				c-3.614-0.106-5.87,2.794-5.87,2.794"/>
			
				<line fill="none" stroke="#F95959" stroke-width="5" stroke-linecap="round" stroke-linejoin="round" stroke-miterlimit="10" x1="267.026" y1="89.541" x2="287.801" y2="139.013"/>
			
				<line fill="none" stroke="#F95959" stroke-width="5" stroke-linecap="round" stroke-linejoin="round" stroke-miterlimit="10" x1="252.939" y1="90.02" x2="251.5" y2="139.137"/>
			
				<line fill="none" stroke="#F95959" stroke-width="5" stroke-linecap="round" stroke-linejoin="round" stroke-miterlimit="10" x1="354.638" y1="83.174" x2="335.093" y2="140.399"/>
		</g>
		
			<line fill="none" stroke="#F95959" stroke-width="5" stroke-linecap="round" stroke-linejoin="round" stroke-miterlimit="10" x1="436" y1="419.5" x2="208" y2="419.5"/>
		
			<line fill="none" stroke="#F95959" stroke-width="5" stroke-linecap="round" stroke-linejoin="round" stroke-miterlimit="10" x1="179" y1="419.5" x2="117" y2="419.5"/>
		
			<line fill="none" stroke="#F95959" stroke-width="5" stroke-linecap="round" stroke-linejoin="round" stroke-miterlimit="10" x1="94" y1="419.5" x2="66" y2="419.5"/>
		<path fill="none" stroke="#F95959" stroke-width="5" stroke-linecap="round" stroke-linejoin="round" stroke-miterlimit="10" d="
			M453.052,90.738c0,0-2.255,2.9-5.87,2.794s-5.698-3.061-5.698-3.061s-2.082-3.027-5.696-3.133c-3.614-0.106-5.87,2.794-5.87,2.794
			"/>
		<path fill="none" stroke="#F95959" stroke-width="5" stroke-linecap="round" stroke-linejoin="round" stroke-miterlimit="10" d="
			M128.744,399.758c0,0-2.255,2.9-5.87,2.794c-3.614-0.106-5.698-3.061-5.698-3.061s-2.082-3.027-5.696-3.133
			c-3.614-0.106-5.87,2.794-5.87,2.794"/>
		<path fill="none" stroke="#F95959" stroke-width="5" stroke-linecap="round" stroke-linejoin="round" stroke-miterlimit="10" d="
			M443.225,121.313c0,0-2.255,2.9-5.87,2.794c-3.614-0.106-5.698-3.061-5.698-3.061s-2.082-3.027-5.696-3.133
			s-5.87,2.794-5.87,2.794"/>
	</g>
</g>
</svg>
