<?xml version="1.0" encoding="utf-8"?>
<!-- Generator: Adobe Illustrator 17.0.1, SVG Export Plug-In . SVG Version: 6.00 Build 0)  -->
<!DOCTYPE svg PUBLIC "-//W3C//DTD SVG 1.1//EN" "http://www.w3.org/Graphics/SVG/1.1/DTD/svg11.dtd">
<svg version="1.1" xmlns="http://www.w3.org/2000/svg" xmlns:xlink="http://www.w3.org/1999/xlink" x="0px" y="0px" width="500px"
	 height="500px" viewBox="0 0 500 500" enable-background="new 0 0 500 500" xml:space="preserve">
<g id="Layer_1">
</g>
<g id="Layer_2">
</g>
<g id="Layer_3">
</g>
<g id="Layer_4">
	<g>
		<g>
			<path fill="none" stroke="#F95959" stroke-width="5" stroke-linecap="round" stroke-linejoin="round" stroke-miterlimit="10" d="
				M234.024,48.092l13.599,2.581c18.763,3.561,31.032,21.236,27.47,39.999l-19.162,100.951
				c-3.561,18.763-21.518,31.057-40.281,27.496l-100.951-19.162c-18.763-3.561-30.775-21.544-27.213-40.307l19.162-100.951
				c3.561-18.763,21.261-30.749,40.024-27.188l14.856,2.82"/>
			<path fill="none" stroke="#F95959" stroke-width="5" stroke-linecap="round" stroke-linejoin="round" stroke-miterlimit="10" d="
				M174.949,36.368c-0.611,3.217-3.713,5.329-6.93,4.719l-0.079-0.015c-3.217-0.611-5.329-3.713-4.719-6.93l0.015-0.079
				c0.611-3.217,3.713-5.329,6.93-4.719l0.079,0.015c3.217,0.611,5.329,3.713,4.719,6.93L174.949,36.368z"/>
			<path fill="none" stroke="#F95959" stroke-width="5" stroke-linecap="round" stroke-linejoin="round" stroke-miterlimit="10" d="
				M232.518,47.295c-0.611,3.217-3.713,5.329-6.93,4.719l-0.079-0.015c-3.217-0.611-5.329-3.713-4.719-6.93l0.015-0.079
				c0.611-3.217,3.713-5.329,6.93-4.719l0.079,0.015c3.217,0.611,5.329,3.713,4.719,6.93L232.518,47.295z"/>
			<path fill="none" stroke="#F95959" stroke-width="5" stroke-linecap="round" stroke-linejoin="round" stroke-miterlimit="10" d="
				M341.6,426.928l11.665-61.457l-0.289-0.462c5.495-28.947-13.631-56.89-42.578-62.384s-56.925,13.507-62.419,42.454l-4.271,22.319
				c-5.495,28.947-33.43,47.957-62.377,42.463s-47.919-33.408-42.424-62.355l0.099,0.426l22.927-120.785"/>
			<path fill="none" stroke="#F95959" stroke-width="5" stroke-linecap="round" stroke-linejoin="round" stroke-miterlimit="10" d="
				M352.297,412.711c11.683,5.821,18.758,18.743,16.564,32.306c-2.7,16.699-18.426,28.047-35.125,25.346
				s-28.047-18.426-25.346-35.125c2.332-14.421,14.379-24.852,28.377-25.689"/>
			
				<circle fill="none" stroke="#F95959" stroke-width="5" stroke-linecap="round" stroke-linejoin="round" stroke-miterlimit="10" cx="338.626" cy="440.128" r="13.338"/>
			
				<polygon fill="none" stroke="#F95959" stroke-width="5" stroke-linecap="round" stroke-linejoin="round" stroke-miterlimit="10" points="
				162.101,226.61 158.888,217.172 155.674,207.735 165.336,209.569 174.998,211.403 168.55,219.006 			"/>
		</g>
		<g>
			
				<circle fill="none" stroke="#F95959" stroke-width="5" stroke-linecap="round" stroke-linejoin="round" stroke-miterlimit="10" cx="369.58" cy="136.287" r="47.392"/>
			
				<circle fill="none" stroke="#F95959" stroke-width="5" stroke-linecap="round" stroke-linejoin="round" stroke-miterlimit="10" cx="369.58" cy="136.287" r="60.687"/>
			
				<circle fill="none" stroke="#F95959" stroke-width="5" stroke-linecap="round" stroke-linejoin="round" stroke-miterlimit="10" cx="369.58" cy="136.287" r="17.911"/>
			
				<circle fill="none" stroke="#F95959" stroke-width="3" stroke-linecap="round" stroke-linejoin="round" stroke-miterlimit="10" cx="369.58" cy="103.788" r="7.516"/>
			
				<circle fill="none" stroke="#F95959" stroke-width="3" stroke-linecap="round" stroke-linejoin="round" stroke-miterlimit="10" cx="350.478" cy="109.994" r="7.516"/>
			
				<circle fill="none" stroke="#F95959" stroke-width="3" stroke-linecap="round" stroke-linejoin="round" stroke-miterlimit="10" cx="338.671" cy="126.244" r="7.516"/>
			
				<circle fill="none" stroke="#F95959" stroke-width="3" stroke-linecap="round" stroke-linejoin="round" stroke-miterlimit="10" cx="338.671" cy="146.33" r="7.516"/>
			
				<circle fill="none" stroke="#F95959" stroke-width="3" stroke-linecap="round" stroke-linejoin="round" stroke-miterlimit="10" cx="350.478" cy="162.579" r="7.516"/>
			
				<circle fill="none" stroke="#F95959" stroke-width="3" stroke-linecap="round" stroke-linejoin="round" stroke-miterlimit="10" cx="369.58" cy="168.786" r="7.516"/>
			
				<circle fill="none" stroke="#F95959" stroke-width="3" stroke-linecap="round" stroke-linejoin="round" stroke-miterlimit="10" cx="388.683" cy="162.579" r="7.516"/>
			
				<circle fill="none" stroke="#F95959" stroke-width="3" stroke-linecap="round" stroke-linejoin="round" stroke-miterlimit="10" cx="400.489" cy="146.33" r="7.516"/>
			
				<circle fill="none" stroke="#F95959" stroke-width="3" stroke-linecap="round" stroke-linejoin="round" stroke-miterlimit="10" cx="400.489" cy="126.244" r="7.516"/>
			
				<circle fill="none" stroke="#F95959" stroke-width="3" stroke-linecap="round" stroke-linejoin="round" stroke-miterlimit="10" cx="388.683" cy="109.994" r="7.516"/>
		</g>
		<g>
			
				<circle fill="none" stroke="#F95959" stroke-width="5" stroke-linecap="round" stroke-linejoin="round" stroke-miterlimit="10" cx="424.893" cy="266.238" r="26.354"/>
			
				<circle fill="none" stroke="#F95959" stroke-width="5" stroke-linecap="round" stroke-linejoin="round" stroke-miterlimit="10" cx="424.893" cy="266.238" r="14.417"/>
			
				<line fill="none" stroke="#F95959" stroke-width="5" stroke-linecap="round" stroke-linejoin="round" stroke-miterlimit="10" x1="426.5" y1="239" x2="426.5" y2="233"/>
			
				<line fill="none" stroke="#F95959" stroke-width="5" stroke-linecap="round" stroke-linejoin="round" stroke-miterlimit="10" x1="405.989" y1="247.025" x2="402.439" y2="243.475"/>
			
				<line fill="none" stroke="#F95959" stroke-width="5" stroke-linecap="round" stroke-linejoin="round" stroke-miterlimit="10" x1="398" y1="264.5" x2="391" y2="264.5"/>
			
				<line fill="none" stroke="#F95959" stroke-width="5" stroke-linecap="round" stroke-linejoin="round" stroke-miterlimit="10" x1="405.279" y1="285.362" x2="401.729" y2="288.912"/>
			
				<line fill="none" stroke="#F95959" stroke-width="5" stroke-linecap="round" stroke-linejoin="round" stroke-miterlimit="10" x1="425.5" y1="293" x2="425.5" y2="296"/>
			
				<line fill="none" stroke="#F95959" stroke-width="5" stroke-linecap="round" stroke-linejoin="round" stroke-miterlimit="10" x1="443.616" y1="286.072" x2="447.166" y2="289.622"/>
			
				<line fill="none" stroke="#F95959" stroke-width="5" stroke-linecap="round" stroke-linejoin="round" stroke-miterlimit="10" x1="452" y1="266.5" x2="458" y2="266.5"/>
			
				<line fill="none" stroke="#F95959" stroke-width="5" stroke-linecap="round" stroke-linejoin="round" stroke-miterlimit="10" x1="444.326" y1="247.735" x2="447.876" y2="244.185"/>
			
				<line fill="none" stroke="#F95959" stroke-width="5" stroke-linecap="round" stroke-linejoin="round" stroke-miterlimit="10" x1="435.947" y1="241.655" x2="437.969" y2="237.06"/>
			
				<line fill="none" stroke="#F95959" stroke-width="5" stroke-linecap="round" stroke-linejoin="round" stroke-miterlimit="10" x1="415.327" y1="241.039" x2="413.507" y2="236.36"/>
			
				<line fill="none" stroke="#F95959" stroke-width="5" stroke-linecap="round" stroke-linejoin="round" stroke-miterlimit="10" x1="399.96" y1="254.89" x2="395.365" y2="252.868"/>
			
				<line fill="none" stroke="#F95959" stroke-width="5" stroke-linecap="round" stroke-linejoin="round" stroke-miterlimit="10" x1="399.238" y1="275.844" x2="394.559" y2="277.664"/>
			
				<line fill="none" stroke="#F95959" stroke-width="5" stroke-linecap="round" stroke-linejoin="round" stroke-miterlimit="10" x1="413.194" y1="290.877" x2="411.173" y2="295.472"/>
			
				<line fill="none" stroke="#F95959" stroke-width="5" stroke-linecap="round" stroke-linejoin="round" stroke-miterlimit="10" x1="434.043" y1="291.933" x2="435.863" y2="296.612"/>
			
				<line fill="none" stroke="#F95959" stroke-width="5" stroke-linecap="round" stroke-linejoin="round" stroke-miterlimit="10" x1="449.182" y1="277.643" x2="453.777" y2="279.664"/>
			
				<line fill="none" stroke="#F95959" stroke-width="5" stroke-linecap="round" stroke-linejoin="round" stroke-miterlimit="10" x1="450.132" y1="257.128" x2="454.811" y2="255.308"/>
		</g>
		<g>
			
				<polygon fill="none" stroke="#F95959" stroke-width="5" stroke-linecap="round" stroke-linejoin="round" stroke-miterlimit="10" points="
				313.099,262.846 291.447,266.431 277.301,249.651 284.808,229.284 306.46,225.699 320.606,242.48 			"/>
			
				<circle fill="none" stroke="#F95959" stroke-width="5" stroke-linecap="round" stroke-linejoin="round" stroke-miterlimit="10" cx="298.953" cy="246.065" r="8.607"/>
		</g>
		<g>
			
				<polygon fill="none" stroke="#F95959" stroke-width="5" stroke-linecap="round" stroke-linejoin="round" stroke-miterlimit="10" points="
				80.098,316.652 82.199,338.499 64.493,351.468 44.686,342.59 42.585,320.743 60.291,307.775 			"/>
			
				<circle fill="none" stroke="#F95959" stroke-width="5" stroke-linecap="round" stroke-linejoin="round" stroke-miterlimit="10" cx="62.392" cy="329.621" r="8.607"/>
		</g>
	</g>
</g>
</svg>
