<?xml version="1.0" encoding="utf-8"?>
<!-- Generator: Adobe Illustrator 17.0.1, SVG Export Plug-In . SVG Version: 6.00 Build 0)  -->
<!DOCTYPE svg PUBLIC "-//W3C//DTD SVG 1.1//EN" "http://www.w3.org/Graphics/SVG/1.1/DTD/svg11.dtd">
<svg version="1.1" id="Layer_1" xmlns="http://www.w3.org/2000/svg" xmlns:xlink="http://www.w3.org/1999/xlink" x="0px" y="0px"
	 width="800px" height="800px" viewBox="0 0 800 800" enable-background="new 0 0 800 800" xml:space="preserve">
<path fill="none" stroke="#f95959" stroke-width="12" stroke-linecap="round" stroke-linejoin="round" stroke-miterlimit="10" d="
	M375,621h362.431C767.643,621,792,594.781,792,564.57V247.294C792,217.082,767.643,190,737.431,190H694"/>
<path fill="none" stroke="#f95959" stroke-width="12" stroke-linecap="round" stroke-linejoin="round" stroke-miterlimit="10" d="
	M260,190h-47.716C182.073,190,157,217.082,157,247.294V564.57c0,30.211,25.073,56.43,55.284,56.43H260"/>
<line fill="none" stroke="#f95959" stroke-width="12" stroke-linecap="round" stroke-linejoin="round" stroke-miterlimit="10" x1="454" y1="190" x2="375" y2="190"/>
<circle fill="none" stroke="#f95959" stroke-width="12" stroke-linecap="round" stroke-linejoin="round" stroke-miterlimit="10" cx="488.077" cy="462.002" r="28.719"/>
<circle fill="none" stroke="#f95959" stroke-width="12" stroke-linecap="round" stroke-linejoin="round" stroke-miterlimit="10" cx="488.077" cy="363.537" r="28.719"/>
<circle fill="none" stroke="#f95959" stroke-width="12" stroke-linecap="round" stroke-linejoin="round" stroke-miterlimit="10" cx="575.602" cy="462.002" r="28.719"/>
<circle fill="none" stroke="#f95959" stroke-width="12" stroke-linecap="round" stroke-linejoin="round" stroke-miterlimit="10" cx="575.602" cy="363.537" r="28.719"/>
<circle fill="none" stroke="#f95959" stroke-width="12" stroke-linecap="round" stroke-linejoin="round" stroke-miterlimit="10" cx="663.126" cy="462.002" r="28.719"/>
<circle fill="none" stroke="#f95959" stroke-width="12" stroke-linecap="round" stroke-linejoin="round" stroke-miterlimit="10" cx="488.077" cy="554.997" r="28.719"/>
<circle fill="none" stroke="#f95959" stroke-width="12" stroke-linecap="round" stroke-linejoin="round" stroke-miterlimit="10" cx="575.602" cy="554.997" r="28.719"/>
<circle fill="none" stroke="#f95959" stroke-width="12" stroke-linecap="round" stroke-linejoin="round" stroke-miterlimit="10" cx="663.126" cy="554.997" r="28.719"/>
<circle fill="none" stroke="#f95959" stroke-width="12" stroke-linecap="round" stroke-linejoin="round" stroke-miterlimit="10" cx="663.126" cy="363.537" r="28.719"/>
<polygon fill="none" stroke="#f95959" stroke-width="12" stroke-linecap="round" stroke-linejoin="round" stroke-miterlimit="10" points="
	692,102.331 692,312 456,312 456,49 641.701,49 "/>
<path fill="none" stroke="#f95959" stroke-width="12" stroke-linecap="round" stroke-linejoin="round" stroke-miterlimit="10" d="
	M155,574H39.97h-3.282C21.864,574,9,587.49,9,602.315v1.094C9,618.233,21.864,631,36.688,631h3.282h38.292h-5.47h3.282
	C90.899,631,104,642.193,104,657.018v1.094C104,672.936,90.899,684,76.074,684h-3.282h5.47H39.97h-0.547
	C24.599,684,9,696.896,9,711.72v1.094C9,727.639,22.889,742,37.714,742h248.419h3.282C304.24,742,315,727.639,315,712.814v-3.282
	v5.47V666"/>
<line fill="none" stroke="#f95959" stroke-width="12" stroke-linecap="round" stroke-linejoin="round" stroke-miterlimit="10" x1="643" y1="154" x2="516" y2="154"/>
<line fill="none" stroke="#f95959" stroke-width="12" stroke-linecap="round" stroke-linejoin="round" stroke-miterlimit="10" x1="516" y1="186" x2="643" y2="186"/>
<polyline fill="none" stroke="#f95959" stroke-width="12" stroke-linecap="round" stroke-linejoin="round" stroke-miterlimit="10" points="
	644,51 644,107 690,107 "/>
<path fill="none" stroke="#f95959" stroke-width="12" stroke-linecap="round" stroke-linejoin="round" stroke-miterlimit="10" d="
	M373,636.649C373,651.754,360.754,664,345.649,664h-56.297C274.246,664,262,651.754,262,636.649V171.351
	C262,156.246,274.246,144,289.351,144h56.297C360.754,144,373,156.246,373,171.351V636.649z"/>
<path fill="none" stroke="#f95959" stroke-width="12" stroke-linecap="round" stroke-linejoin="round" stroke-miterlimit="10" d="
	M439.301,192.591"/>
<path fill="none" stroke="#f95959" stroke-width="12" stroke-linecap="round" stroke-linejoin="round" stroke-miterlimit="10" d="
	M444.771,192.591"/>
<line fill="none" stroke="#f95959" stroke-width="12" stroke-linecap="round" stroke-linejoin="round" stroke-miterlimit="10" x1="643" y1="220" x2="516" y2="220"/>
</svg>
