<?xml version="1.0" encoding="utf-8"?>
<!-- Generator: Adobe Illustrator 17.0.1, SVG Export Plug-In . SVG Version: 6.00 Build 0)  -->
<!DOCTYPE svg PUBLIC "-//W3C//DTD SVG 1.1//EN" "http://www.w3.org/Graphics/SVG/1.1/DTD/svg11.dtd">
<svg version="1.1" id="Layer_4" xmlns="http://www.w3.org/2000/svg" xmlns:xlink="http://www.w3.org/1999/xlink" x="0px" y="0px"
	 width="500px" height="500px" viewBox="0 0 500 500" enable-background="new 0 0 500 500" xml:space="preserve">
<g>
	<g>
		
			<circle fill="none" stroke="#F95959" stroke-width="5" stroke-linecap="round" stroke-linejoin="round" stroke-miterlimit="10" cx="259.937" cy="270.636" r="29.933"/>
		<g>
			
				<circle fill="none" stroke="#F95959" stroke-width="5" stroke-linecap="round" stroke-linejoin="round" stroke-miterlimit="10" cx="259.937" cy="214.955" r="6.652"/>
			
				<circle fill="none" stroke="#F95959" stroke-width="5" stroke-linecap="round" stroke-linejoin="round" stroke-miterlimit="10" cx="259.937" cy="325.477" r="6.652"/>
		</g>
		<g>
			
				<circle fill="none" stroke="#F95959" stroke-width="5" stroke-linecap="round" stroke-linejoin="round" stroke-miterlimit="10" cx="315.199" cy="270.216" r="6.652"/>
			
				<circle fill="none" stroke="#F95959" stroke-width="5" stroke-linecap="round" stroke-linejoin="round" stroke-miterlimit="10" cx="204.676" cy="270.216" r="6.652"/>
		</g>
		
			<circle fill="none" stroke="#F95959" stroke-width="5" stroke-linecap="round" stroke-linejoin="round" stroke-miterlimit="10" cx="259.937" cy="270.636" r="96.323"/>
		<path fill="none" stroke="#F95959" stroke-width="5" stroke-linecap="round" stroke-linejoin="round" stroke-miterlimit="10" d="
			M152.485,130.743c29.718-23.026,66.989-36.656,107.452-36.656c97.26,0,176.16,78.839,176.16,176.099
			c0,97.321-78.901,176.16-176.16,176.16c-40.464,0-77.734-13.631-107.452-36.657"/>
		<path fill="none" stroke="#F95959" stroke-width="5" stroke-linecap="round" stroke-linejoin="round" stroke-miterlimit="10" d="
			M151.5,191v-24.114v-0.011l-16.794-17.064l0.152,0.079c-3.017-3.017-6.762-5.752-10.533-7.71
			c-13.564-7.046-31.358-5.313-43.402,4.097c-6.483,5.065-10.586,12.663-14.672,19.631c-2.476,4.221-4.82,8.521-7.026,12.888
			c-7.587,15.004-13.754,30.785-17.48,47.174c-3.276,14.419-5.245,29.468-5.245,44.247v0.473c0,14.779,1.974,29.828,5.249,44.236
			c3.726,16.4,9.71,32.181,17.297,47.174c2.206,4.379,4.652,8.667,7.129,12.899c4.086,6.967,8.253,14.554,14.736,19.619
			c12.044,9.41,29.897,11.155,43.46,4.108c3.771-1.959,7.598-4.705,10.615-7.71l-0.286,0.079l16.8-17.064v-0.259v-14.903V350"/>
		
			<polyline fill="none" stroke="#F95959" stroke-width="5" stroke-linecap="round" stroke-linejoin="round" stroke-miterlimit="10" points="
			151.5,374 151.5,358.868 151.5,349.863 151.5,192.234 151.5,191.041 151.5,166.886 151.5,166.874 151.5,166 		"/>
		<g>
			<g>
				
					<circle fill="none" stroke="#F95959" stroke-width="5" stroke-linecap="round" stroke-linejoin="round" stroke-miterlimit="10" cx="291.797" cy="119.118" r="6.652"/>
				
					<circle fill="none" stroke="#F95959" stroke-width="5" stroke-linecap="round" stroke-linejoin="round" stroke-miterlimit="10" cx="275.878" cy="135.037" r="6.652"/>
				
					<circle fill="none" stroke="#F95959" stroke-width="5" stroke-linecap="round" stroke-linejoin="round" stroke-miterlimit="10" cx="259.96" cy="150.955" r="6.652"/>
			</g>
			<g>
				
					<circle fill="none" stroke="#F95959" stroke-width="5" stroke-linecap="round" stroke-linejoin="round" stroke-miterlimit="10" cx="228.443" cy="422.439" r="6.652"/>
				
					<circle fill="none" stroke="#F95959" stroke-width="5" stroke-linecap="round" stroke-linejoin="round" stroke-miterlimit="10" cx="244.361" cy="406.52" r="6.652"/>
				
					<circle fill="none" stroke="#F95959" stroke-width="5" stroke-linecap="round" stroke-linejoin="round" stroke-miterlimit="10" cx="260.28" cy="390.602" r="6.652"/>
			</g>
			<g>
				
					<circle fill="none" stroke="#F95959" stroke-width="5" stroke-linecap="round" stroke-linejoin="round" stroke-miterlimit="10" cx="189.943" cy="141.253" r="6.652"/>
				
					<circle fill="none" stroke="#F95959" stroke-width="5" stroke-linecap="round" stroke-linejoin="round" stroke-miterlimit="10" cx="181.328" cy="162.051" r="6.652"/>
				
					<circle fill="none" stroke="#F95959" stroke-width="5" stroke-linecap="round" stroke-linejoin="round" stroke-miterlimit="10" cx="172.713" cy="182.85" r="6.652"/>
			</g>
			<g>
				
					<circle fill="none" stroke="#F95959" stroke-width="5" stroke-linecap="round" stroke-linejoin="round" stroke-miterlimit="10" cx="176.237" cy="354.007" r="6.652"/>
			</g>
		</g>
		<g>
			
				<circle fill="none" stroke="#F95959" stroke-width="5" stroke-linecap="round" stroke-linejoin="round" stroke-miterlimit="10" cx="411.78" cy="301.893" r="6.652"/>
			
				<circle fill="none" stroke="#F95959" stroke-width="5" stroke-linecap="round" stroke-linejoin="round" stroke-miterlimit="10" cx="395.862" cy="285.974" r="6.652"/>
			
				<circle fill="none" stroke="#F95959" stroke-width="5" stroke-linecap="round" stroke-linejoin="round" stroke-miterlimit="10" cx="379.943" cy="270.056" r="6.652"/>
		</g>
		<g>
			
				<circle fill="none" stroke="#F95959" stroke-width="5" stroke-linecap="round" stroke-linejoin="round" stroke-miterlimit="10" cx="389.759" cy="185.938" r="6.652"/>
			
				<circle fill="none" stroke="#F95959" stroke-width="5" stroke-linecap="round" stroke-linejoin="round" stroke-miterlimit="10" cx="367.247" cy="185.938" r="6.652"/>
			
				<circle fill="none" stroke="#F95959" stroke-width="5" stroke-linecap="round" stroke-linejoin="round" stroke-miterlimit="10" cx="344.735" cy="185.938" r="6.652"/>
		</g>
		<g>
			
				<circle fill="none" stroke="#F95959" stroke-width="5" stroke-linecap="round" stroke-linejoin="round" stroke-miterlimit="10" cx="345.359" cy="400.02" r="6.652"/>
			
				<circle fill="none" stroke="#F95959" stroke-width="5" stroke-linecap="round" stroke-linejoin="round" stroke-miterlimit="10" cx="345.359" cy="377.508" r="6.652"/>
			
				<circle fill="none" stroke="#F95959" stroke-width="5" stroke-linecap="round" stroke-linejoin="round" stroke-miterlimit="10" cx="345.359" cy="354.995" r="6.652"/>
		</g>
		<path fill="none" stroke="#F95959" stroke-width="5" stroke-linecap="round" stroke-linejoin="round" stroke-miterlimit="10" d="
			M124.683,290.498c-10.988,0-19.896-8.908-19.896-19.896c0-10.988,8.908-19.896,19.896-19.896"/>
		
			<line fill="none" stroke="#F95959" stroke-width="5" stroke-linecap="round" stroke-linejoin="round" stroke-miterlimit="10" x1="101.973" y1="165.905" x2="125.996" y2="189.928"/>
		
			<line fill="none" stroke="#F95959" stroke-width="5" stroke-linecap="round" stroke-linejoin="round" stroke-miterlimit="10" x1="125.996" y1="353.88" x2="101.973" y2="377.904"/>
		
			<line fill="none" stroke="#F95959" stroke-width="5" stroke-linecap="round" stroke-linejoin="round" stroke-miterlimit="10" x1="80.5" y1="216" x2="80.5" y2="326"/>
		<g>
			
				<line fill="none" stroke="#F95959" stroke-width="5" stroke-linecap="round" stroke-linejoin="round" stroke-miterlimit="10" x1="349.61" y1="128.385" x2="297.149" y2="180.846"/>
			
				<line fill="none" stroke="#F95959" stroke-width="5" stroke-linecap="round" stroke-linejoin="round" stroke-miterlimit="10" x1="222.417" y1="360.259" x2="169.956" y2="412.72"/>
		</g>
		<g>
			
				<line fill="none" stroke="#F95959" stroke-width="5" stroke-linecap="round" stroke-linejoin="round" stroke-miterlimit="10" x1="350" y1="233.5" x2="423" y2="233.5"/>
		</g>
		<g>
			
				<line fill="none" stroke="#F95959" stroke-width="5" stroke-linecap="round" stroke-linejoin="round" stroke-miterlimit="10" x1="349.504" y1="306.269" x2="402.035" y2="358.8"/>
		</g>
		<g>
			
				<line fill="none" stroke="#F95959" stroke-width="5" stroke-linecap="round" stroke-linejoin="round" stroke-miterlimit="10" x1="295.5" y1="435" x2="295.5" y2="361"/>
			
				<line fill="none" stroke="#F95959" stroke-width="5" stroke-linecap="round" stroke-linejoin="round" stroke-miterlimit="10" x1="221.5" y1="179" x2="221.5" y2="106"/>
		</g>
		<path fill="none" stroke="#F95959" stroke-width="5" stroke-linecap="round" stroke-linejoin="round" stroke-miterlimit="10" d="
			M41.5,75v26.375c0,11.501,8.999,20.824,20.5,20.824s20.5-9.323,20.5-20.824V49.598v-0.563c0-11.501,9.499-20.824,21-20.824
			s21,9.323,21,20.824v-0.563V141"/>
		<g>
			
				<line fill="none" stroke="#F95959" stroke-width="5" stroke-linecap="round" stroke-linejoin="round" stroke-miterlimit="10" x1="162" y1="308.5" x2="171" y2="308.5"/>
		</g>
		<g>
			
				<line fill="none" stroke="#F95959" stroke-width="5" stroke-linecap="round" stroke-linejoin="round" stroke-miterlimit="10" x1="162.103" y1="225.8" x2="170.161" y2="233.858"/>
		</g>
		
			<line fill="none" stroke="#F95959" stroke-width="5" stroke-linecap="round" stroke-linejoin="round" stroke-miterlimit="10" x1="125.5" y1="225" x2="125.5" y2="251"/>
		
			<line fill="none" stroke="#F95959" stroke-width="5" stroke-linecap="round" stroke-linejoin="round" stroke-miterlimit="10" x1="125.5" y1="290" x2="125.5" y2="316"/>
	</g>
	
		<line fill="none" stroke="#F95959" stroke-width="5" stroke-linecap="round" stroke-linejoin="round" stroke-miterlimit="10" x1="124.5" y1="420" x2="124.5" y2="435"/>
	
		<line fill="none" stroke="#F95959" stroke-width="5" stroke-linecap="round" stroke-linejoin="round" stroke-miterlimit="10" x1="124.5" y1="455" x2="124.5" y2="462"/>
	<path fill="none" stroke="#F95959" stroke-width="5" stroke-linecap="round" stroke-linejoin="round" stroke-miterlimit="10" d="
		M314.652,467.002c-7.205,1.999-14.504,3.595-21.86,4.787"/>
	<path fill="none" stroke="#F95959" stroke-width="5" stroke-linecap="round" stroke-linejoin="round" stroke-miterlimit="10" d="
		M314.652,467.002"/>
	<path fill="none" stroke="#F95959" stroke-width="5" stroke-linecap="round" stroke-linejoin="round" stroke-miterlimit="10" d="
		M348.483,454.273c-8.139,3.925-16.492,7.28-24.998,10.061"/>
	<path fill="none" stroke="#F95959" stroke-width="5" stroke-linecap="round" stroke-linejoin="round" stroke-miterlimit="10" d="
		M348.483,454.273"/>
	<path fill="none" stroke="#F95959" stroke-width="5" stroke-linecap="round" stroke-linejoin="round" stroke-miterlimit="10" d="
		M421.287,146.145c12.867,16.677,22.757,34.709,29.743,53.463"/>
	<path fill="none" stroke="#F95959" stroke-width="5" stroke-linecap="round" stroke-linejoin="round" stroke-miterlimit="10" d="
		M452.373,339.348c-0.751,2.083-1.538,4.16-2.361,6.233c-1.926,4.848-4.017,9.581-6.263,14.196"/>
	<path fill="none" stroke="#F95959" stroke-width="5" stroke-linecap="round" stroke-linejoin="round" stroke-miterlimit="10" d="
		M463.579,289.433c-0.764,8.043-2.014,16.097-3.768,24.125"/>
	<path fill="none" stroke="#F95959" stroke-width="5" stroke-linecap="round" stroke-linejoin="round" stroke-miterlimit="10" d="
		M456.133,212.924"/>
	<path fill="none" stroke="#F95959" stroke-width="5" stroke-linecap="round" stroke-linejoin="round" stroke-miterlimit="10" d="
		M443.44,180.209"/>
	<path fill="none" stroke="#F95959" stroke-width="5" stroke-linecap="round" stroke-linejoin="round" stroke-miterlimit="10" d="
		M457.071,215.835c2.148,7.752,3.842,15.643,5.066,23.63"/>
	<path fill="none" stroke="#F95959" stroke-width="5" stroke-linecap="round" stroke-linejoin="round" stroke-miterlimit="10" d="
		M422.913,146.928"/>
	<path fill="none" stroke="#F95959" stroke-width="5" stroke-linecap="round" stroke-linejoin="round" stroke-miterlimit="10" d="
		M298.347,69.55c9.366,1.809,18.579,4.268,27.569,7.347"/>
	<path fill="none" stroke="#F95959" stroke-width="5" stroke-linecap="round" stroke-linejoin="round" stroke-miterlimit="10" d="
		M183.564,80.645c31.652-12.724,64.616-16.962,96.367-13.789"/>
	
		<line fill="none" stroke="#F95959" stroke-width="5" stroke-linecap="round" stroke-linejoin="round" stroke-miterlimit="10" x1="144.516" y1="420.448" x2="154.876" y2="440.434"/>
	
		<line fill="none" stroke="#F95959" stroke-width="5" stroke-linecap="round" stroke-linejoin="round" stroke-miterlimit="10" x1="163.682" y1="457.423" x2="167.308" y2="464.418"/>
</g>
</svg>
