<?xml version="1.0" encoding="utf-8"?>
<!-- Generator: Adobe Illustrator 17.0.1, SVG Export Plug-In . SVG Version: 6.00 Build 0)  -->
<!DOCTYPE svg PUBLIC "-//W3C//DTD SVG 1.1//EN" "http://www.w3.org/Graphics/SVG/1.1/DTD/svg11.dtd">
<svg version="1.1" id="Layer_4" xmlns="http://www.w3.org/2000/svg" xmlns:xlink="http://www.w3.org/1999/xlink" x="0px" y="0px"
	 width="500px" height="500px" viewBox="0 0 500 500" enable-background="new 0 0 500 500" xml:space="preserve">
<g>
	<g>
		<path fill="none" stroke="#F95959" stroke-width="5" stroke-linecap="round" stroke-linejoin="round" stroke-miterlimit="10" d="
			M375.192,272c0,6.075-4.99,10.5-11.145,10.5H134.77c-6.155,0-11.145-4.425-11.145-10.5l0,0c0-6.075,4.99-10.5,11.145-10.5h229.277
			C370.202,261.5,375.192,265.925,375.192,272L375.192,272z"/>
		
			<line fill="none" stroke="#F95959" stroke-width="5" stroke-linecap="round" stroke-linejoin="round" stroke-miterlimit="10" x1="167" y1="45.5" x2="329" y2="45.5"/>
		
			<line fill="none" stroke="#F95959" stroke-width="5" stroke-linecap="round" stroke-linejoin="round" stroke-miterlimit="10" x1="198.5" y1="47" x2="198.5" y2="99"/>
		
			<line fill="none" stroke="#F95959" stroke-width="5" stroke-linecap="round" stroke-linejoin="round" stroke-miterlimit="10" x1="299.5" y1="99" x2="299.5" y2="47"/>
		<path fill="none" stroke="#F95959" stroke-width="5" stroke-linecap="round" stroke-linejoin="round" stroke-miterlimit="10" d="
			M137.5,260v-99.131c0-33.197,28.32-60.369,61.517-60.369h100.609c33.197,0,59.874,27.172,59.874,60.369V260"/>
		<path fill="none" stroke="#F95959" stroke-width="5" stroke-linecap="round" stroke-linejoin="round" stroke-miterlimit="10" d="
			M137.5,283v99.392c0,33.197,28.32,60.108,61.517,60.108h100.609c33.197,0,59.874-26.911,59.874-60.108V283"/>
	</g>
	<path fill="none" stroke="#F95959" stroke-width="5" stroke-linecap="round" stroke-linejoin="round" stroke-miterlimit="10" d="
		M242.5,99v-8.152c0-3.831,2.947-7.348,6.778-7.348h0.26c3.831,0,5.962,3.517,5.962,7.348V99"/>
	
		<line fill="none" stroke="#F95959" stroke-width="5" stroke-linecap="round" stroke-linejoin="round" stroke-miterlimit="10" x1="311.5" y1="152" x2="311.5" y2="245"/>
	
		<line fill="none" stroke="#F95959" stroke-width="5" stroke-linecap="round" stroke-linejoin="round" stroke-miterlimit="10" x1="311.5" y1="308" x2="311.5" y2="330"/>
	
		<line fill="none" stroke="#F95959" stroke-width="5" stroke-linecap="round" stroke-linejoin="round" stroke-miterlimit="10" x1="311.5" y1="348" x2="311.5" y2="363"/>
	
		<line fill="none" stroke="#F95959" stroke-width="5" stroke-linecap="round" stroke-linejoin="round" stroke-miterlimit="10" x1="177" y1="454.5" x2="321" y2="454.5"/>
	<path fill="none" stroke="#F95959" stroke-width="5" stroke-linecap="round" stroke-linejoin="round" stroke-miterlimit="10" d="
		M251.454,214.92c5.397,0,9.772-4.375,9.772-9.772c0-9.146-9.772-22.925-9.772-22.925s-9.772,13.78-9.772,22.925
		C241.682,210.545,246.057,214.92,251.454,214.92z"/>
	<g>
		<g>
			
				<line fill="none" stroke="#F95959" stroke-width="5" stroke-linecap="round" stroke-linejoin="round" x1="362.132" y1="207.292" x2="367.352" y2="210.249"/>
			
				<line fill="none" stroke="#F95959" stroke-width="5" stroke-linecap="round" stroke-linejoin="round" stroke-dasharray="4.9515,16.5051,16.5051,9.9031" x1="375.968" y1="215.131" x2="413.306" y2="236.284"/>
			<path fill="none" stroke="#F95959" stroke-width="5" stroke-linecap="round" stroke-linejoin="round" d="M417.614,238.724
				l5.22,2.958l0.014-0.024c1.81,0.806,3.711,1.444,5.683,1.896"/>
			
				<path fill="none" stroke="#F95959" stroke-width="5" stroke-linecap="round" stroke-linejoin="round" stroke-dasharray="3.9149,13.0497,13.0497,7.8298" d="
				M436.306,244.332c11.948-0.289,22.233-7.285,27.234-17.367"/>
			
				<path fill="none" stroke="#F95959" stroke-width="5" stroke-linecap="round" stroke-linejoin="round" stroke-dasharray="7.8298,7.8298,3.9149,13.0497,13.0497,7.8298" d="
				M465.055,223.358c1.116-3.213,1.723-6.664,1.723-10.257c0-13.846-9.007-25.587-21.481-29.686"/>
			<path fill="none" stroke="#F95959" stroke-width="5" stroke-linecap="round" stroke-linejoin="round" d="M441.507,182.431
				c-1.932-0.374-3.928-0.57-5.97-0.57"/>
		</g>
	</g>
	<g>
		<g>
			<path fill="none" stroke="#F95959" stroke-width="5" stroke-linecap="round" stroke-linejoin="round" d="M65.647,107.784
				c-2.042,0-4.037-0.196-5.97-0.57"/>
			
				<path fill="none" stroke="#F95959" stroke-width="5" stroke-linecap="round" stroke-linejoin="round" stroke-dasharray="3.9149,13.0497,13.0497,7.8298" d="
				M52.256,104.777C42.071,99.938,34.92,89.75,34.433,77.844"/>
			
				<path fill="none" stroke="#F95959" stroke-width="5" stroke-linecap="round" stroke-linejoin="round" stroke-dasharray="7.8298,7.8298,3.9149,13.0497,13.0497,7.8298" d="
				M34.514,73.931C35.841,57.9,49.273,45.304,65.647,45.304c1.06,0,2.108,0.053,3.141,0.156"/>
			<path fill="none" stroke="#F95959" stroke-width="5" stroke-linecap="round" stroke-linejoin="round" d="M72.652,46.092
				c1.972,0.452,3.873,1.09,5.683,1.896l0.014-0.024l5.222,2.955"/>
			
				<line fill="none" stroke="#F95959" stroke-width="5" stroke-linecap="round" stroke-linejoin="round" stroke-dasharray="3.996,13.3199,13.3199,7.9919" x1="90.526" y1="54.855" x2="120.666" y2="71.912"/>
			
				<line fill="none" stroke="#F95959" stroke-width="5" stroke-linecap="round" stroke-linejoin="round" stroke-dasharray="7.9919,7.9919,3.996,13.3199,13.3199,7.9919" x1="124.144" y1="73.88" x2="168.194" y2="98.81"/>
			
				<line fill="none" stroke="#F95959" stroke-width="5" stroke-linecap="round" stroke-linejoin="round" x1="171.672" y1="100.778" x2="176.893" y2="103.733"/>
		</g>
	</g>
	<g>
		<g>
			
				<line fill="none" stroke="#F95959" stroke-width="5" stroke-linecap="round" stroke-linejoin="round" x1="362.132" y1="307.853" x2="367.352" y2="310.81"/>
			
				<line fill="none" stroke="#F95959" stroke-width="5" stroke-linecap="round" stroke-linejoin="round" stroke-dasharray="4.9515,16.5051,16.5051,9.9031" x1="375.968" y1="315.692" x2="413.306" y2="336.844"/>
			<path fill="none" stroke="#F95959" stroke-width="5" stroke-linecap="round" stroke-linejoin="round" d="M417.614,339.285
				l5.22,2.958l0.014-0.025c1.81,0.806,3.711,1.444,5.683,1.896"/>
			
				<path fill="none" stroke="#F95959" stroke-width="5" stroke-linecap="round" stroke-linejoin="round" stroke-dasharray="3.9149,13.0497,13.0497,7.8298" d="
				M436.306,344.893c11.948-0.289,22.233-7.285,27.234-17.367"/>
			
				<path fill="none" stroke="#F95959" stroke-width="5" stroke-linecap="round" stroke-linejoin="round" stroke-dasharray="7.8298,7.8298,3.9149,13.0497,13.0497,7.8298" d="
				M465.055,323.919c1.116-3.213,1.723-6.664,1.723-10.257c0-13.846-9.007-25.587-21.481-29.686"/>
			<path fill="none" stroke="#F95959" stroke-width="5" stroke-linecap="round" stroke-linejoin="round" d="M441.507,282.992
				c-1.932-0.374-3.928-0.57-5.97-0.57"/>
		</g>
	</g>
	<g>
		<g>
			
				<line fill="none" stroke="#F95959" stroke-width="5" stroke-linecap="round" stroke-linejoin="round" x1="302.333" y1="74.126" x2="307.526" y2="77.13"/>
			
				<line fill="none" stroke="#F95959" stroke-width="5" stroke-linecap="round" stroke-linejoin="round" stroke-dasharray="5.0214,16.7381,16.7381,10.0429" x1="316.22" y1="82.159" x2="353.89" y2="103.949"/>
			
				<line fill="none" stroke="#F95959" stroke-width="5" stroke-linecap="round" stroke-linejoin="round" stroke-dasharray="10.0429,10.0429,5.0214,16.7381,16.7381,10.0429" x1="358.237" y1="106.464" x2="413.294" y2="138.311"/>
			<path fill="none" stroke="#F95959" stroke-width="5" stroke-linecap="round" stroke-linejoin="round" d="M417.641,140.826
				l5.194,3.004l0.014-0.024c1.81,0.806,3.711,1.444,5.683,1.896"/>
			
				<path fill="none" stroke="#F95959" stroke-width="5" stroke-linecap="round" stroke-linejoin="round" stroke-dasharray="3.9149,13.0497,13.0497,7.8298" d="
				M436.306,146.48c11.948-0.289,22.233-7.285,27.234-17.367"/>
			
				<path fill="none" stroke="#F95959" stroke-width="5" stroke-linecap="round" stroke-linejoin="round" stroke-dasharray="7.8298,7.8298,3.9149,13.0497,13.0497,7.8298" d="
				M465.055,125.506c1.116-3.213,1.723-6.664,1.723-10.257c0-13.846-9.007-25.587-21.481-29.686"/>
			<path fill="none" stroke="#F95959" stroke-width="5" stroke-linecap="round" stroke-linejoin="round" d="M441.507,84.579
				c-1.932-0.374-3.928-0.57-5.97-0.57"/>
		</g>
	</g>
	<g>
		<g>
			<path fill="none" stroke="#F95959" stroke-width="5" stroke-linecap="round" stroke-linejoin="round" d="M64.463,208.345
				c-2.042,0-4.037-0.196-5.97-0.57"/>
			
				<path fill="none" stroke="#F95959" stroke-width="5" stroke-linecap="round" stroke-linejoin="round" stroke-dasharray="3.9149,13.0497,13.0497,7.8298" d="
				M51.072,205.338c-10.185-4.839-17.336-15.027-17.823-26.933"/>
			
				<path fill="none" stroke="#F95959" stroke-width="5" stroke-linecap="round" stroke-linejoin="round" stroke-dasharray="7.8298,7.8298,3.9149,13.0497,13.0497,7.8298" d="
				M33.33,174.492c1.327-16.031,14.759-28.627,31.133-28.627c1.06,0,2.108,0.053,3.141,0.156"/>
			<path fill="none" stroke="#F95959" stroke-width="5" stroke-linecap="round" stroke-linejoin="round" d="M71.468,146.653
				c1.972,0.452,3.873,1.09,5.683,1.896l0.014-0.024l5.222,2.955"/>
			
				<line fill="none" stroke="#F95959" stroke-width="5" stroke-linecap="round" stroke-linejoin="round" stroke-dasharray="4.8435,16.1451,16.1451,9.687" x1="90.818" y1="156.251" x2="127.35" y2="176.926"/>
			
				<line fill="none" stroke="#F95959" stroke-width="5" stroke-linecap="round" stroke-linejoin="round" x1="131.565" y1="179.311" x2="136.787" y2="182.267"/>
		</g>
	</g>
	<g>
		<g>
			
				<line fill="none" stroke="#F95959" stroke-width="5" stroke-linecap="round" stroke-linejoin="round" x1="354.615" y1="411.565" x2="359.835" y2="414.522"/>
			
				<line fill="none" stroke="#F95959" stroke-width="5" stroke-linecap="round" stroke-linejoin="round" stroke-dasharray="5.6921,18.9735,18.9735,11.3841" x1="369.74" y1="420.134" x2="412.662" y2="444.45"/>
			<path fill="none" stroke="#F95959" stroke-width="5" stroke-linecap="round" stroke-linejoin="round" d="M417.614,447.256
				l5.22,2.958l0.014-0.024c1.81,0.806,3.711,1.444,5.683,1.896"/>
			
				<path fill="none" stroke="#F95959" stroke-width="5" stroke-linecap="round" stroke-linejoin="round" stroke-dasharray="3.9149,13.0497,13.0497,7.8298" d="
				M436.306,452.864c11.948-0.289,22.233-7.285,27.234-17.367"/>
			
				<path fill="none" stroke="#F95959" stroke-width="5" stroke-linecap="round" stroke-linejoin="round" stroke-dasharray="7.8298,7.8298,3.9149,13.0497,13.0497,7.8298" d="
				M465.055,431.89c1.116-3.213,1.723-6.664,1.723-10.257c0-13.846-9.007-25.587-21.481-29.686"/>
			<path fill="none" stroke="#F95959" stroke-width="5" stroke-linecap="round" stroke-linejoin="round" d="M441.507,390.962
				c-1.932-0.374-3.928-0.57-5.97-0.57"/>
		</g>
	</g>
	<g>
		<g>
			<path fill="none" stroke="#F95959" stroke-width="5" stroke-linecap="round" stroke-linejoin="round" d="M64.463,316.316
				c-2.042,0-4.037-0.196-5.97-0.57"/>
			
				<path fill="none" stroke="#F95959" stroke-width="5" stroke-linecap="round" stroke-linejoin="round" stroke-dasharray="3.9149,13.0497,13.0497,7.8298" d="
				M51.072,313.309c-10.185-4.839-17.336-15.027-17.823-26.933"/>
			
				<path fill="none" stroke="#F95959" stroke-width="5" stroke-linecap="round" stroke-linejoin="round" stroke-dasharray="7.8298,7.8298,3.9149,13.0497,13.0497,7.8298" d="
				M33.33,282.463c1.327-16.031,14.759-28.627,31.133-28.627c1.06,0,2.108,0.053,3.141,0.156"/>
			<path fill="none" stroke="#F95959" stroke-width="5" stroke-linecap="round" stroke-linejoin="round" d="M71.468,254.624
				c1.972,0.452,3.873,1.09,5.683,1.896l0.014-0.024l5.222,2.955"/>
			
				<line fill="none" stroke="#F95959" stroke-width="5" stroke-linecap="round" stroke-linejoin="round" stroke-dasharray="4.8428,16.1426,16.1426,9.6856" x1="90.816" y1="264.221" x2="127.343" y2="284.893"/>
			
				<line fill="none" stroke="#F95959" stroke-width="5" stroke-linecap="round" stroke-linejoin="round" x1="131.558" y1="287.278" x2="136.78" y2="290.233"/>
		</g>
	</g>
	<g>
		<g>
			<path fill="none" stroke="#F95959" stroke-width="5" stroke-linecap="round" stroke-linejoin="round" d="M64.463,423.953
				c-2.042,0-4.037-0.196-5.97-0.57"/>
			
				<path fill="none" stroke="#F95959" stroke-width="5" stroke-linecap="round" stroke-linejoin="round" stroke-dasharray="3.9149,13.0497,13.0497,7.8298" d="
				M51.072,420.946c-10.185-4.839-17.336-15.027-17.823-26.933"/>
			
				<path fill="none" stroke="#F95959" stroke-width="5" stroke-linecap="round" stroke-linejoin="round" stroke-dasharray="7.8298,7.8298,3.9149,13.0497,13.0497,7.8298" d="
				M33.33,390.1c1.327-16.031,14.759-28.627,31.133-28.627c1.06,0,2.108,0.053,3.141,0.156"/>
			<path fill="none" stroke="#F95959" stroke-width="5" stroke-linecap="round" stroke-linejoin="round" d="M71.468,362.261
				c1.972,0.452,3.873,1.09,5.683,1.896l0.014-0.024l5.222,2.955"/>
			
				<line fill="none" stroke="#F95959" stroke-width="5" stroke-linecap="round" stroke-linejoin="round" stroke-dasharray="4.8428,16.1426,16.1426,9.6856" x1="90.816" y1="371.858" x2="127.343" y2="392.53"/>
			
				<line fill="none" stroke="#F95959" stroke-width="5" stroke-linecap="round" stroke-linejoin="round" x1="131.558" y1="394.915" x2="136.78" y2="397.87"/>
		</g>
	</g>
</g>
</svg>
