<?xml version="1.0" encoding="utf-8"?>
<!-- Generator: Adobe Illustrator 17.0.1, SVG Export Plug-In . SVG Version: 6.00 Build 0)  -->
<!DOCTYPE svg PUBLIC "-//W3C//DTD SVG 1.1//EN" "http://www.w3.org/Graphics/SVG/1.1/DTD/svg11.dtd">
<svg version="1.1" xmlns="http://www.w3.org/2000/svg" xmlns:xlink="http://www.w3.org/1999/xlink" x="0px" y="0px" width="1920px"
	 height="1080px" viewBox="0 0 1920 1080" enable-background="new 0 0 1920 1080" xml:space="preserve">
<g id="Layer_3" display="none">
	<rect x="1.204" display="inline" fill="#F9F7F7" width="1918.796" height="1080"/>
	<rect x="1.204" y="2163.138" display="inline" fill="#F9F7F7" width="1918.796" height="211.048"/>
</g>
<g id="Layer_1">
	<g>
		
			<rect x="1166.524" y="-1.413" fill="none" stroke="#F4ADB0" stroke-width="5" stroke-miterlimit="10" width="668.364" height="668.364"/>
		
			<rect x="1421.839" y="666.951" fill="none" stroke="#F4ADB0" stroke-width="5" stroke-miterlimit="10" width="413.049" height="413.049"/>
		
			<rect x="1166.525" y="824.685" fill="none" stroke="#F4ADB0" stroke-width="5" stroke-miterlimit="10" width="255.315" height="255.315"/>
		
			<rect x="1166.525" y="666.951" fill="none" stroke="#F4ADB0" stroke-width="5" stroke-miterlimit="10" width="157.734" height="157.734"/>
		
			<rect x="1324.258" y="666.262" fill="none" stroke="#F4ADB0" stroke-width="5" stroke-miterlimit="10" width="97.581" height="97.581"/>
		
			<rect x="1360.998" y="763.843" fill="none" stroke="#F4ADB0" stroke-width="5" stroke-miterlimit="10" width="60.842" height="60.842"/>
		
			<rect x="1324.258" y="787.946" fill="none" stroke="#F4ADB0" stroke-width="5" stroke-miterlimit="10" width="36.739" height="36.739"/>
		
			<rect x="85.112" y="-1.413" fill="none" stroke="#F4ADB0" stroke-width="5" stroke-miterlimit="10" width="1081.413" height="1081.413"/>
	</g>
	<line fill="none" stroke="#F4ADB0" stroke-width="2" stroke-miterlimit="10" x1="1836" y1="332" x2="86" y2="332"/>
	<line fill="none" stroke="#F4ADB0" stroke-width="2" stroke-miterlimit="10" x1="1836" y1="746" x2="86" y2="746"/>
	<line fill="none" stroke="#F4ADB0" stroke-width="2" stroke-miterlimit="10" x1="1836" y1="874" x2="86" y2="874"/>
	<line fill="none" stroke="#F4ADB0" stroke-width="2" stroke-miterlimit="10" x1="1836" y1="953" x2="86" y2="953"/>
</g>
<g id="Layer_2" display="none">
	<rect x="171.595" y="677.951" display="inline" fill="none" width="1576.809" height="60.178"/>
	
		<text transform="matrix(1 0 0 1 606.6174 737.3739)" display="inline" fill="#484747" font-family="'BebasNeueBold'" font-size="84.8888">OFFICINA VIP SERVICE s.a.s.</text>
	<rect x="171.595" y="789.789" display="inline" fill="none" width="1576.809" height="36.153"/>
	
		<text transform="matrix(1 0 0 1 700.7981 820.4765)" display="inline" fill="#484747" font-family="'Lato-ThinItalic'" font-size="42.4444">ripariamo la tua auto dal 19xx</text>
	<g display="inline">
		<g>
			<g>
				<path fill="#484747" d="M1031.595,516.064l1.771,19.79l42.532-6.5l1.183-20.184L1031.595,516.064z M1072.156,526.206
					l-34.948,6.004l-0.69-13.784l37.409-6.203L1072.156,526.206z"/>
				<path fill="#484747" d="M1126.995,486.726c0,0,5.81,2.362,2.758,8.171c-3.052,5.806-2.853,6.596-8.861,8.27
					c-6.009,1.674-38.557,10.873-38.557,10.873s-4.465,3.008,0.751,2.811c5.219-0.197,37.313-10.338,37.313-10.338
					s9.945-2.658,11.718-10.438c1.771-7.772-1.97-10.333-1.97-10.333s-2.165-2.267-3.445-0.889
					C1125.42,486.232,1126.995,486.726,1126.995,486.726z"/>
				<path fill="#484747" d="M1118.923,488.99c0,0,0.023-0.069,0.059-0.181C1118.2,488.947,1118.923,488.99,1118.923,488.99z"/>
				<path fill="#484747" d="M1121.876,488.499c-1.649,0.136-2.474,0.235-2.894,0.309c-0.036,0.113-0.059,0.181-0.059,0.181
					s-0.723-0.043,0.059-0.181c0.517-1.595,4.406-13.733,4.961-18.328c0.59-4.922,3.558-47.161,1.337-60.354
					c-2.221-13.191-4.782-17.426-6.456-19.491c-1.675-2.07-0.297-28.063-17.035-57.793c0,0-1.278-5.906-14.172-1.38
					c0,0-76.699,24.37-125.579,15.803c0,0-5.354-1.516-4.909,4.209c0.442,5.723,2.006,56.487,2.594,59.736
					c0.593,3.251,5.809,3.348,7.386,3.644c1.572,0.297,104.212,5.521,146.496-23.728c0,0,5.712,6.893,6.106,19.103
					c0.394,12.207,1.968,70.49-5.316,79.154c0,0-12.605,4.527-31.113,8.071c-18.507,3.545-105.344,17.135-117.551,13.193
					c0,0-16.15-8.955-25.402-7.974l-9.748-7.777c0,0-14.323-57.545-24.661-71.277c-10.338-13.738-15.213-15.215-15.213-15.215
					s-5.536-3.726-4.355,10.525c0,0,1.883,4.355,5.354-4.322c0,0,3.949-2.436,4.649,5.906l-12.807,3.106
					c0,0-9.824,1.991-10.116,13.952c-0.299,11.964-0.741,22.151-0.741,22.151s2.587,3.77,1.848,5.835
					c-0.739,2.068-2.832,7.925-0.271,16.884c2.559,8.958,9.893,13.538,11.616,14.767c0,0,0.762,7.632,4.307,13.539
					c3.545,5.906,15.506,18.238,15.506,18.238l22.374-1.551c0,0,8.932-2.339,11.299-13.587c0,0,6.349,11.739,20.155,15.138
					c13.811,3.394,35.355,2.929,48.839,1.452c13.49-1.475,23.23-3.152,23.23-3.152s0.775-1.032-0.442-1.7
					c0,0-22.522,1.48-36.702,2.367c-14.177,0.884-12.58,0.713-12.58,0.713s-22.642,0.095-35.046-10.929c0,0-2.661-1.773-4.531-6.793
					c-1.871-5.022-0.675-7.287,6.267-3.813c6.942,3.468,13.106,6.568,13.106,6.568s8.123,2.436,20.457,1.258
					c12.326-1.183,59.513-6.377,59.513-6.377l55.135-9.945l28.255-9.155C1125.027,489.481,1126.599,488.103,1121.876,488.499z
					 M892.333,499.525c2.116-7.823-2.063-14.574-2.063-14.574c-8.861,2.065-13.443-6.103-13.443-6.103
					c-3.632-13.942,7.68-20.973,7.68-20.973c11.313,11.833,11.075,44.748,11.075,44.748L892.333,499.525z M924.084,523.594
					c-9.894,1.48-14.474,1.773-14.474,1.773s-0.442-31.805-4.871-45.289c-4.432-13.49-20.529-47.6-23.925-51.735
					c0,0,7.384-3.1,11.225-1.919c3.839,1.181,28.058,70.444,27.171,78.712c-0.887,8.271,13.738,8.713,13.738,8.713
					S933.98,522.119,924.084,523.594z"/>
				<path fill="#484747" d="M1107.895,401.465c-3.593,1.871-9.107,7.236-9.107,7.236s-16.983,19.641-23.187,32.638
					c-6.2,12.994-12.183,35.815-14.474,47.774c-2.287,11.961,0,10.338,0,10.338s1.513-1.738,1.48-3.358
					c-0.036-1.626,1.033-9.27,1.033-9.27c1.181-9.304,9.452-31.159,12.7-40.467c3.251-9.303,18.016-29.435,18.016-29.435
					s7.925-7.926,12.651-11.223C1111.737,402.398,1111.489,399.594,1107.895,401.465z"/>
				<path fill="#484747" d="M1038.289,486.526c-6.106-13.29-17.18-32.49-27.074-40.761c-9.897-8.268-15.21-12.994-22.003-17.129
					c-6.794-4.136-14.032-6.643-17.135-7.087c0,0,16.838,8.419,24.81,14.916c0,0,7.634,4.381,20.137,20.528
					c12.503,16.143,11.813,16.342,14.571,22.74c2.753,6.4,5.02,12.112,5.413,14.474c0.394,2.364,0.69,9.748,3.593,8.271
					C1040.602,502.477,1044.395,499.822,1038.289,486.526z"/>
				<path fill="#484747" d="M956.081,418.694c0,0-8.271,31.703-1.771,80.831c0,0,3.297,9.158,3.445-0.812
					C957.755,498.713,951.306,448.623,956.081,418.694z"/>
				<path fill="#484747" d="M1110.576,396.249c-7.603,3.345-27.885,13.484-62.245,18.014c-34.361,4.529-35.421,6.793-86.232,2.267
					c0,0,32.132,9.449,86.773,0c54.642-9.454,64.732-18.609,64.732-18.609S1118.18,392.898,1110.576,396.249z"/>
				<polygon fill="#484747" points="1022.389,430.377 1028.298,429.59 1035.542,442.144 1040.556,426.934 1045.428,426.218 
					1036.175,452.774 				"/>
				<path fill="#484747" d="M1069.851,428.516c-0.442-4.429-3.987-5.017-9.306-5.017c-5.314,0-8.343,1.459-8.343,1.459l4.192,24.089
					l3.589-0.445l-1.429-10.484C1066.649,435.974,1070.294,432.951,1069.851,428.516z M1057.501,434.277l-1.107-6.126
					c1.107-0.151,7.087-2.73,7.974,1.107C1065.256,433.096,1057.501,434.277,1057.501,434.277z"/>
				<polygon fill="#484747" points="1024.459,423.911 1024.459,428.442 1064.773,422.339 1064.773,418.891 				"/>
				<path fill="#484747" d="M988.079,497.309c-7.187-4.186-9.303-18.116-9.303-18.116c2.904,11.915,15.604,19.245,15.604,19.245
					s5.119,1.873,12.158-3.146c7.039-5.024,1.526-27.47,1.526-27.47c-1.577-4.529-8.861-12.8-13.293-15.654
					c-4.432-2.853-9.053-2.758-10.436-1.973c-1.375,0.782-7.087,4.138-8.958,9.334c-1.871,5.194-2.658,16.268,0,27.391
					c2.658,11.126,8.171,12.605,16.935,17.035c8.764,4.429,15.752-5.807,15.752-5.807s-5.707,2.804-8.672,3.246
					C996.43,501.836,995.267,501.493,988.079,497.309z M982.37,455.417c5.217-3.839,8.074-2.068,11.519,0.493
					c3.443,2.559,12.994,11.018,14.078,24.168l-1.552,0.209c0,0,0.146-3.949-1.956-4.948c-2.103-0.994-1.022,8.531-8.455,8.138
					c-7.435-0.394-13.145-5.513-14.325-8.171C981.68,475.306,977.151,459.258,982.37,455.417z"/>
				<path fill="#484747" d="M1098.05,483.38c-0.232,0.03-0.414,0.01-0.639,0.036C1097.81,483.413,1098.05,483.38,1098.05,483.38z"/>
				<path fill="#484747" d="M1083.576,460.242c0,0-5.725,25.262,13.835,23.174C1094.789,483.434,1084.813,482.064,1083.576,460.242z
					"/>
				<path fill="#484747" d="M1082.986,327.182c0,0-26.284,10.244-55.971,14.057c-29.684,3.813-58.036,3.813-69.261,1.449
					c0,0,30.808,14.895,127.59-12.933C1085.345,329.756,1100.044,323.192,1082.986,327.182z"/>
				<path fill="#484747" d="M1087.563,297.647c0,0-2.313-17.083-8.807-29.487c0,0-4.922-1.774-30.129,11.322
					c-25.206,13.094-87.233,34.065-89.204,33.965l0.491-4.036c0,0,64.19-20.283,77.682-30.718l-82.505,4.628v-0.294
					c0,0-2.364,29.732-1.083,34.555c0,0,25.898,4.429,59.178-1.081c33.277-5.513,71.87-16.935,71.87-16.935
					s9.745,19.59,9.007,28.206c0,0,4.874,1.626,6.351,0C1101.889,326.15,1089.928,299.566,1087.563,297.647z"/>
				<path fill="#484747" d="M872.691,243.154c-17.426-20.086-41.351-51.393-45.78-46.964c0,0-0.887,0.1,2.116,3.054
					c3.003,2.952,4.437,1.871,13.27,12.307c8.833,10.433,30.688,41.515,42.8,55.459c12.11,13.947,60.548,67.999,63.796,71.247
					C948.893,338.257,890.117,263.237,872.691,243.154z"/>
				<polygon fill="#484747" points="1052.814,449.477 1048.346,450.415 1045.428,426.218 1049.86,425.6 				"/>
				<path fill="#484747" d="M903.259,388.32c-2.801-0.59-5.314-7.974-10.188-11.222c-4.874-3.248-9.304,3.69-9.304,3.69
					c-2.441,2.745,12.7,12.555,15.062,14.308c2.364,1.751,5.909,1.938,8.861,0C910.645,393.156,906.065,388.911,903.259,388.32z
					 M894.4,386.171c-3.348-5.625-3.987-3.415-4.874-3.019c0,0-2.413,0.787-1.993-1.403c0,0,1.993-3.322,4.429-1.107
					c2.438,2.214,8.935,11.594,10.635,11.813C902.597,392.456,897.748,391.791,894.4,386.171z"/>
				<path fill="#484747" d="M817.656,339.54c0-0.825-0.041-0.593-0.043,0.33C817.638,339.854,817.656,339.77,817.656,339.54z"/>
				<path fill="#484747" d="M857.701,417.117c2.587,3.177,13.122,14.571,13.122,14.571l-14.574-22.642
					c0,0-5.119-50.156-23.432-67.807c-16.971-16.36-15.509-1.176-15.204-1.37c0.002-0.923,0.043-1.155,0.043-0.33
					c0,0.23-0.018,0.314-0.043,0.33c-0.008,2.599,0.279,10.799,2.602,17.193c0,0-10.213,16.638,0.274,30.302
					c0,0-5.761,10.116-4.284,16.094c1.477,5.981,5.761,14.1,15.286,18.091c0,0,1.549,13.438,4.945,18.016
					c3.397,4.58,5.981,5.242,8.048,5.538c2.068,0.296,23.849-4.726,25.477-5.613c0,0-14.622-18.239-14.696-23.923
					C855.265,415.569,855.12,413.943,857.701,417.117z M823.956,383.842l-0.688-8.564
					C823.269,375.278,830.553,381.675,823.956,383.842z M822.775,404.803l-2.758,0.601c-5.004-12.26,8.567-20.777,8.567-20.777
					c5.063,6.191,6.893,23.731,6.893,23.731C828.191,410.324,822.775,404.803,822.775,404.803z M827.798,415.569
					c1.697,2.732,9.377,2.732,9.377,2.732l0.59,2.806C828.758,419.998,827.798,415.569,827.798,415.569z M836.262,423.568
					c2.119-3.003,2.265,4.036,2.265,4.036C835.575,425.436,836.262,423.568,836.262,423.568z M862.649,438.533
					c0,0-11.887,3.693-16.465,2.29c0,0,12.243-24.741-19.465-81.299c0,0-1.973-5.806,4.082-1.229
					c6.055,4.58,16.49,32.981,18.41,48.781c1.919,15.803,0.442,19.052,4.651,22.964
					C858.071,433.955,862.649,438.533,862.649,438.533z"/>
				<path fill="#484747" d="M798.753,350.369c0,0-11.614,10.438,5.909,24.023l7.085-0.787
					C811.747,373.604,794.424,363.953,798.753,350.369z"/>
				<path fill="#484747" d="M954.787,411.998v-63.009c0,0-4.023-5.513-5.894-5.513c-1.871,0-12.309,43.383-12.11,55.362
					C936.98,410.82,952.114,410.82,954.787,411.998z"/>
				<path fill="#484747" d="M932.976,401.762c-0.066-12.8,12.81-57.103,12.81-57.103c1.007-3.547-4.866-9.651-4.866-9.651
					s-20.084-21.07-27.368-28.549c-7.289-7.486-12.409,0-12.409,0c-10.239,31.503-8.071,53.951-8.071,53.951
					c43.122,56.707,53.854,53.558,53.854,53.558L932.976,401.762z"/>
				<polygon fill="#484747" points="1034.89,269.686 996.887,276.035 995.267,270.425 1032.725,264.403 				"/>
				<polygon fill="#484747" points="1017.319,233.695 978.086,239.903 976.461,234.292 1015.079,228.675 				"/>
				<polygon fill="#484747" points="977.447,241.773 982.661,240.938 997.725,256.838 994.973,238.377 999.898,237.759 
					1004.644,268.37 1001.518,268.996 				"/>
				<polygon fill="#484747" points="1000.938,237.354 1012.174,266.966 1015.918,266.43 1004.741,236.802 				"/>
				<path fill="#484747" d="M1023.636,241.293c-3-9.05-16.904-4.955-16.904-4.955l11.913,29.658l4.005-0.948l-4.391-12.166
					C1022.51,251.764,1026.637,250.346,1023.636,241.293z M1013.135,240.442c4.726-0.598,5.099-0.375,6.975,3.451
					c1.873,3.824-3.714,4.803-3.714,4.803L1013.135,240.442z"/>
				<path fill="#484747" d="M884.801,359.427c0,0-10.929-0.493-9.449,59.464c0,0,1.623,4.136,1.846,0c0,0-1.794-52.964,10.29-55.526
					c0,0,3.22-40.763,12.672-65.079C900.159,298.286,892.282,303.898,884.801,359.427z"/>
				<path fill="#484747" d="M896.616,289.918c0,0-55.922-72.264-61.634-79.945c-5.71-7.68-9.252-3.348-9.252-3.348
					c-21.068,24.615-19.1,55.132-19.1,55.132c10.436,22.057,51.984,68.525,64.193,80.931c12.207,12.404,12.679,0,12.679,0
					c1.457-31.112,11.54-46.47,11.54-46.47c-15.951,8.271-41.548,12.603-41.548,12.603
					C885.787,297.008,896.616,289.918,896.616,289.918z M834.003,225.137l0.488,3.537l-7.701,3.553L834.003,225.137z
					 M821.201,268.947l32.684-10.729l0.593,1.281l-31.999,11.808L821.201,268.947z M826.123,276.231l32.094-10.433l0.493,2.28
					l-31.406,11.01L826.123,276.231z M830.75,284.696l42.826-13.39l1.083,2.07l-42.136,13.493L830.75,284.696z M834.492,294.744
					l35.05-10.633l0.491,3.642l-33.21,10.766L834.492,294.744z"/>
				<path fill="#484747" d="M987.732,165.622c-3.839-0.445-6.891-0.151-11.271-3.251c0,0,3.297-14.765-7.481-25.988l-0.444-2.07
					c0,0,7.877-0.442,7.925-2.362c0.049-1.922-2.904-8.123-14.716-8.123c-11.818,0-15.509,2.804-15.509,2.804
					s-4.575-0.59-10.042-2.804c0,0-3.397-9.893-16.39-4.726c-12.996,5.168-3.251,9.303,0.146,10.632c0,0,2.142,7.9-1.255,8.933
					c-3.397,1.035-5.094-0.074-5.094-0.074s-5.758-9.303-31.163-3.026l0.368,11.522c0,0-12.672-7.507-22.32,20.551
					c0,0-31.997,8.465-44.009,24.907c-12.013,16.444-12.404,13.391-21.955,46.177c-9.551,32.784-6.791,47.158-6.596,57.596
					c0.197,10.436,6.303,54.632,23.235,68.326l1.575-2.267c0,0-21.983-25.891-20.593-88.213c0,0,7.438-47.554,23.614-71.773
					c16.176-24.217,40.101-28.945,45.121-29.535c0,0,5.909,17.72,11.816,21.561l-4.332-0.394c0,0-15.409-14.671-16.761-15.849
					l11.939,17.59c0,0-14.625,7.609-11.939,18.443c0,0,1.991,5.906,8.984,1.378c0,0,3.939-2.068,4.826-2.068
					c0,0-1.181,5.316-8.468,7.384c0,0,7.778,18.216,19.987,18.803c0,0-2.855,8.674,2.165,9.46c5.022,0.782,7.484-4.141,6.4-10.047
					c0,0,4.182-2.464,3.742-29.786c0,0,2.952,2.218,5.313-5.462c0,0,5.17,7.657,17.873,1.539l8.276,5.968
					c1.95-0.335,4.253,2.206,5.631,4.059l2.058,1.48c3.22-1.037,4.404,0.429,4.779,1.899l0.373,0.266l-0.261,0.304
					c0.113,0.8,0.064,1.467,0.064,1.467c-0.087,1.058-0.593,1.807-1.265,2.387l8.698,7.657c0,0,1.947,0.741,4.516-2.213
					c0,0,3.164,3.248,7.742-5.909c0,0,2.216-6.058-2.216-10.931c0,0-1.329-1.326-1.919,0.593c0,0-6.351-6.52-11.667-7.026
					c0,0-1.477,1.119-0.736,3.333l-2.216,0.148l-8.615-6.694l-1.672-32.29l8.564-1.871l2.347,34.162l3.512-0.539l-2.07-35.002h7.532
					c0,0,1.183,11.961,0.59,19.493c-0.59,7.532-0.442,19.261-0.442,19.261l44.599-2.871c0,0,3.397,0.151,3.693-11.22
					c0.294-11.374-0.593-17.28,1.035-20.234C994.97,168.129,991.573,166.064,987.732,165.622z M970.158,127.568
					c0.601,0,2.461,1.319,2.461,2.512c0,1.193-0.713,1.812-1.313,1.812c-0.601,0-0.557-0.57-0.557-1.766
					C970.748,128.933,969.56,127.568,970.158,127.568z M920.206,127.3c0,0.542-1.26-0.467-2.177-0.467s-1.035-1.133-1.035-1.674
					c0-0.547,1.482-0.296,2.403-0.296C920.309,124.862,920.206,126.753,920.206,127.3z M855.894,215.167
					c-0.634,0-1.145-0.56-1.145-1.255c0-0.693,0.511-1.255,1.145-1.255c0.631,0,1.145,0.563,1.145,1.255
					C857.039,214.607,856.525,215.167,855.894,215.167z M867.526,232.227c-3.254-2.362,0-9.16,0-9.16l1.549,4.986
					c0,0,2.658-1.222,2.507,0.997C871.436,231.264,870.771,234.587,867.526,232.227z M963.562,126.093c1.142,0,2.07,0.33,2.07,0.739
					c0,0.406-0.928,0.736-2.07,0.736c-1.143,0-2.068-0.33-2.068-0.736C961.494,126.423,962.419,126.093,963.562,126.093z
					 M951.209,142.632c0,0,2.014-3.248,2.852-3.593c0.839-0.345,3.325-0.179,0.839,0.813c-2.49,0.989-2.658,3.026-2.658,3.026
					S950.719,144.358,951.209,142.632z M941.034,129.342c0,0-1.201,1.672-0.494,2.659c0.703,0.986,4.514,2.164,1.756,2.903
					c-2.758,0.739-3.514-2.903-3.514-2.903C937.829,126.978,941.034,129.342,941.034,129.342z M919.062,147.31
					c9.454-6.055,17.871-12.407,17.871-12.407s-4.281,8.923-17.871,15.093c0,0-7.235,3.662-12.846,10.458
					C906.216,160.454,909.61,153.364,919.062,147.31z M895.826,136.233c10.436-1.278,15.161,2.461,17.229,5.219
					c2.07,2.758,0.299,2.952-1.28,3.149c-1.574,0.199-2.538-2.081-2.538-2.081s0.08-2.448-2.578-3.926
					c-2.658-1.475-11.026-3.246-12.013,1.774c-0.984,5.022,15.161,4.036,15.161,4.036c0.69,3.645,4.309,2.661,4.309,2.661
					c-0.422,3.545-7.854,6.3-7.854,6.3l-19.974-14.77C886.288,138.594,885.394,137.516,895.826,136.233z M904.493,155.826
					c-1.968,8.861-5.419,7.318-5.419,7.318c0.496-7.057-5.61-12.833-9.745-14.405c-4.133-1.579-2.855-6.305-2.855-6.305
					L904.493,155.826z M882.733,240.191c-0.739,4.716-1.478,7.982-2.507,4.25c-1.035-3.732,3.762-34.811,3.762-34.811
					C885.539,212.583,883.474,235.473,882.733,240.191z M886.72,188.51c-0.736,1.477,0.442,3.397-10.336,2.364
					c-10.781-1.032-10.308-24.073-10.308-24.073c0.92-5.168,1.449-9.155,7.054-15.202c5.608-6.047,16.102,6.638,17.454,11.514
					c1.352,4.872,6.032,7.678,6.032,7.678s-5.022,9.304-5.022,5.906c0-3.397-3.248-9.155-7.041-4.429
					c-3.795,4.726-0.637,11.959,0,13.142C885.189,186.593,887.461,187.032,886.72,188.51z M887.162,194.27
					c5.909-12.554,13.886-24.957,13.886-24.957C899.272,177.923,887.162,194.27,887.162,194.27z M897.352,202.689
					c-4.431-4.989-1.96-13.587-1.96-13.587c-1.523,4.726,9.102,9.894,9.102,9.894C904.394,201.36,901.787,207.681,897.352,202.689z
					 M907.397,187.625c-0.299,0.442-0.299,5.022-2.904,1.035c-2.607-3.987-6.106-5.334-6.106-5.334s2.561-4.365,3.839-6.729
					c1.28-2.362,2.954-3.248,3.99-0.787C907.249,178.271,907.691,187.181,907.397,187.625z M919.948,197.521
					c-1.181-0.812-2.51-2.144-2.141-3.251c0.371-1.107,0.59-17.87-0.294-20.751c-0.887-2.878,0.665-4.872-5.983-3.839
					c-6.642,1.035-4.043-1.623-4.043-1.623l4.043-5.612c1.554-2.152,3.044,0,3.044,0l6.556,6.867c0,0,1.033,20.232,1.033,24.441
					C922.162,197.964,921.129,198.332,919.948,197.521z M922.162,166.752c0,0-4.724-3.742-6.791-5.809
					c-2.068-2.065,3.003-6.888,3.003-6.888s10.78,1.429,4.922,3.149c-5.856,1.723-0.642,4.286-0.642,4.286
					c6.224,5.234,16.345-1.432,16.345-1.432l1.97,3.19L922.162,166.752z M929.893,151.097c-0.986-3,0.688-4.007,0.688-4.007
					l11.08,12.843L929.893,151.097z M939.342,145.142l7.386-7.974c0,0,1.871-0.049-0.59,3.054
					C943.677,143.32,936.784,148.935,939.342,145.142z M945.287,159.933c0,0,2.031-10.704,2.816-11.688
					c0.79-0.984,0.79,0.493,0.79,0.493l-2.267,11.195C946.626,159.933,945.919,162.077,945.287,159.933z M983.548,196.829
					l-35.738,3.3v-1.674l35.738-3.248V196.829z M987.293,190.279l-2.168,0.892c0,0,1.273-14.714-0.593-16.831l-35.639,2.16v-4.649
					c0,0,17.229,9.769,25.402-5.099l7.578,3.829l-10.139,1.981l12.897-0.391C984.632,172.17,989.061,172.155,987.293,190.279z
					 M989.751,172.464l-3.839-3.839h3.839V172.464z"/>
				<path fill="#484747" d="M920.695,211.377l5.631,4.059C924.948,213.583,922.645,211.042,920.695,211.377z"/>
				<path fill="#484747" d="M933.275,219.384l-2.4,2.799l1.199,1.055c0.673-0.58,1.178-1.329,1.265-2.387
					C933.338,220.852,933.387,220.184,933.275,219.384z"/>
				<path fill="#484747" d="M931.468,217.603l1.694,1.211c-0.375-1.47-1.559-2.936-4.779-1.899l0.133,0.097L931.468,217.603z"/>
				<path fill="#484747" d="M1100.808,436.217c-7.484-0.394-13.245,9.258-13.245,9.258c-0.984,0.787-2.218,0.442-2.218,0.442
					s-7.083,11.223-7.187,20.672c-0.105,9.457,2.466,21.272,15.315,22.745c12.848,1.477,15.013-11.172,15.013-11.172
					c0.097,0.59,4.826-7.187,5.909-20.774C1115.473,443.8,1108.289,436.611,1100.808,436.217z M1110.576,466.841
					c0,0-4.273,14.192-12.526,13.584c-8.252-0.608-8.468-5.605-9.451-8.514c0,0,2.313,7.481,9.894,6.891
					c7.583-0.593,13.487-11.816,10.044-21.612l-6.497,8.565c0,0-3.99,6.648-10.142-1.574c0,0-1.822-3.497-5.071-3.939
					c0,0,1.081-20.577,13.88-22.051C1113.507,436.713,1110.576,466.841,1110.576,466.841z"/>
				<polygon fill="#484747" points="1066.334,447.864 1027.836,455.365 1028.158,459.529 1065.974,451.677 				"/>
				<path fill="#484747" d="M1073.24,249.165c-42.236-60.742-80.634-69.22-80.634-69.22c69.706,37.806,81.815,82.996,81.815,82.996
					s-12.8,6.893-47.34,12.012c-34.537,5.122-66.276,4.135-73.455,3.739c-7.177-0.394-8.339,2.954-8.339,2.954
					s-14.017,25.007-9.487,30.719c4.531,5.707,15.951,6.014,15.951,6.014v-36.733c2.264-0.097,60.055-2.658,75.906-3.742
					c15.851-1.084,49.425-12.01,49.425-12.01C1077.521,255.851,1073.24,249.165,1073.24,249.165z"/>
				<path fill="#484747" d="M869.591,388.466c0.885-10.926-7.68-4.624-7.68-4.624c-9.158-5.661-5.758,4.624-5.758,4.624
					c-7.532,3.103,1.327,8.24,1.327,8.24c-4.872,6.758,5.17,7.268,5.17,7.268c4.431,11.519,8.174,0.828,8.174,0.828
					c10.535,2.16,2.901-6.883,2.901-6.883C883.62,390.388,869.591,388.466,869.591,388.466z M856.298,392.755
					c0-0.575,0.961-1.035,2.142-1.035c1.183,0,2.141,0.46,2.141,1.035c0,0.567-0.958,1.03-2.141,1.03
					C857.259,393.785,856.298,393.322,856.298,392.755z M860.581,400.801c-3.248-1.7,1.035-3.545,1.035-3.545
					C862.133,398.071,863.832,402.498,860.581,400.801z M861.617,390.685c-0.573,0-1.035-0.43-1.035-0.961
					c0-0.529,0.463-0.961,1.035-0.961c0.57,0,1.033,0.432,1.033,0.961C862.649,390.255,862.187,390.685,861.617,390.685z
					 M865.836,391.72c-0.355,0-0.649-1.423-0.649-3.177c0-1.751,0.294-3.175,0.649-3.175c0.361,0,0.652,1.424,0.652,3.175
					C866.488,390.296,866.197,391.72,865.836,391.72z M871.436,401.243c-1.403,0.294-3.545-2.405-3.545-2.405
					C870.181,398.056,872.842,400.952,871.436,401.243z M867.081,396.481v-3.726C880.065,390.953,867.081,396.481,867.081,396.481z"
					/>
				<path fill="#484747" d="M884.581,354.282l-4.652-0.442c3.338,6.162,0.588,7.678,0.588,7.678
					c-2.448,1.091-7.161-4.429-7.161-4.429c-0.619,9.574-3.392,7.975-3.392,7.975c-1.766-0.368-0.521-6.497-0.521-6.497
					c0.22-5.094-1.771-3.987-1.771-3.987c-4.874,4.207-6.425,2.582-6.425,2.582c-2.735-3.913,5.242-5.906,5.242-5.906
					c0.296,0.739,7.532,5.171,10.338,3.325c2.806-1.848-3.098-8.127-5.245-8.567c-2.142-0.44-2.582,0.074-5.094-3.029
					c-2.51-3.103,1.037-2.436,1.037-2.436c6.346,9.599,15.578,7.657,15.578,7.657c-6.719-0.542-9.158-8.764-15.361-11.202
					c-6.201-2.436-6.126,5.171-6.126,5.171c-16.393,0.22-2.513,9.303-2.513,9.303c-9.474,11.101,7.384,8.033,7.384,8.033
					c-0.885,16.447,10.116,4.521,10.116,4.521C890.117,366.169,884.581,354.282,884.581,354.282z"/>
				<path fill="#484747" d="M848.539,327.131c0,0,2.954-10.827-5.253-6.298c0,0-6.827-9.454-7.908,1.869
					c0,0-9.945,2.293-2.065,8.283c0,0-6.699,7.371,2.065,7.272c0,0,1.572,13.393,6.103,1.97c0,0,8.664,6.106,6.794-4.329
					C848.275,335.898,858.253,329.889,848.539,327.131z M835.969,335.898c-0.815,0-1.477-0.598-1.477-1.332
					c0-0.734,0.662-1.326,1.477-1.326c0.815,0,1.48,0.593,1.48,1.326C837.448,335.299,836.784,335.898,835.969,335.898z
					 M838.233,328.493c-2.954,1.166-2.954-1.362-2.954-1.362C836.459,326.837,841.188,327.328,838.233,328.493z M843.286,328.493
					l-0.869-1.952C842.417,326.541,849.428,319.126,843.286,328.493z M844.531,333.651c-2.957,0.314-1.245-3.271-1.245-3.271
					s0,0,4.399,0C852.078,330.38,847.488,333.337,844.531,333.651z"/>
				<path fill="#484747" d="M820.339,300.747c0,0,7.975-19.271-4.281-11.222c0,0-2.219-18.387-9.158-0.59
					c0,0-11.077-7.729-4.284,9.352c0,0-13.809-2.116-5.094,7.484c0,0-6.129,9.158,1.993,10.558c0,0-4.654,16.391,8.194,6.351
					c0,0,11.289,18.149,8.044-5.544c0,0,10.047,5.319,5.25-7.233C821.004,309.902,831.859,300.599,820.339,300.747z M798.63,313.079
					c-2.068-0.813,1.107-4.948,1.845-4.948c0.739,0,7.68-0.739,0.665-4.133c-7.016-3.399-0.442-3.473,3.251-2.068
					c3.691,1.401,1.771,8.639,1.771,8.639C803.801,310.418,800.698,313.892,798.63,313.079z M810.96,321.794
					c-1.178-5.173-1.104-10.573-3.988-4.659c-2.878,5.912-8.12,7.537-3.616-1.176c0,0,1.551-2.952,4.355-3.397
					c0,0,0.739,2.141,3.471,1.623c2.735-0.516,0.665,2.436,1.994,7.162C814.507,326.075,812.143,326.96,810.96,321.794z
					 M819.898,315.218c-1.184,4.064-3.374-1.475-4.31-2.655c-0.935-1.181-2.116-0.887-2.632-0.887
					c-0.519,0,1.994-11.077-1.181-11.593c-3.177-0.516-2.29-1.564-2.29-1.564s-0.984-4.194,0.652-8.036
					c1.638-3.839,2.743-2.658,2.523,2.732c-0.222,5.39,0.958,7.902,3.767,3.322c2.804-4.577,3.616-3.148,0.81,1.748
					c-2.807,4.9-3.027,7.558-0.519,6.525c2.512-1.035,5.886-3.341,5.173,1.104c-0.716,4.45-6.576,1.551-7.461,1.848
					c-0.884,0.296-0.958,1.181,0.519,2.436C816.427,311.454,821.076,311.16,819.898,315.218z"/>
				<polygon fill="#484747" points="888.197,221.815 942.691,276.804 889.225,217.171 				"/>
				<path fill="#484747" d="M908.061,243.005c0,0,4.358-10.042-6.425-6.942c0,0-5.39-13.952-10.558-3.026
					c0,0-9.745-0.294-2.436,6.277c0,0-4.948,6.717,7.384,5.904c0,0,1.253,12.555,7.604,2.587
					C903.63,247.805,915.519,252.603,908.061,243.005z M888.642,235.251c2.187-2.448,6.645,2.508,6.645,2.508
					C887.091,236.422,888.642,235.251,888.642,235.251z M890.265,242.929c0,0,3.029-4.726,6.351-3.026
					C896.616,239.903,897.058,243.519,890.265,242.929z M895.287,231.486c3.1,0.414,5.242,4.948,3.126,3.913
					C896.297,234.367,895.287,231.486,895.287,231.486z M899.272,248.248c-1.564-2.84-0.513-6.129-0.513-6.129
					C902.398,241.929,900.839,251.089,899.272,248.248z M906.438,246.987c-2.367-0.373-2.29-4.871-2.29-4.871
					C907.841,243.514,908.798,247.36,906.438,246.987z"/>
				<path fill="#484747" d="M933.387,263.9c0,0,0.593-8.488-6.129-5.168c0,0-8.935-11.445-12.7,0.961c0,0-17.426,0.084-3.102,8.385
					c0,0-6.275,13.102,7.754,7.269c0,0,0.813,18.977,8.787,4.207c0,0,12.994,6.5,8.639-6.349
					C936.636,273.205,942.841,265.377,933.387,263.9z M909.61,262.796c2.068-3.251,8.713,2.732,8.713,2.732
					C917.658,265.377,907.542,266.044,909.61,262.796z M928.587,275.125c-2.287-4.135-3.248,0.222-3.026,2.438
					c0.222,2.214-0.519,5.094-2.658,4.133c-2.145-0.958-1.109-7.013-1.109-7.382c0-0.368,1.993-6.425-2.804-2.29
					c-4.8,4.136-5.835,2.216-5.835,2.216c-4.726-4.872,6.867-5.245,6.867-5.245c1.326-0.092,2.198,1.033,2.198,1.033
					c5.153,2.883,7.325,2.07,7.325,2.07c4.018-4.803-6.055-9.158-8.562-9.303c-2.513-0.149-4.358-2.216-2.661-4.877
					c1.7-2.658,15.412,9.848,14.031,11.632c-1.377,1.784-1.329-0.038,1.107,4.836C935.9,279.26,930.875,279.26,928.587,275.125z"/>
				<path fill="#484747" d="M1054.708,242.97c0,0,3.249-9.344-5.911-6.168c0,0-6.791-9.528-7.826,2.732c0,0-9.599-0.22-1.919,7.016
					c0,0-5.758,9.344,1.919,7.847c0,0,1.332,12.679,7.826,4.04c0,0,7.46,2.29,6.131-6.052
					C1054.928,252.385,1065.044,246.998,1054.708,242.97z M1040.38,251.885c-2.213-1.756,2.659-3.121,2.659-3.121
					C1043.115,250.244,1042.596,253.635,1040.38,251.885z M1043.048,245.073c-1.84,1.107-2.221-3.1-2.221-3.1
					C1042.154,242.857,1044.886,243.967,1043.048,245.073z M1046.105,242.339c-0.511,0-0.923-0.478-0.923-1.074
					c0-0.596,0.411-1.074,0.923-1.074c0.509,0,0.923,0.478,0.923,1.074C1047.028,241.86,1046.614,242.339,1046.105,242.339z
					 M1051.383,240.191c1.549-0.524,0.371,5.62-1.7,4.25C1047.618,243.075,1051.383,240.191,1051.383,240.191z M1053.231,250.167
					c-3.177,0.222-2.788,1.168-2.653,2.208c0.14,1.041-1.705,0.951-2.073,0c-0.371-0.951-0.074-2.208,0.958-2.873
					c0,0,3.174-4.797,5.538-2.658C1057.366,248.986,1056.405,249.947,1053.231,250.167z"/>
				<path fill="#484747" d="M1029.725,213.12c0,0,3.938-8.958-5.71-8.271c0,0,1.917-9.842-8.936-4.23c0,0-8.493-5.022-7.803,2.362
					c0,0-11.913-1.383-3.839,7.578c0,0-6.308,7.877,3.294,7.289c0,0-1.025,9.845,8.966,4.036c0,0,7.33,8.268,9.395-1.579
					C1025.093,220.305,1038.289,220.997,1029.725,213.12z M1011.312,202.539c0,0,0.049-1.229,1.084,0
					c1.032,1.235,1.232,3.3-0.494,2.418C1010.183,204.07,1011.164,203.525,1011.312,202.539z M1007.325,206.725
					c1.526,1.033,3.987,0.688,3.987,0.688s-2.709,2.313-5.51,0.69C1002.996,206.48,1005.802,205.693,1007.325,206.725z
					 M1005.209,213.912c0,0,2.707-3.356,8.662-3.008C1013.871,210.904,1003.584,217.703,1005.209,213.912z M1010.674,220.902
					c-2.513-1.523,3.003-6.893,5.244-7.925C1015.918,212.977,1013.186,222.428,1010.674,220.902z M1017.319,206.035
					c-0.197-1.625,2.464-2.906,2.806-3.1c0,0,1.181,4.281,0,4.726C1018.944,208.103,1017.515,207.661,1017.319,206.035z
					 M1021.165,221.687c-1.385,0.251-4.14-2.949-0.746-7.135C1020.419,214.551,1022.55,221.442,1021.165,221.687z M1021.456,210.17
					c-1.083-1.229,1.227-1.49,1.227-1.49s1.971-0.578,3.445-0.233c1.477,0.345,0.69,1.035-0.882,1.723
					C1023.667,210.861,1022.535,211.4,1021.456,210.17z M1027.409,217.899c-1.181,0.296-2.745-3.642-2.745-3.642
					s3.387,0.69,3.88,1.827C1029.037,217.225,1028.592,217.603,1027.409,217.899z"/>
				<path fill="#484747" d="M964.252,254.397c0,0,5.186-16.041-6.055-9.955c0,0-6.541-13.025-10.387,0
					c0,0-14.571-10.259-7.039,6.262c0,0-10.612,5.309,1.704,10.747c0,0-2.885,10.372,8.485,5.559c0,0,6.5,18.464,11.226,1.068
					c0,0,10.706,4.455,4.836-4.401C967.022,263.677,977.693,254.417,964.252,254.397z M952.957,242.995
					c1.621-0.524,3.023,7.839,3.023,7.839l5.022-3.397c1.403,4.871-1.253,9.597-6.277,5.242
					C949.704,248.322,952.957,242.995,952.957,242.995z M942.691,245.812c2.07-1.996,6.648,6.349,6.648,6.349
					C940.625,246.402,942.691,245.812,942.691,245.812z M961.077,259.989c0,0-2.029-0.452-2.786,3.688
					c-0.759,4.138,0.869,7.067-1.201,7.629c0,0-2.216,0.938-2.364-5.779c0,0,1.183-5.62-4.281-1.85c0,0-6.203,2.293-2.732-1.252
					c0,0,6.5-4.061,0.665-4.284c0,0-7.235-0.148-6.571-3.026c0,0,1.846-4.212,7.752,0c0,0,4.281,7.68,7.606,5.835
					c3.323-1.848,1.771-2.218,4.207-3.103c2.438-0.887,6.057-0.739,5.613,0.885C966.542,260.357,961.077,259.989,961.077,259.989z"
					/>
				<path fill="#484747" d="M986.702,210.222c0,0,14.026,9.843-0.741,9.695c0,0-1.426,12.505-13.242,2.216
					c0,0-20.529,9.275-12.11-5.109c0,0-17.521-7.739,2.904-9.952c0,0,5.761,1.605-1.429,2.548c0,0-13.39,3.898,2.513,3.8
					l3.348,0.051c0,0-8.961,9.352-5.465,9.993c0,0,2.955,0.785,9.009-6.057c0,0,3.052,2.834,4.529,4.299
					c1.478,1.462,4.284,2.443,5.365,1.362c1.081-1.084-1.377-4.703-2.806-6.438c0,0,8.22,2.771,9.058,0
					c0.836-2.768-4.481-3.949-7.632-4.391c0,0,5.858-1.856,3.99-4.77c0,0-2.758-2.783-7.975,0.353c0,0-1.725-6.323-7.286-5.83
					c0,0-3.742,1.291-1.526,4.269c0,0-7.926-2.784,0.099-5.541c0,0,8.81-2.267,9.155,3.691
					C976.461,204.41,992.754,201.999,986.702,210.222z"/>
				<path fill="#484747" d="M968.583,207.822c0,0-3.102,2.344,0.737,5.423c3.841,3.08,5.418,3.077,6.847,2.538
					c1.423-0.542,1.423-3.89,0-5.416C974.738,208.841,972.471,205.864,968.583,207.822z"/>
				<path fill="#484747" d="M930.63,212.831c0,0-3.149-16.148-12.848-2.757c0,0-10.436-7.877-11.223,2.607
					c0,0-17.032,0.59-2.855,9.306c0,0-8.171,13.709,7.826,8.281c0,0,2.845,19.31,9.787,3.545c0,0,14.489,6.362,9.807-5.968
					C931.123,227.844,946.041,212.88,930.63,212.831z M910.52,210.27c0,0,2.532-2.655,7.317,6.203
					C917.837,216.473,907.489,215.734,910.52,210.27z M901.34,216.179c1.132-2.316,5.758-0.542,5.758-0.542
					c4.286,0.736,3.747,3.246,3.747,3.246c-0.1,1.625-5.664,0.296-5.664,0.296C900.458,218.196,901.34,216.179,901.34,216.179z
					 M927.677,233.518c-1.723,2.574-8.222-5.674-8.222-5.674c-0.933,10.931-3.739,8.32-3.739,8.32
					c-3.108-2.121-1.428-10.338-1.428-10.338c-8.32,4.828-8.91,3.034-8.91,3.034c-4.235-5.386,7.335-6.476,7.335-6.476
					c7.335,5.664,9.5,3.294,9.5,3.294c2.707-1.723-1.283-8.122-1.283-8.122c1.281-0.394,1.825-1.82,1.825-1.82
					c-4.243-0.621-2.904-4.086-2.904-4.086c3.003-2.165,7.678,5.523,7.678,5.523c6.5-2.752,5.809,3.681,5.809,3.681
					c-0.394,4.774-8.516,3.987-8.516,3.987C930.68,231.141,927.677,233.518,927.677,233.518z"/>
				<path fill="#484747" d="M876.088,163.628c0,0-4.726,7.456,0.149,16.02c0,0,3.253,2.954,3.841-1.771
					C880.668,173.154,880.517,160.523,876.088,163.628z"/>
			</g>
		</g>
		<circle fill="none" stroke="#484747" stroke-width="8" stroke-miterlimit="10" cx="960" cy="332.234" r="255.487"/>
	</g>
	<rect x="960" y="1080" display="inline" fill="none" stroke="#484747" stroke-miterlimit="10" width="960" height="541.569"/>
	<rect x="0.602" y="1080" display="inline" fill="none" stroke="#484747" stroke-miterlimit="10" width="960" height="541.569"/>
	<rect x="960" y="1621.569" display="inline" fill="none" stroke="#484747" stroke-miterlimit="10" width="960" height="541.569"/>
	
		<rect x="0.602" y="1621.569" display="inline" fill="none" stroke="#484747" stroke-miterlimit="10" width="960" height="541.569"/>
	<g display="inline">
		
			<line fill="none" stroke="#484747" stroke-width="8" stroke-linecap="round" stroke-miterlimit="10" x1="960" y1="925" x2="960" y2="972"/>
		
			<polyline fill="none" stroke="#484747" stroke-width="8" stroke-linecap="round" stroke-linejoin="round" stroke-miterlimit="10" points="
			976.884,958.413 960.237,975 959.763,975 943.116,958.383 		"/>
	</g>
</g>
<g id="Layer_4">
</g>
</svg>
