<?xml version="1.0" encoding="utf-8"?>
<!-- Generator: Adobe Illustrator 17.0.1, SVG Export Plug-In . SVG Version: 6.00 Build 0)  -->
<!DOCTYPE svg PUBLIC "-//W3C//DTD SVG 1.1//EN" "http://www.w3.org/Graphics/SVG/1.1/DTD/svg11.dtd">
<svg version="1.1" id="Layer_1" xmlns="http://www.w3.org/2000/svg" xmlns:xlink="http://www.w3.org/1999/xlink" x="0px" y="0px"
	 width="500px" height="500px" viewBox="0 0 500 500" enable-background="new 0 0 500 500" xml:space="preserve">
<g>
	<g>
		
			<line fill="none" stroke="#F95959" stroke-width="5" stroke-linecap="round" stroke-linejoin="round" stroke-miterlimit="10" x1="54.03" y1="237.599" x2="255.827" y2="361.81"/>
		
			<line fill="none" stroke="#F95959" stroke-width="5" stroke-linecap="round" stroke-linejoin="round" stroke-miterlimit="10" x1="255.827" y1="361.81" x2="411.95" y2="183.551"/>
		
			<line fill="none" stroke="#F95959" stroke-width="5" stroke-linecap="round" stroke-linejoin="round" stroke-miterlimit="10" x1="415.259" y1="428.72" x2="273.596" y2="341.522"/>
		
			<line fill="none" stroke="#F95959" stroke-width="5" stroke-linecap="round" stroke-linejoin="round" stroke-miterlimit="10" x1="231.714" y1="346.968" x2="123.261" y2="472.813"/>
		<path fill="none" stroke="#F95959" stroke-width="5" stroke-linecap="round" stroke-linejoin="round" stroke-miterlimit="10" d="
			M451.584,412.117c1.181,7.818-4.2,15.113-12.018,16.293L100,479.686c-7.818,1.181-15.113-4.2-16.293-12.018L49.416,240.583
			c-1.181-7.818,4.2-15.113,12.018-16.293L401,173.014c7.818-1.181,15.113,4.2,16.293,12.018L451.584,412.117z"/>
	</g>
	
		<line fill="none" stroke="#F95959" stroke-width="5" stroke-linecap="round" stroke-linejoin="round" stroke-miterlimit="10" x1="104.5" y1="193" x2="104.5" y2="120"/>
	
		<line fill="none" stroke="#F95959" stroke-width="5" stroke-linecap="round" stroke-linejoin="round" stroke-miterlimit="10" x1="182.5" y1="112" x2="182.5" y2="57"/>
	
		<line fill="none" stroke="#F95959" stroke-width="5" stroke-linecap="round" stroke-linejoin="round" stroke-miterlimit="10" x1="182.5" y1="172" x2="182.5" y2="140"/>
	
		<line fill="none" stroke="#F95959" stroke-width="5" stroke-linecap="round" stroke-linejoin="round" stroke-miterlimit="10" x1="242.5" y1="156" x2="242.5" y2="115"/>
	
		<line fill="none" stroke="#F95959" stroke-width="5" stroke-linecap="round" stroke-linejoin="round" stroke-miterlimit="10" x1="304.5" y1="42" x2="304.5" y2="17"/>
	
		<line fill="none" stroke="#F95959" stroke-width="5" stroke-linecap="round" stroke-linejoin="round" stroke-miterlimit="10" x1="304.5" y1="124" x2="304.5" y2="63"/>
	
		<line fill="none" stroke="#F95959" stroke-width="5" stroke-linecap="round" stroke-linejoin="round" stroke-miterlimit="10" x1="365.5" y1="149" x2="365.5" y2="95"/>
</g>
</svg>
