<?xml version="1.0" encoding="utf-8"?>
<!-- Generator: Adobe Illustrator 17.0.1, SVG Export Plug-In . SVG Version: 6.00 Build 0)  -->
<!DOCTYPE svg PUBLIC "-//W3C//DTD SVG 1.1//EN" "http://www.w3.org/Graphics/SVG/1.1/DTD/svg11.dtd">
<svg version="1.1" id="Layer_1" xmlns="http://www.w3.org/2000/svg" xmlns:xlink="http://www.w3.org/1999/xlink" x="0px" y="0px"
	 width="500px" height="500px" viewBox="0 0 500 500" enable-background="new 0 0 500 500" xml:space="preserve">
<g>
	<g>
		<g>
			<g>
				
					<path fill="none" stroke="#F95959" stroke-width="5" stroke-linecap="round" stroke-linejoin="round" stroke-miterlimit="10" d="
					M171.928,61.222"/>
				
					<path fill="none" stroke="#F95959" stroke-width="5" stroke-linecap="round" stroke-linejoin="round" stroke-miterlimit="10" d="
					M193.929,93.315l-30.928,30.928c-11.032,11.032-11.07,28.843-0.038,39.875l63.317,63.317"/>
				
					<path fill="none" stroke="#F95959" stroke-width="5" stroke-linecap="round" stroke-linejoin="round" stroke-miterlimit="10" d="
					M191.907,95.337l1.26-1.26c3.208-3.208,3.15-8.485-0.058-11.692l-1.201-1.201"/>
			</g>
		</g>
		<path fill="none" stroke="#F95959" stroke-width="5" stroke-linecap="round" stroke-linejoin="round" stroke-miterlimit="10" d="
			M187.945,265.77c-53.094-53.094-67.579-100.089-82.309-162.152c-0.38-1.826-0.582-3.718-0.582-5.658
			c0-7.274,2.812-13.892,7.41-18.823l18.499-18.92c11.032-11.032,28.943-11.036,39.975-0.004l22.992,22.992"/>
		<g>
			<g>
				
					<path fill="none" stroke="#F95959" stroke-width="5" stroke-linecap="round" stroke-linejoin="round" stroke-miterlimit="10" d="
					M392.494,281.788"/>
				
					<path fill="none" stroke="#F95959" stroke-width="5" stroke-linecap="round" stroke-linejoin="round" stroke-miterlimit="10" d="
					M360.4,259.786l-30.928,30.928c-11.032,11.032-28.843,11.07-39.875,0.038l-63.317-63.317"/>
				
					<path fill="none" stroke="#F95959" stroke-width="5" stroke-linecap="round" stroke-linejoin="round" stroke-miterlimit="10" d="
					M358.378,261.808l1.26-1.26c3.208-3.208,8.485-3.15,11.692,0.058l1.201,1.201"/>
			</g>
		</g>
		<path fill="none" stroke="#F95959" stroke-width="5" stroke-linecap="round" stroke-linejoin="round" stroke-miterlimit="10" d="
			M187.945,265.77c53.094,53.094,100.089,67.579,162.152,82.309c1.826,0.38,3.719,0.582,5.658,0.582
			c7.274,0,13.892-2.812,18.823-7.41l18.92-18.499c11.032-11.032,11.036-28.943,0.004-39.975l-22.992-22.992"/>
	</g>
	<path fill="none" stroke="#F95959" stroke-width="5" stroke-linecap="round" stroke-linejoin="round" stroke-miterlimit="10" d="
		M385.797,330.282l30.678,30.678c0,0,3.841,3.517,3.841,11.021c0,10.215-7.915,18.564-17.679,18.564l-20.452,0.35
		c-9.764,0-17.679,8.274-17.679,18.489c0,10.215,7.915,18.492,17.679,18.492l20.452,0.169c9.764,0,17.679,8.171,17.679,18.387
		s-7.915,18.385-17.679,18.385l-119.702,0.242"/>
	
		<line fill="none" stroke="#F95959" stroke-width="5" stroke-linecap="round" stroke-linejoin="round" stroke-miterlimit="10" x1="263" y1="465.5" x2="244" y2="465.5"/>
	
		<line fill="none" stroke="#F95959" stroke-width="5" stroke-linecap="round" stroke-linejoin="round" stroke-miterlimit="10" x1="220" y1="465.5" x2="180" y2="465.5"/>
	<path fill="none" stroke="#F95959" stroke-width="5" stroke-linecap="round" stroke-linejoin="round" stroke-miterlimit="10" d="
		M102.986,218.837c4.561,8.379,9.981,17.481,16.412,27.186"/>
	<path fill="none" stroke="#F95959" stroke-width="5" stroke-linecap="round" stroke-linejoin="round" stroke-miterlimit="10" d="
		M85.06,179.197c1.99,5.651,4.663,12.458,8.222,20.261"/>
	<path fill="none" stroke="#F95959" stroke-width="5" stroke-linecap="round" stroke-linejoin="round" stroke-miterlimit="10" d="
		M79.684,160.375c0,0,0.516,3.076,2.145,8.756"/>
	<path fill="none" stroke="#F95959" stroke-width="5" stroke-linecap="round" stroke-linejoin="round" stroke-miterlimit="10" d="
		M153.181,27.943c7.158,0.057,14.299,2.814,19.756,8.271"/>
	<path fill="none" stroke="#F95959" stroke-width="5" stroke-linecap="round" stroke-linejoin="round" stroke-miterlimit="10" d="
		M356.359,233.631c6.733-2.433,14.386-2.327,21.399,0.895"/>
	<path fill="none" stroke="#F95959" stroke-width="5" stroke-linecap="round" stroke-linejoin="round" stroke-miterlimit="10" d="
		M132.962,36.218c1.532-1.532,3.197-2.852,4.957-3.958"/>
</g>
</svg>
