<?xml version="1.0" encoding="utf-8"?>
<!-- Generator: Adobe Illustrator 17.0.1, SVG Export Plug-In . SVG Version: 6.00 Build 0)  -->
<!DOCTYPE svg PUBLIC "-//W3C//DTD SVG 1.1//EN" "http://www.w3.org/Graphics/SVG/1.1/DTD/svg11.dtd">
<svg version="1.1" id="Layer_4" xmlns="http://www.w3.org/2000/svg" xmlns:xlink="http://www.w3.org/1999/xlink" x="0px" y="0px"
	 width="500px" height="500px" viewBox="0 0 500 500" enable-background="new 0 0 500 500" xml:space="preserve">
<g>
	<g>
		<path fill="none" stroke="#F95959" stroke-width="5" stroke-linecap="round" stroke-linejoin="round" stroke-miterlimit="10" d="
			M367.124,202.491l-90.315,152.705c0,0-48.293,37.165-49.055,37.66c0.067-0.906,9.431-61.09,9.431-61.09l90.285-152.722"/>
		
			<line fill="none" stroke="#F95959" stroke-width="5" stroke-linecap="round" stroke-linejoin="round" stroke-miterlimit="10" x1="327.47" y1="179.044" x2="367.124" y2="202.491"/>
		
			<line fill="none" stroke="#F95959" stroke-width="5" stroke-linecap="round" stroke-linejoin="round" stroke-miterlimit="10" x1="331.215" y1="172.759" x2="370.868" y2="196.206"/>
		
			<line fill="none" stroke="#F95959" stroke-width="5" stroke-linecap="round" stroke-linejoin="round" stroke-miterlimit="10" x1="346.506" y1="147.095" x2="386.159" y2="170.542"/>
		
			<line fill="none" stroke="#F95959" stroke-width="5" stroke-linecap="round" stroke-linejoin="round" stroke-miterlimit="10" x1="335.425" y1="166.432" x2="373.433" y2="188.906"/>
		
			<line fill="none" stroke="#F95959" stroke-width="5" stroke-linecap="round" stroke-linejoin="round" stroke-miterlimit="10" x1="262.998" y1="333.189" x2="347.372" y2="190.902"/>
		
			<line fill="none" stroke="#F95959" stroke-width="5" stroke-linecap="round" stroke-linejoin="round" stroke-miterlimit="10" x1="245.379" y1="334.723" x2="270.582" y2="349.626"/>
		
			<line fill="none" stroke="#F95959" stroke-width="5" stroke-linecap="round" stroke-linejoin="round" stroke-miterlimit="10" x1="327.47" y1="179.044" x2="346.506" y2="147.095"/>
		
			<line fill="none" stroke="#F95959" stroke-width="5" stroke-linecap="round" stroke-linejoin="round" stroke-miterlimit="10" x1="367.124" y1="202.491" x2="386.159" y2="170.542"/>
	</g>
	
		<circle fill="none" stroke="#F95959" stroke-width="5" stroke-linecap="round" stroke-linejoin="round" stroke-miterlimit="10" cx="160.526" cy="243.58" r="43.347"/>
	
		<ellipse transform="matrix(0.9694 -0.2455 0.2455 0.9694 -54.8906 46.8683)" fill="none" stroke="#F95959" stroke-width="5" stroke-linecap="round" stroke-linejoin="round" stroke-miterlimit="10" cx="160.526" cy="243.58" rx="53.433" ry="53.155"/>
	<path fill="none" stroke="#F95959" stroke-width="5" stroke-linecap="round" stroke-linejoin="round" stroke-miterlimit="10" d="
		M140.035,253.168c0,0,11.988,6.897,16.78,12.342c0,0,5.647-31.613,21.462-44.263"/>
	
		<line fill="none" stroke="#F95959" stroke-width="5" stroke-linecap="round" stroke-linejoin="round" stroke-miterlimit="10" x1="233.909" y1="219.482" x2="300.814" y2="202.536"/>
	
		<line fill="none" stroke="#F95959" stroke-width="5" stroke-linecap="round" stroke-linejoin="round" stroke-miterlimit="10" x1="229.19" y1="250.911" x2="266.767" y2="241.394"/>
	
		<line fill="none" stroke="#F95959" stroke-width="5" stroke-linecap="round" stroke-linejoin="round" stroke-miterlimit="10" x1="335.233" y1="284.522" x2="347.148" y2="281.504"/>
	
		<line fill="none" stroke="#F95959" stroke-width="5" stroke-linecap="round" stroke-linejoin="round" stroke-miterlimit="10" x1="315.85" y1="319.665" x2="354.344" y2="309.916"/>
	
		<line fill="none" stroke="#F95959" stroke-width="5" stroke-linecap="round" stroke-linejoin="round" stroke-miterlimit="10" x1="301.05" y1="353.648" x2="361.54" y2="338.328"/>
	
		<line fill="none" stroke="#F95959" stroke-width="5" stroke-linecap="round" stroke-linejoin="round" stroke-miterlimit="10" x1="210.724" y1="285.822" x2="246.468" y2="276.769"/>
	
		<line fill="none" stroke="#F95959" stroke-width="5" stroke-linecap="round" stroke-linejoin="round" stroke-miterlimit="10" x1="170.262" y1="326.305" x2="226.169" y2="312.145"/>
	
		<line fill="none" stroke="#F95959" stroke-width="5" stroke-linecap="round" stroke-linejoin="round" stroke-miterlimit="10" x1="177.458" y1="354.716" x2="215.951" y2="344.967"/>
	
		<line fill="none" stroke="#F95959" stroke-width="5" stroke-linecap="round" stroke-linejoin="round" stroke-miterlimit="10" x1="184.654" y1="383.128" x2="207.566" y2="377.325"/>
	<path fill="none" stroke="#F95959" stroke-width="5" stroke-linecap="round" stroke-linejoin="round" stroke-miterlimit="10" d="
		M305.549,101.856l42.618-10.794c17.716-4.487,35.715,6.237,40.202,23.953L445.24,339.56c4.487,17.716-6.237,35.715-23.953,40.202
		l-269.453,68.246c-17.716,4.487-35.715-6.237-40.202-23.953L54.76,199.51c-4.487-17.716,6.237-35.715,23.953-40.202l44.451-11.258"
		/>
	
		<rect x="124.739" y="120.967" transform="matrix(0.9694 -0.2455 0.2455 0.9694 -32.8043 38.3743)" fill="none" stroke="#F95959" stroke-width="5" stroke-linecap="round" stroke-linejoin="round" stroke-miterlimit="10" width="25.527" height="59.573"/>
	
		<rect x="278.712" y="81.969" transform="matrix(0.9694 -0.2455 0.2455 0.9694 -18.5166 74.9844)" fill="none" stroke="#F95959" stroke-width="5" stroke-linecap="round" stroke-linejoin="round" stroke-miterlimit="10" width="25.527" height="59.573"/>
	
		<polyline fill="none" stroke="#F95959" stroke-width="5" stroke-linecap="round" stroke-linejoin="round" stroke-miterlimit="10" points="
		380.893,181.767 424.649,354.529 137.782,427.185 76.268,184.31 128.967,170.963 	"/>
	
		<polyline fill="none" stroke="#F95959" stroke-width="5" stroke-linecap="round" stroke-linejoin="round" stroke-miterlimit="10" points="
		311.352,124.769 363.135,111.654 376.25,163.437 	"/>
	
		<line fill="none" stroke="#F95959" stroke-width="5" stroke-linecap="round" stroke-linejoin="round" stroke-miterlimit="10" x1="149.742" y1="141.318" x2="277.137" y2="109.052"/>
	
		<line fill="none" stroke="#F95959" stroke-width="5" stroke-linecap="round" stroke-linejoin="round" stroke-miterlimit="10" x1="155.546" y1="164.231" x2="282.94" y2="131.965"/>
	
		<line fill="none" stroke="#F95959" stroke-width="5" stroke-linecap="round" stroke-linejoin="round" stroke-miterlimit="10" x1="191" y1="459.5" x2="279" y2="459.5"/>
	
		<line fill="none" stroke="#F95959" stroke-width="5" stroke-linecap="round" stroke-linejoin="round" stroke-miterlimit="10" x1="304" y1="459.5" x2="335" y2="459.5"/>
	
		<line fill="none" stroke="#F95959" stroke-width="5" stroke-linecap="round" stroke-linejoin="round" stroke-miterlimit="10" x1="359" y1="459.5" x2="392" y2="459.5"/>
	
		<line fill="none" stroke="#F95959" stroke-width="5" stroke-linecap="round" stroke-linejoin="round" stroke-miterlimit="10" x1="88.5" y1="58" x2="88.5" y2="104"/>
	
		<line fill="none" stroke="#F95959" stroke-width="5" stroke-linecap="round" stroke-linejoin="round" stroke-miterlimit="10" x1="196.5" y1="93" x2="196.5" y2="117"/>
	
		<line fill="none" stroke="#F95959" stroke-width="5" stroke-linecap="round" stroke-linejoin="round" stroke-miterlimit="10" x1="140.5" y1="81" x2="140.5" y2="69"/>
	
		<line fill="none" stroke="#F95959" stroke-width="5" stroke-linecap="round" stroke-linejoin="round" stroke-miterlimit="10" x1="196.5" y1="65" x2="196.5" y2="51"/>
	
		<line fill="none" stroke="#F95959" stroke-width="5" stroke-linecap="round" stroke-linejoin="round" stroke-miterlimit="10" x1="311.5" y1="58" x2="311.5" y2="46"/>
	
		<line fill="none" stroke="#F95959" stroke-width="5" stroke-linecap="round" stroke-linejoin="round" stroke-miterlimit="10" x1="88.5" y1="139" x2="88.5" y2="126"/>
	
		<line fill="none" stroke="#F95959" stroke-width="5" stroke-linecap="round" stroke-linejoin="round" stroke-miterlimit="10" x1="367.5" y1="74" x2="367.5" y2="40"/>
	
		<line fill="none" stroke="#F95959" stroke-width="5" stroke-linecap="round" stroke-linejoin="round" stroke-miterlimit="10" x1="258.5" y1="73" x2="258.5" y2="40"/>
</g>
</svg>
