<svg xmlns="http://www.w3.org/2000/svg" viewBox="0 0 792.73 792.73"><defs><style>.cls-1{fill:#484747;}.cls-2{fill:none;stroke:#484747;stroke-miterlimit:10;stroke-width:8px;}</style></defs><title>Asset 1</title><g id="Layer_2" data-name="Layer 2"><g id="Layer_1-2" data-name="Layer 1"><path class="cls-1" d="M506.31,678.68,509,709.07l65.32-10,1.82-31Zm62.3,15.57-53.68,9.22-1-21.16,57.45-9.53Z"/><path class="cls-1" d="M652.82,633.62s8.93,3.63,4.24,12.55-4.38,10.13-13.61,12.7-59.21,16.7-59.21,16.7-6.86,4.62,1.15,4.32S642.69,664,642.69,664s15.28-4.08,18-16-3-15.87-3-15.87-3.32-3.48-5.29-1.36S652.82,633.62,652.82,633.62Z"/><path class="cls-1" d="M640.43,637.1s0-.11.09-.28C639.32,637,640.43,637.1,640.43,637.1Z"/><path class="cls-1" d="M645,636.35c-2.53.2-3.8.36-4.44.47-.06.17-.09.28-.09.28s-1.11-.07.09-.28c.79-2.45,6.77-21.09,7.62-28.15.9-7.56,5.46-72.42,2.05-92.68s-7.34-26.77-9.91-29.94-.46-43.09-26.17-88.75c0,0-2-9.07-21.76-2.12,0,0-117.79,37.43-192.86,24.27,0,0-8.22-2.33-7.54,6.46s3.08,86.75,4,91.74,8.92,5.14,11.34,5.6,160,8.48,225-36.44c0,0,8.77,10.58,9.38,29.33s3,108.26-8.17,121.56a350.6,350.6,0,0,1-47.78,12.4c-28.42,5.44-161.78,26.31-180.53,20.26,0,0-24.8-13.75-39-12.24l-15-12s-22-88.37-37.87-109.46S290,513.34,290,513.34s-8.51-5.72-6.69,16.16c0,0,2.89,6.69,8.22-6.63,0,0,6.07-3.74,7.14,9.07L279,536.71s-15.09,3-15.53,21.42-1.14,34-1.14,34,4,5.79,2.84,9-4.35,12.18-.42,25.93,15.19,20.8,17.84,22.68c0,0,1.17,11.72,6.61,20.79s23.82,28,23.82,28l34.36-2.38s13.72-3.59,17.35-20.86c0,0,9.75,18,30.95,23.24s54.3,4.5,75,2.23,35.67-4.84,35.67-4.84a1.69,1.69,0,0,0-.67-2.61s-34.59,2.28-56.37,3.64S430,698,430,698s-34.77.15-53.82-16.78c0,0-4.09-2.72-7-10.43s-1-11.19,9.63-5.86,20.12,10.09,20.12,10.09,12.48,3.74,31.42,1.93,91.4-9.79,91.4-9.79l84.67-15.28,43.39-14.06S652.22,635.74,645,636.35ZM292.44,653.28c3.25-12-3.16-22.38-3.16-22.38-13.61,3.17-20.65-9.38-20.65-9.38-5.58-21.41,11.79-32.2,11.79-32.2,17.38,18.17,17,68.72,17,68.72Zm48.76,37C326,692.52,319,693,319,693s-.68-48.85-7.48-69.56S280,550.31,274.75,544c0,0,11.34-4.76,17.24-3S335.08,649.2,333.72,661.9s21.1,13.38,21.1,13.38S356.4,688,341.2,690.24Z"/><path class="cls-1" d="M623.49,502.68c-5.52,2.88-14,11.12-14,11.12S583.42,544,573.9,563.92s-18.71,55-22.23,73.37,0,15.88,0,15.88,2.32-2.67,2.27-5.16,1.59-14.24,1.59-14.24c1.81-14.29,14.51-47.85,19.5-62.14s27.67-45.21,27.67-45.21,12.17-12.17,19.43-17.24S629,499.81,623.49,502.68Z"/><path class="cls-1" d="M516.59,633.32c-9.37-20.41-26.38-49.9-41.57-62.6s-23.36-20-33.8-26.31-21.54-10.2-26.31-10.88c0,0,25.86,12.93,38.1,22.91,0,0,11.73,6.72,30.93,31.52s18.14,25.1,22.37,34.92,7.71,18.6,8.32,22.23,1.06,15,5.52,12.7C520.15,657.81,526,653.74,516.59,633.32Z"/><path class="cls-1" d="M390.34,529.14s-12.7,48.69-2.72,124.14c0,0,5.07,14.06,5.29-1.25C392.91,652,383,575.11,390.34,529.14Z"/><path class="cls-1" d="M627.61,494.67c-11.68,5.14-42.82,20.71-95.59,27.67s-54.4,10.43-132.43,3.48c0,0,49.34,14.51,133.26,0s99.41-28.58,99.41-28.58S639.29,489.53,627.61,494.67Z"/><polygon class="cls-1" points="492.18 547.09 501.25 545.88 512.38 565.16 520.08 541.8 527.56 540.7 513.35 581.48 492.18 547.09"/><path class="cls-1" d="M565.07,544.23c-.68-6.8-6.13-7.71-14.3-7.71S538,538.76,538,538.76l6.44,37,5.51-.68L547.72,559C560.15,555.68,565.75,551,565.07,544.23Zm-19,8.85-1.7-9.41c1.7-.23,10.88-4.2,12.25,1.7S546.1,553.08,546.1,553.08Z"/><polygon class="cls-1" points="495.36 537.15 495.36 544.11 557.27 534.74 557.27 529.45 495.36 537.15"/><path class="cls-1" d="M439.49,649.88c-11-6.43-14.29-27.82-14.29-27.82,4.46,18.29,24,29.55,24,29.55s7.86,2.88,18.67-4.83,2.35-42.19,2.35-42.19c-2.43-7-13.61-19.65-20.42-24s-13.9-4.23-16-3-10.89,6.36-13.76,14.34-4.08,25,0,42.06,12.55,19.36,26,26.16,24.19-8.92,24.19-8.92-8.77,4.31-13.32,5S450.52,656.3,439.49,649.88Zm-8.77-64.34c8-5.9,12.4-3.18,17.69.76s19.95,16.92,21.62,37.11l-2.39.32s.23-6.06-3-7.59-1.57,13.1-13,12.49-20.19-8.46-22-12.54C429.66,616.09,422.7,591.44,430.72,585.54Z"/><path class="cls-1" d="M608.37,628.48c-.36,0-.63,0-1,.06A6.77,6.77,0,0,0,608.37,628.48Z"/><path class="cls-1" d="M586.14,593s-8.79,38.8,21.25,35.59C603.36,628.57,588,626.46,586.14,593Z"/><path class="cls-1" d="M585.24,388.6s-40.37,15.74-86,21.59-89.13,5.86-106.37,2.23c0,0,47.32,22.87,196-19.86C588.86,392.56,611.43,382.48,585.24,388.6Z"/><path class="cls-1" d="M592.27,343.25S588.71,317,578.74,298c0,0-7.56-2.72-46.27,17.39s-134,52.31-137,52.16l.75-6.2s98.58-31.15,119.3-47.17l-126.71,7.11v-.46s-3.63,45.67-1.66,53.07c0,0,39.77,6.8,90.88-1.66s110.38-26,110.38-26,15,30.09,13.83,43.32c0,0,7.48,2.5,9.75,0S595.9,346.19,592.27,343.25Z"/><path class="cls-1" d="M262.28,259.56c-26.76-30.85-63.51-78.93-70.31-72.13,0,0-1.36.16,3.25,4.69S202,195,215.6,211s47.13,63.76,65.73,85.18,93,104.42,98,109.41C379.31,405.61,289,290.4,262.28,259.56Z"/><polygon class="cls-1" points="538.9 576.42 532.04 577.86 527.56 540.7 534.36 539.75 538.9 576.42"/><path class="cls-1" d="M309.22,482.5c-4.3-.91-8.16-12.25-15.64-17.24s-14.29,5.67-14.29,5.67c-3.75,4.22,19.5,19.28,23.13,22a11.93,11.93,0,0,0,13.61,0C320.57,489.92,313.53,483.4,309.22,482.5Zm-13.6-3.3c-5.14-8.64-6.12-5.25-7.49-4.64,0,0-3.7,1.21-3.06-2.15,0,0,3.06-5.11,6.8-1.7s13.73,17.8,16.34,18.14C308.21,488.85,300.76,487.83,295.62,479.2Z"/><path class="cls-1" d="M177.76,407.58c0-1.26-.06-.91-.07.51C177.73,408.07,177.76,407.94,177.76,407.58Z"/><path class="cls-1" d="M239.26,526.72c4,4.88,20.15,22.38,20.15,22.38L237,514.33s-7.86-77-36-104.14c-26.06-25.12-23.82-1.8-23.35-2.1,0-1.42.07-1.77.07-.51,0,.36,0,.49-.07.51,0,4,.43,16.58,4,26.4,0,0-15.69,25.56.42,46.54,0,0-8.85,15.54-6.58,24.72A40.33,40.33,0,0,0,199,533.53s2.37,20.64,7.59,27.67,9.19,8,12.36,8.5,36.63-7.26,39.13-8.62c0,0-22.46-28-22.57-36.74C235.52,524.34,235.29,521.85,239.26,526.72Zm-51.83-51.1-1.05-13.15S197.56,472.29,187.43,475.62Zm-1.81,32.19-4.23.92c-7.69-18.83,13.15-31.9,13.15-31.9,7.78,9.5,10.59,36.44,10.59,36.44C193.94,516.29,185.62,507.81,185.62,507.81Zm7.71,16.53c2.61,4.2,14.41,4.2,14.41,4.2l.9,4.31C194.81,531.15,193.33,524.34,193.33,524.34Zm13,12.29c3.26-4.61,3.48,6.2,3.48,6.2C205.28,539.5,206.33,536.63,206.33,536.63Zm40.53,23s-18.26,5.67-25.29,3.52c0,0,18.8-38-29.89-124.86,0,0-3-8.91,6.27-1.88S223.27,487,226.22,511.3s.68,29.26,7.14,35.27S246.86,559.61,246.86,559.61Z"/><path class="cls-1" d="M148.73,424.21s-17.84,16,9.07,36.9l10.88-1.21S142.08,445.08,148.73,424.21Z"/><path class="cls-1" d="M388.36,518.86V422.09s-6.18-8.46-9.05-8.46-18.91,66.62-18.6,85S384.25,517.05,388.36,518.86Z"/><path class="cls-1" d="M354.86,503.14c-.1-19.66,19.67-87.7,19.67-87.7,1.55-5.44-7.47-14.82-7.47-14.82s-30.84-32.35-42-43.84-19.06,0-19.06,0c-15.72,48.38-12.39,82.86-12.39,82.86,66.22,87.08,82.7,82.25,82.7,82.25Z"/><polygon class="cls-1" points="511.37 300.31 453.01 310.06 450.52 301.44 508.05 292.19 511.37 300.31"/><polygon class="cls-1" points="484.39 245.03 424.14 254.57 421.64 245.95 480.95 237.32 484.39 245.03"/><polygon class="cls-1" points="423.16 257.44 431.17 256.16 454.3 280.57 450.07 252.22 457.64 251.27 464.93 298.28 460.12 299.25 423.16 257.44"/><polygon class="cls-1" points="459.23 250.65 476.49 296.13 482.24 295.31 465.07 249.8 459.23 250.65"/><path class="cls-1" d="M494.09,256.7c-4.61-13.9-26-7.61-26-7.61l18.3,45.55,6.15-1.46-6.75-18.68C492.36,272.78,498.7,270.6,494.09,256.7ZM478,255.39c7.26-.91,7.83-.57,10.72,5.3s-5.71,7.38-5.71,7.38Z"/><path class="cls-1" d="M280.88,438.12s-16.79-.75-14.52,91.33c0,0,2.5,6.35,2.84,0,0,0-2.76-81.34,15.8-85.28,0,0,4.95-62.6,19.46-99.94C304.46,344.23,292.36,352.85,280.88,438.12Z"/><path class="cls-1" d="M299,331.38s-85.88-111-94.65-122.78-14.21-5.14-14.21-5.14c-32.36,37.8-29.33,84.67-29.33,84.67,16,33.87,79.83,105.24,98.58,124.29s19.47,0,19.47,0c2.24-47.78,17.72-71.37,17.72-71.37-24.49,12.7-63.8,19.36-63.8,19.36C282.39,342.26,299,331.38,299,331.38Zm-96.16-99.49.75,5.43-11.82,5.46ZM183.2,299.17l50.2-16.48.91,2-49.14,18.13Zm7.56,11.19,49.29-16,.76,3.5-48.23,16.91Zm7.11,13,65.77-20.57L265.3,306l-64.71,20.72Zm5.74,15.43,53.83-16.33.76,5.59-51,16.53Z"/><path class="cls-1" d="M439,140.49c-5.89-.68-10.58-.23-17.31-5,0,0,5.07-22.68-11.49-39.91l-.68-3.18s12.1-.68,12.17-3.63S417.18,76.31,399,76.31s-23.82,4.3-23.82,4.3a69.2,69.2,0,0,1-15.42-4.3s-5.21-15.2-25.17-7.26-5,14.29.22,16.33c0,0,3.29,12.13-1.92,13.72S325.1,99,325.1,99s-8.84-14.29-47.86-4.65l.57,17.7s-19.46-11.53-34.28,31.56c0,0-49.14,13-67.58,38.25s-19,20.57-33.72,70.92-10.43,72.42-10.13,88.45,9.68,83.9,35.68,104.93l2.42-3.48s-33.76-39.76-31.63-135.47c0,0,11.43-73,36.27-110.23s61.58-44.45,69.29-45.36c0,0,9.08,27.22,18.15,33.11l-6.65-.6S232,161.58,229.88,159.77l18.34,27s-22.46,11.69-18.34,28.33c0,0,3.06,9.07,13.8,2.11,0,0,6-3.17,7.41-3.17,0,0-1.81,8.16-13,11.34,0,0,11.94,28,30.69,28.87,0,0-4.38,13.33,3.33,14.53s11.49-6.36,9.83-15.43c0,0,6.42-3.78,5.74-45.74,0,0,4.54,3.4,8.16-8.39,0,0,7.94,11.76,27.45,2.36L336,210.76c3-.52,6.53,3.38,8.65,6.23l3.16,2.27c4.94-1.59,6.76.66,7.34,2.92l.57.41-.4.46a12.32,12.32,0,0,1,.1,2.26,5.25,5.25,0,0,1-1.95,3.66l13.36,11.76s3,1.14,6.94-3.4c0,0,4.86,5,11.89-9.07,0,0,3.4-9.3-3.41-16.79,0,0-2-2-2.94.91,0,0-9.76-10-17.92-10.79a4.5,4.5,0,0,0-1.13,5.12l-3.41.23-13.23-10.28-2.56-49.59,13.15-2.87,3.6,52.46,5.4-.83L360,142.08h11.56s1.82,18.37.91,29.93-.68,29.58-.68,29.58l68.49-4.41s5.22.24,5.68-17.23-.91-26.53,1.59-31.07S444.85,141.17,439,140.49ZM412,82.05c.93,0,3.78,2,3.78,3.86s-1.09,2.78-2,2.78-.86-.87-.86-2.71S411,82.05,412,82.05Zm-76.71-.41c0,.83-1.93-.72-3.34-.72s-1.59-1.74-1.59-2.57,2.27-.46,3.69-.46S335.25,80.8,335.25,81.64ZM236.48,216.58a1.94,1.94,0,1,1,1.76-1.93A1.85,1.85,0,0,1,236.48,216.58Zm17.87,26.2c-5-3.63,0-14.07,0-14.07l2.37,7.66s4.09-1.88,3.85,1.53S259.33,246.4,254.35,242.78Zm147.48-163c1.76,0,3.18.51,3.18,1.14s-1.42,1.13-3.18,1.13-3.17-.51-3.17-1.13S400.08,79.78,401.83,79.78Zm-19,25.4s3.1-5,4.38-5.52,5.11-.27,1.29,1.25-4.08,4.65-4.08,4.65S382.11,107.83,382.86,105.18ZM367.24,84.77s-1.85,2.57-.76,4.09,6.93,3.32,2.7,4.45-5.4-4.45-5.4-4.45C362.31,81.14,367.24,84.77,367.24,84.77Zm-33.75,27.6c14.52-9.3,27.45-19.06,27.45-19.06s-6.58,13.71-27.45,23.18a69.7,69.7,0,0,0-19.73,16.06S319,121.67,333.49,112.37Zm-35.68-17c16-2,23.28,3.78,26.46,8s.46,4.53-2,4.84-3.9-3.2-3.9-3.2a7.08,7.08,0,0,0-4-6c-4.08-2.26-16.93-5-18.45,2.73s23.29,6.19,23.29,6.19c1.06,5.6,6.62,4.09,6.62,4.09-.65,5.44-12.07,9.68-12.07,9.68L283.16,99S281.79,97.33,297.81,95.36Zm13.31,30.08c-3,13.61-8.32,11.24-8.32,11.24.76-10.83-8.62-19.71-15-22.12s-4.38-9.68-4.38-9.68ZM277.7,255c-1.13,7.24-2.27,12.26-3.85,6.53s5.78-53.46,5.78-53.46C282,212.61,278.84,247.76,277.7,255Zm6.12-79.37c-1.13,2.27.68,5.22-15.87,3.63s-15.83-37-15.83-37c1.41-7.94,2.23-14.06,10.83-23.35s24.73,10.2,26.81,17.69S299,148.43,299,148.43s-7.71,14.28-7.71,9.07-5-14.06-10.82-6.8-1,18.36,0,20.18S285,173.37,283.82,175.64Zm.68,8.85a386.65,386.65,0,0,1,21.33-38.33C303.1,159.38,284.5,184.49,284.5,184.49Zm15.65,12.93c-6.8-7.67-3-20.87-3-20.87-2.34,7.26,14,15.19,14,15.19C311,195.37,307,205.08,300.15,197.42Zm15.43-23.14c-.46.68-.46,7.71-4.46,1.59a22,22,0,0,0-9.38-8.19s3.93-6.71,5.9-10.34,4.53-5,6.12-1.2S316,173.6,315.58,174.28Zm19.27,15.2c-1.81-1.25-3.85-3.29-3.28-5s.9-27.45-.46-31.87,1-7.48-9.19-5.9-6.2-2.49-6.2-2.49l6.2-8.62c2.39-3.3,4.68,0,4.68,0l10.07,10.55s1.58,31.07,1.58,37.53S336.67,190.72,334.85,189.48Zm3.4-47.26s-7.25-5.74-10.43-8.92,4.62-10.58,4.62-10.58,16.55,2.2,7.56,4.84-1,6.58-1,6.58c9.56,8,25.1-2.2,25.1-2.2l3,4.9Zm11.88-24c-1.52-4.6,1.05-6.15,1.05-6.15l17,19.72ZM364.64,109,376,96.79s2.87-.07-.91,4.69S360.71,114.86,364.64,109Zm9.13,22.71s3.12-16.44,4.32-18,1.22.76,1.22.76l-3.49,17.19S374.74,135.05,373.77,131.75Zm58.76,56.67-54.89,5.06v-2.57l54.89-5Zm5.75-10.06L435,179.73s1.95-22.6-.91-25.85l-54.73,3.32v-7.14s26.45,15,39-7.84L430,148.11l-15.58,3,19.81-.6S441,150.52,438.28,178.36ZM442.05,151l-5.89-5.9h5.89Z"/><path class="cls-1" d="M336,210.76l8.65,6.23C342.53,214.14,339,210.24,336,210.76Z"/><path class="cls-1" d="M355.32,223.05l-3.69,4.3,1.84,1.62a5.25,5.25,0,0,0,1.95-3.66A12.32,12.32,0,0,0,355.32,223.05Z"/><path class="cls-1" d="M352.54,220.32l2.61,1.86c-.58-2.26-2.4-4.51-7.34-2.92l.2.15Z"/><path class="cls-1" d="M612.61,556.05c-11.5-.6-20.34,14.22-20.34,14.22a4.12,4.12,0,0,1-3.41.68s-10.88,17.24-11,31.75,3.79,32.67,23.52,34.93,23.06-17.16,23.06-17.16c.15.91,7.41-11,9.07-31.9S624.1,556.66,612.61,556.05Zm15,47s-6.56,21.79-19.24,20.86-13-8.61-14.51-13.08c0,0,3.55,11.49,15.19,10.58s20.71-18.14,15.43-33.19l-10,13.16s-6.13,10.21-15.58-2.42c0,0-2.79-5.37-7.78-6,0,0,1.66-31.6,21.31-33.87S627.61,603.09,627.61,603.09Z"/><polygon class="cls-1" points="559.66 573.94 500.54 585.46 501.04 591.86 559.11 579.8 559.66 573.94"/><path class="cls-1" d="M570.27,268.79c-64.86-93.28-123.83-106.3-123.83-106.3C553.49,220.55,572.08,290,572.08,290s-19.65,10.58-72.7,18.44a619.94,619.94,0,0,1-112.8,5.75c-11-.61-12.81,4.53-12.81,4.53s-21.53,38.41-14.57,47.18,24.49,9.24,24.49,9.24V318.67c3.48-.14,92.23-4.08,116.58-5.74s75.9-18.45,75.9-18.45C576.84,279.06,570.27,268.79,570.27,268.79Z"/><path class="cls-1" d="M257.52,482.72c1.36-16.78-11.8-7.1-11.8-7.1-14.06-8.69-8.84,7.1-8.84,7.1-11.57,4.77,2,12.66,2,12.66-7.49,10.37,7.94,11.16,7.94,11.16,6.8,17.69,12.55,1.27,12.55,1.27,16.18,3.32,4.45-10.57,4.45-10.57C279.06,485.67,257.52,482.72,257.52,482.72Zm-20.42,6.59c0-.89,1.48-1.59,3.29-1.59s3.29.7,3.29,1.59-1.47,1.58-3.29,1.58S237.1,490.18,237.1,489.31Zm6.58,12.35c-5-2.61,1.59-5.44,1.59-5.44C246.06,497.47,248.67,504.27,243.68,501.66Zm1.59-15.53a1.48,1.48,0,1,1,1.59-1.48A1.54,1.54,0,0,1,245.27,486.13Zm6.48,1.59c-.54,0-1-2.19-1-4.88s.46-4.88,1-4.88,1,2.19,1,4.88S252.3,487.72,251.75,487.72Zm8.6,14.62c-2.15.45-5.44-3.69-5.44-3.69C258.42,497.45,262.51,501.9,260.35,502.34ZM253.66,495v-5.72C273.6,486.54,253.66,495,253.66,495Z"/><path class="cls-1" d="M280.54,430.22l-7.15-.68c5.13,9.47.91,11.79.91,11.79-3.76,1.68-11-6.8-11-6.8-.95,14.71-5.21,12.25-5.21,12.25-2.71-.57-.8-10-.8-10,.34-7.82-2.72-6.12-2.72-6.12-7.49,6.46-9.87,4-9.87,4-4.2-6,8.05-9.07,8.05-9.07.46,1.14,11.57,7.94,15.88,5.11s-4.76-12.48-8.06-13.16-4,.12-7.82-4.65,1.6-3.74,1.6-3.74c9.74,14.74,23.92,11.76,23.92,11.76-10.32-.83-14.06-13.46-23.59-17.21s-9.41,7.95-9.41,7.95c-25.17.33-3.86,14.28-3.86,14.28-14.55,17,11.34,12.34,11.34,12.34-1.36,25.26,15.54,6.94,15.54,6.94C289,448.48,280.54,430.22,280.54,430.22Z"/><path class="cls-1" d="M225.19,388.53s4.53-16.63-8.07-9.68c0,0-10.48-14.51-12.14,2.87,0,0-15.28,3.53-3.18,12.73,0,0-10.28,11.32,3.18,11.16,0,0,2.41,20.57,9.37,3,0,0,13.31,9.38,10.43-6.65C224.78,402,240.11,392.76,225.19,388.53ZM205.88,402a2.05,2.05,0,1,1,2.27-2.05A2.17,2.17,0,0,1,205.88,402Zm3.48-11.37c-4.54,1.79-4.54-2.09-4.54-2.09C206.64,388.07,213.9,388.83,209.36,390.62Zm7.76,0-1.33-3S226.55,376.23,217.12,390.62Zm1.91,7.92c-4.54.48-1.91-5-1.91-5h6.76C230.62,393.52,223.57,398.06,219,398.54Z"/><path class="cls-1" d="M181.88,348s12.25-29.6-6.57-17.24c0,0-3.41-28.24-14.07-.9,0,0-17-11.87-6.58,14.36,0,0-21.2-3.25-7.82,11.49,0,0-9.41,14.06,3.06,16.21,0,0-7.15,25.18,12.59,9.76,0,0,17.33,27.87,12.35-8.51,0,0,15.43,8.16,8.06-11.11C182.9,362.07,199.57,347.78,181.88,348ZM148.54,367c-3.17-1.25,1.7-7.6,2.83-7.6s11.8-1.14,1-6.35-.67-5.33,5-3.18,2.72,13.27,2.72,13.27C156.48,362.86,151.72,368.19,148.54,367Zm18.94,13.38c-1.81-7.94-1.7-16.24-6.13-7.15s-12.47,11.57-5.55-1.81c0,0,2.38-4.53,6.69-5.22,0,0,1.13,3.29,5.33,2.5s1,3.74,3.06,11S169.29,388.26,167.48,380.33Zm13.72-10.1c-1.82,6.24-5.18-2.26-6.62-4.08s-3.25-1.36-4-1.36,3.06-17-1.81-17.8-3.52-2.41-3.52-2.41a22.3,22.3,0,0,1,1-12.34c2.52-5.89,4.21-4.08,3.88,4.2s1.47,12.14,5.78,5.1,5.55-4.83,1.25,2.69-4.65,11.6-.8,10,9-5.13,7.94,1.69-10.1,2.39-11.46,2.84-1.47,1.82.8,3.74S183,364,181.2,370.23Z"/><polygon class="cls-1" points="286.09 226.79 369.78 311.24 287.67 219.66 286.09 226.79"/><path class="cls-1" d="M316.6,259.33s6.69-15.42-9.87-10.66c0,0-8.28-21.43-16.21-4.65,0,0-15-.45-3.74,9.64,0,0-7.6,10.32,11.33,9.07,0,0,1.93,19.28,11.68,4C309.79,266.7,328.05,274.07,316.6,259.33Zm-29.82-11.91c3.35-3.76,10.2,3.85,10.2,3.85C284.39,249.22,286.78,247.42,286.78,247.42Zm2.49,11.79s4.65-7.25,9.75-4.64C299,254.57,299.7,260.12,289.27,259.21ZM297,241.64c4.76.64,8,7.6,4.8,6S297,241.64,297,241.64Zm6.12,25.74c-2.4-4.36-.79-9.41-.79-9.41C307.9,257.68,305.51,271.75,303.1,267.38Zm11-1.93c-3.64-.58-3.52-7.48-3.52-7.48C316.26,260.11,317.73,266,314.11,265.45Z"/><path class="cls-1" d="M355.49,291.42s.91-13-9.41-7.94c0,0-13.72-17.57-19.5,1.48,0,0-26.77.13-4.77,12.88,0,0-9.64,20.12,11.91,11.16,0,0,1.25,29.14,13.49,6.46,0,0,20,10,13.27-9.75C360.48,305.71,370,293.69,355.49,291.42ZM319,289.72c3.17-5,13.38,4.2,13.38,4.2C331.34,293.69,315.8,294.71,319,289.72Zm29.14,18.94c-3.51-6.35-5,.34-4.65,3.74s-.79,7.83-4.08,6.35-1.7-10.77-1.7-11.34,3.06-9.86-4.31-3.51-9,3.4-9,3.4c-7.26-7.48,10.55-8.05,10.55-8.05a4.28,4.28,0,0,1,3.37,1.58c7.92,4.43,11.25,3.18,11.25,3.18,6.17-7.37-9.3-14.06-13.15-14.29s-6.69-3.4-4.08-7.49S356,297.36,353.91,300.1s-2-.06,1.7,7.42S351.63,315,348.12,308.66Z"/><path class="cls-1" d="M541.81,259.28s5-14.35-9.08-9.48c0,0-10.43-14.63-12,4.2,0,0-14.74-.34-3,10.77,0,0-8.84,14.36,3,12.06,0,0,2,19.47,12,6.2,0,0,11.46,3.52,9.42-9.29C542.15,273.74,557.68,265.46,541.81,259.28Zm-22,13.69c-3.4-2.7,4.08-4.8,4.08-4.8C524,270.45,523.21,275.66,519.81,273Zm4.09-10.46c-2.82,1.7-3.41-4.77-3.41-4.77C522.53,259.1,526.73,260.81,523.9,262.51Zm4.7-4.2a1.67,1.67,0,1,1,1.42-1.65A1.54,1.54,0,0,1,528.6,258.31Zm8.1-3.3c2.38-.81.57,8.63-2.61,6.53S536.7,255,536.7,255Zm2.84,15.32c-4.88.34-4.28,1.79-4.07,3.39s-2.62,1.46-3.19,0a3.7,3.7,0,0,1,1.48-4.41s4.87-7.37,8.5-4.08S544.42,270,539.54,270.33Z"/><path class="cls-1" d="M503.44,213.43s6.05-13.75-8.77-12.7c0,0,2.95-15.11-13.72-6.49,0,0-13-7.72-12,3.62,0,0-18.3-2.12-5.9,11.64,0,0-9.69,12.1,5.06,11.2,0,0-1.57,15.12,13.77,6.19,0,0,11.26,12.7,14.43-2.42C496.33,224.47,516.59,225.53,503.44,213.43Zm-28.28-16.25s.08-1.88,1.67,0,1.89,5.07-.76,3.72S474.94,198.7,475.16,197.18ZM469,203.61c2.35,1.59,6.12,1.06,6.12,1.06s-4.16,3.55-8.46,1.06S466.7,202,469,203.61Zm-3.25,11s4.16-5.15,13.3-4.62C479.09,210,463.3,220.47,465.79,214.65Zm8.39,10.74c-3.85-2.34,4.62-10.59,8.06-12.18C482.24,213.21,478,227.73,474.18,225.39Zm10.21-22.84c-.3-2.49,3.78-4.46,4.31-4.76,0,0,1.81,6.58,0,7.26A3,3,0,0,1,484.39,202.55Zm5.91,24c-2.13.39-6.36-4.53-1.15-11C489.15,215.63,492.42,226.21,490.3,226.59Zm.44-17.69c-1.66-1.88,1.89-2.28,1.89-2.28a12.51,12.51,0,0,1,5.29-.36c2.27.53,1.06,1.59-1.36,2.64S492.4,210.79,490.74,208.9Zm9.15,11.87c-1.82.46-4.22-5.59-4.22-5.59s5.2,1.06,6,2.81S501.7,220.32,499.89,220.77Z"/><path class="cls-1" d="M402.89,276.83s8-24.64-9.3-15.29c0,0-10-20-15.95,0,0,0-22.38-15.76-10.81,9.61,0,0-16.3,8.16,2.62,16.51,0,0-4.43,15.93,13,8.54,0,0,10,28.35,17.24,1.64,0,0,16.44,6.84,7.43-6.76C407.15,291.08,423.53,276.86,402.89,276.83Zm-17.34-17.52c2.49-.8,4.64,12,4.64,12l7.71-5.21c2.16,7.48-1.92,14.74-9.64,8.05S385.55,259.31,385.55,259.31Zm-15.77,4.33c3.18-3.06,10.21,9.75,10.21,9.75C366.61,264.55,369.78,263.64,369.78,263.64ZM398,285.41s-3.12-.69-4.28,5.67,1.33,10.85-1.85,11.71c0,0-3.4,1.44-3.63-8.87,0,0,1.82-8.63-6.57-2.84,0,0-9.53,3.52-4.2-1.93,0,0,10-6.23,1-6.57,0,0-11.11-.23-10.09-4.65,0,0,2.84-6.47,11.91,0,0,0,6.57,11.79,11.68,9s2.72-3.41,6.46-4.77,9.3-1.13,8.62,1.36S398,285.41,398,285.41Z"/><path class="cls-1" d="M437.37,209s21.54,15.12-1.14,14.89c0,0-2.19,19.21-20.33,3.4,0,0-31.53,14.25-18.6-7.84,0,0-26.91-11.89,4.46-15.29,0,0,8.84,2.47-2.2,3.92,0,0-20.56,6,3.86,5.83l5.14.08s-13.76,14.36-8.39,15.35c0,0,4.54,1.2,13.84-9.3,0,0,4.68,4.35,6.95,6.6s6.58,3.75,8.24,2.09-2.11-7.22-4.31-9.89c0,0,12.63,4.26,13.91,0s-6.88-6.06-11.72-6.74c0,0,9-2.85,6.13-7.32,0,0-4.24-4.28-12.25.54,0,0-2.65-9.71-11.19-9,0,0-5.74,2-2.34,6.56,0,0-12.17-4.28.15-8.51,0,0,13.53-3.48,14.06,5.67C421.64,200.06,446.66,196.36,437.37,209Z"/><path class="cls-1" d="M409.54,205.3s-4.76,3.6,1.14,8.33,8.32,4.72,10.51,3.89,2.19-6,0-8.31S415.52,202.29,409.54,205.3Z"/><path class="cls-1" d="M351.26,213s-4.84-24.8-19.73-4.23c0,0-16-12.1-17.24,4,0,0-26.16.91-4.38,14.29,0,0-12.55,21,12,12.72,0,0,4.37,29.65,15,5.44,0,0,22.26,9.77,15.06-9.16C352,236.05,374.93,213.07,351.26,213Zm-30.89-3.93s3.89-4.08,11.24,9.52C331.61,218.58,315.72,217.45,320.37,209.06Zm-14.09,9.07c1.73-3.55,8.84-.83,8.84-.83,6.58,1.13,5.75,5,5.75,5-.15,2.49-8.7.45-8.7.45C304.92,221.23,306.28,218.13,306.28,218.13Zm40.44,26.63c-2.64,4-12.62-8.71-12.62-8.71-1.44,16.78-5.75,12.77-5.75,12.77-4.77-3.25-2.19-15.87-2.19-15.87-12.78,7.41-13.68,4.66-13.68,4.66-6.51-8.28,11.26-10,11.26-10,11.27,8.7,14.59,5.06,14.59,5.06,4.16-2.65-2-12.48-2-12.48a5,5,0,0,0,2.8-2.79c-6.51-.95-4.46-6.28-4.46-6.28,4.62-3.32,11.8,8.49,11.8,8.49,10-4.23,8.92,5.65,8.92,5.65-.61,7.33-13.08,6.12-13.08,6.12C351.34,241.11,346.72,244.76,346.72,244.76Z"/><path class="cls-1" d="M267.49,137.43a24.85,24.85,0,0,0,.23,24.6s5,4.54,5.9-2.72S274.3,132.66,267.49,137.43Z"/><circle class="cls-2" cx="396.36" cy="396.36" r="392.36"/></g></g></svg>