<?xml version="1.0" encoding="utf-8"?>
<!-- Generator: Adobe Illustrator 17.0.1, SVG Export Plug-In . SVG Version: 6.00 Build 0)  -->
<!DOCTYPE svg PUBLIC "-//W3C//DTD SVG 1.1//EN" "http://www.w3.org/Graphics/SVG/1.1/DTD/svg11.dtd">
<svg version="1.1" id="Layer_1" xmlns="http://www.w3.org/2000/svg" xmlns:xlink="http://www.w3.org/1999/xlink" x="0px" y="0px"
	 width="800px" height="800px" viewBox="0 0 800 800" enable-background="new 0 0 800 800" xml:space="preserve">
<g>
	<circle fill="#f9f7f7" stroke="#484747" stroke-width="12" stroke-miterlimit="10" cx="400" cy="400" r="392.363"/>
	<g>
		<g>
			<path fill="#484747" d="M509.952,682.316l2.72,30.393l65.318-9.982l1.818-30.997L509.952,682.316z M572.244,697.891l-53.672,9.22
				l-1.06-21.168l57.451-9.527L572.244,697.891z"/>
			<path fill="#484747" d="M656.461,637.26c0,0,8.922,3.627,4.235,12.549c-4.687,8.917-4.381,10.13-13.609,12.701
				c-9.228,2.572-59.214,16.698-59.214,16.698s-6.857,4.62,1.154,4.318c8.015-0.302,57.303-15.877,57.303-15.877
				s15.273-4.082,17.996-16.031c2.72-11.936-3.026-15.869-3.026-15.869s-3.325-3.482-5.291-1.366
				C654.043,636.502,656.461,637.26,656.461,637.26z"/>
			<path fill="#484747" d="M644.066,640.737c0,0,0.035-0.105,0.09-0.278C642.955,640.67,644.066,640.737,644.066,640.737z"/>
			<path fill="#484747" d="M648.599,639.984c-2.532,0.208-3.8,0.361-4.444,0.475c-0.055,0.173-0.09,0.278-0.09,0.278
				s-1.111-0.067,0.09-0.278c0.793-2.449,6.767-21.09,7.619-28.147c0.907-7.56,5.464-72.427,2.053-92.688
				c-3.411-20.257-7.344-26.761-9.915-29.933c-2.572-3.179-0.456-43.098-26.161-88.755c0,0-1.963-9.071-21.765-2.12
				c0,0-117.789,37.426-192.858,24.269c0,0-8.223-2.328-7.539,6.464c0.678,8.789,3.081,86.75,3.984,91.739
				c0.91,4.993,8.921,5.141,11.343,5.596c2.414,0.456,160.043,8.478,224.98-36.441c0,0,8.773,10.586,9.377,29.337
				c0.604,18.746,3.023,108.255-8.164,121.56c0,0-19.359,6.952-47.781,12.396c-28.421,5.445-161.782,26.315-180.528,20.261
				c0,0-24.802-13.753-39.012-12.246l-14.97-11.944c0,0-21.996-88.375-37.873-109.464c-15.877-21.097-23.363-23.367-23.363-23.367
				s-8.502-5.723-6.688,16.164c0,0,2.892,6.688,8.223-6.638c0,0,6.064-3.74,7.14,9.071l-19.669,4.769
				c0,0-15.088,3.057-15.535,21.427c-0.459,18.373-1.138,34.019-1.138,34.019s3.973,5.789,2.838,8.961
				c-1.134,3.175-4.349,12.171-0.416,25.929c3.929,13.757,15.194,20.791,17.839,22.679c0,0,1.17,11.721,6.614,20.792
				c5.444,9.071,23.814,28.009,23.814,28.009l34.36-2.382c0,0,13.718-3.592,17.353-20.866c0,0,9.75,18.027,30.954,23.248
				c21.211,5.213,54.296,4.498,75.005,2.23c20.717-2.265,35.676-4.84,35.676-4.84s1.19-1.585-0.679-2.61
				c0,0-34.588,2.273-56.365,3.635c-21.773,1.358-19.319,1.095-19.319,1.095s-34.773,0.146-53.821-16.784
				c0,0-4.086-2.723-6.959-10.433c-2.873-7.713-1.036-11.191,9.624-5.856c10.661,5.326,20.128,10.087,20.128,10.087
				s12.474,3.741,31.417,1.932c18.93-1.818,91.396-9.794,91.396-9.794l84.673-15.273l43.392-14.06
				C653.439,641.491,655.853,639.375,648.599,639.984z M296.081,656.917c3.25-12.015-3.168-22.381-3.168-22.381
				c-13.609,3.172-20.646-9.373-20.646-9.373c-5.578-21.411,11.794-32.209,11.794-32.209c17.373,18.173,17.008,68.721,17.008,68.721
				L296.081,656.917z M344.842,693.88c-15.195,2.273-22.228,2.724-22.228,2.724s-0.678-48.844-7.481-69.553
				c-6.806-20.717-31.527-73.102-36.743-79.452c0,0,11.339-4.761,17.239-2.948c5.896,1.814,43.09,108.184,41.728,120.882
				c-1.362,12.702,21.097,13.381,21.097,13.381S360.04,691.615,344.842,693.88z"/>
			<path fill="#484747" d="M627.129,506.321c-5.519,2.874-13.986,11.113-13.986,11.113s-26.082,30.164-35.609,50.123
				c-9.522,19.955-18.711,55.003-22.228,73.369c-3.513,18.369,0,15.877,0,15.877s2.324-2.67,2.273-5.158
				c-0.055-2.497,1.586-14.236,1.586-14.236c1.813-14.288,14.515-47.852,19.504-62.147c4.993-14.287,27.668-45.205,27.668-45.205
				s12.171-12.172,19.429-17.236C633.029,507.755,632.648,503.448,627.129,506.321z"/>
			<path fill="#484747" d="M520.232,636.953c-9.377-20.41-26.384-49.896-41.578-62.598c-15.199-12.698-23.359-19.955-33.791-26.306
				c-10.433-6.351-21.549-10.202-26.315-10.884c0,0,25.859,12.929,38.102,22.907c0,0,11.724,6.728,30.925,31.526
				c19.202,24.791,18.142,25.097,22.377,34.922c4.228,9.828,7.709,18.601,8.314,22.228c0.604,3.631,1.06,14.97,5.518,12.702
				C523.784,661.45,529.609,657.372,520.232,636.953z"/>
			<path fill="#484747" d="M393.981,532.781c0,0-12.702,48.688-2.72,124.136c0,0,5.064,14.064,5.291-1.248
				C396.552,655.669,386.649,578.744,393.981,532.781z"/>
			<path fill="#484747" d="M631.246,498.311c-11.677,5.138-42.823,20.708-95.592,27.664c-52.77,6.955-54.398,10.433-132.429,3.482
				c0,0,49.346,14.511,133.261,0c83.915-14.519,99.411-28.579,99.411-28.579S642.923,493.165,631.246,498.311z"/>
			<polygon fill="#484747" points="495.814,550.723 504.889,549.514 516.012,568.794 523.713,545.436 531.195,544.336
				516.986,585.119 			"/>
			<path fill="#484747" d="M568.703,547.865c-0.679-6.802-6.123-7.705-14.291-7.705c-8.161,0-12.812,2.241-12.812,2.241
				l6.437,36.995l5.511-0.683l-2.195-16.101C563.785,559.319,569.383,554.675,568.703,547.865z M549.737,556.712l-1.699-9.408
				c1.699-0.232,10.884-4.192,12.247,1.699C561.646,554.899,549.737,556.712,549.737,556.712z"/>
			<polygon fill="#484747" points="498.993,540.792 498.993,547.752 560.904,538.378 560.904,533.083 			"/>
			<path fill="#484747" d="M443.123,653.514c-11.037-6.429-14.287-27.821-14.287-27.821c4.459,18.298,23.963,29.556,23.963,29.556
				s7.862,2.877,18.671-4.832c10.81-7.716,2.343-42.187,2.343-42.187c-2.422-6.955-13.609-19.657-20.414-24.041
				c-6.806-4.381-13.903-4.236-16.027-3.031c-2.112,1.201-10.884,6.355-13.757,14.335c-2.873,7.976-4.082,24.983,0,42.065
				c4.082,17.086,12.548,19.359,26.007,26.161c13.46,6.802,24.191-8.918,24.191-8.918s-8.765,4.306-13.318,4.986
				C455.947,660.465,454.161,659.939,443.123,653.514z M434.354,589.177c8.011-5.896,12.4-3.175,17.691,0.757
				c5.287,3.929,19.955,16.921,21.62,37.116l-2.383,0.322c0,0,0.223-6.064-3.003-7.599c-3.23-1.526-1.57,13.102-12.984,12.498
				c-11.418-0.604-20.187-8.466-22-12.548C433.295,619.723,426.34,595.077,434.354,589.177z"/>
			<path fill="#484747" d="M612.009,632.122c-0.357,0.047-0.636,0.015-0.981,0.055C611.64,632.173,612.009,632.122,612.009,632.122z
				"/>
			<path fill="#484747" d="M589.781,596.587c0,0-8.793,38.796,21.247,35.589C607.001,632.204,591.681,630.1,589.781,596.587z"/>
			<path fill="#484747" d="M588.875,392.242c0,0-40.366,15.732-85.956,21.589c-45.586,5.856-89.128,5.856-106.367,2.225
				c0,0,47.313,22.876,195.946-19.861C592.498,396.194,615.071,386.115,588.875,392.242z"/>
			<path fill="#484747" d="M595.904,346.884c0,0-3.552-26.236-13.526-45.284c0,0-7.56-2.724-46.27,17.388
				c-38.709,20.109-133.968,52.315-136.995,52.161l0.754-6.198c0,0,98.579-31.15,119.3-47.176l-126.707,7.108v-0.451
				c0,0-3.631,45.661-1.664,53.068c0,0,39.773,6.801,90.882-1.661c51.106-8.466,110.375-26.007,110.375-26.007
				s14.966,30.085,13.832,43.317c0,0,7.486,2.497,9.754,0C617.905,390.657,599.536,349.831,595.904,346.884z"/>
			<path fill="#484747" d="M265.916,263.196c-26.761-30.847-63.505-78.926-70.307-72.124c0,0-1.362,0.154,3.25,4.691
				c4.612,4.534,6.814,2.874,20.38,18.9c13.565,16.023,47.129,63.756,65.73,85.171c18.597,21.42,92.986,104.428,97.975,109.417
				C382.943,409.25,292.677,294.039,265.916,263.196z"/>
			<polygon fill="#484747" points="542.538,580.055 535.677,581.496 531.195,544.336 538.001,543.387 			"/>
			<path fill="#484747" d="M312.861,486.135c-4.302-0.907-8.161-12.246-15.646-17.235c-7.486-4.989-14.288,5.667-14.288,5.667
				c-3.748,4.216,19.504,19.281,23.131,21.973c3.63,2.689,9.075,2.976,13.608,0C324.204,493.561,317.17,487.042,312.861,486.135z
				 M299.256,482.834c-5.142-8.639-6.123-5.244-7.486-4.636c0,0-3.705,1.209-3.061-2.155c0,0,3.061-5.102,6.802-1.699
				c3.744,3.4,13.722,17.805,16.332,18.142C311.844,492.486,304.397,491.465,299.256,482.834z"/>
			<path fill="#484747" d="M181.397,411.22c0-1.268-0.063-0.911-0.067,0.506C181.368,411.703,181.397,411.573,181.397,411.22z"/>
			<path fill="#484747" d="M242.895,530.359c3.973,4.879,20.152,22.377,20.152,22.377l-22.381-34.773
				c0,0-7.862-77.026-35.986-104.133c-26.063-25.125-23.818-1.805-23.35-2.104c0.003-1.417,0.067-1.774,0.067-0.506
				c0,0.353-0.028,0.482-0.067,0.506c-0.012,3.991,0.428,16.584,3.995,26.404c0,0-15.685,25.552,0.42,46.537
				c0,0-8.847,15.535-6.579,24.716c2.269,9.185,8.847,21.655,23.476,27.782c0,0,2.379,20.638,7.595,27.668
				c5.217,7.034,9.185,8.05,12.36,8.506c3.176,0.455,36.626-7.258,39.126-8.62c0,0-22.455-28.01-22.569-36.739
				C239.154,527.981,238.931,525.484,242.895,530.359z M191.072,479.258l-1.056-13.153
				C190.016,466.105,201.202,475.93,191.072,479.258z M189.258,511.448l-4.236,0.923c-7.685-18.829,13.157-31.908,13.157-31.908
				c7.776,9.507,10.586,36.445,10.586,36.445C197.575,519.926,189.258,511.448,189.258,511.448z M196.971,527.981
				c2.606,4.196,14.401,4.196,14.401,4.196l0.906,4.31C198.447,534.783,196.971,527.981,196.971,527.981z M209.971,540.266
				c3.254-4.612,3.478,6.198,3.478,6.198C208.915,543.135,209.971,540.266,209.971,540.266z M250.494,563.248
				c0,0-18.256,5.672-25.286,3.517c0,0,18.802-37.995-29.893-124.855c0,0-3.031-8.917,6.269-1.887
				c9.298,7.034,25.325,50.65,28.273,74.915c2.948,24.27,0.678,29.258,7.143,35.267
				C243.464,556.218,250.494,563.248,250.494,563.248z"/>
			<path fill="#484747" d="M152.366,427.851c0,0-17.835,16.031,9.075,36.893l10.88-1.209
				C172.321,463.534,145.717,448.712,152.366,427.851z"/>
			<path fill="#484747" d="M391.995,522.497v-96.765c0,0-6.178-8.467-9.052-8.467c-2.873,0-18.903,66.625-18.597,85.022
				C364.648,520.688,387.889,520.688,391.995,522.497z"/>
			<path fill="#484747" d="M358.498,506.777c-0.102-19.657,19.673-87.695,19.673-87.695c1.547-5.448-7.474-14.821-7.474-14.821
				s-30.843-32.359-42.03-43.844c-11.195-11.497-19.056,0-19.056,0c-15.724,48.381-12.396,82.855-12.396,82.855
				c66.224,87.087,82.706,82.251,82.706,82.251L358.498,506.777z"/>
			<polygon fill="#484747" points="515.012,303.943 456.649,313.693 454.161,305.077 511.687,295.829 			"/>
			<polygon fill="#484747" points="488.027,248.669 427.776,258.203 425.279,249.587 484.588,240.96 			"/>
			<polygon fill="#484747" points="426.795,261.076 434.802,259.793 457.936,284.211 453.709,255.86 461.273,254.91
				468.562,301.921 463.761,302.883 			"/>
			<polygon fill="#484747" points="462.871,254.29 480.125,299.766 485.875,298.942 468.711,253.442 			"/>
			<path fill="#484747" d="M497.729,260.338c-4.608-13.899-25.961-7.61-25.961-7.61l18.295,45.547l6.15-1.457l-6.743-18.683
				C495.999,276.419,502.338,274.241,497.729,260.338z M481.601,259.031c7.257-0.918,7.83-0.576,10.711,5.299
				c2.877,5.872-5.703,7.375-5.703,7.375L481.601,259.031z"/>
			<path fill="#484747" d="M284.513,441.761c0,0-16.784-0.757-14.511,91.321c0,0,2.493,6.351,2.834,0c0,0-2.756-81.34,15.802-85.273
				c0,0,4.945-62.602,19.461-99.945C308.099,347.864,296.002,356.484,284.513,441.761z"/>
			<path fill="#484747" d="M302.659,335.014c0,0-85.882-110.979-94.654-122.774c-8.769-11.794-14.209-5.142-14.209-5.142
				c-32.355,37.803-29.332,84.669-29.332,84.669c16.027,33.874,79.833,105.236,98.584,124.289c18.746,19.049,19.472,0,19.472,0
				c2.238-47.78,17.722-71.366,17.722-71.366c-24.496,12.702-63.807,19.355-63.807,19.355
				C286.028,345.902,302.659,335.014,302.659,335.014z M206.501,235.528l0.75,5.433l-11.826,5.456L206.501,235.528z M186.84,302.808
				l50.194-16.478l0.911,1.967l-49.143,18.134L186.84,302.808z M194.4,313.994l49.288-16.022l0.757,3.501l-48.232,16.909
				L194.4,313.994z M201.504,326.995l65.77-20.564l1.664,3.179l-64.709,20.721L201.504,326.995z M207.251,342.425l53.828-16.329
				l0.754,5.593l-51.003,16.533L207.251,342.425z"/>
			<path fill="#484747" d="M442.589,144.127c-5.896-0.683-10.582-0.232-17.31-4.993c0,0,5.064-22.675-11.489-39.91l-0.683-3.179
				c0,0,12.097-0.679,12.171-3.627c0.075-2.952-4.459-12.474-22.601-12.474c-18.15,0-23.818,4.306-23.818,4.306
				s-7.026-0.907-15.422-4.306c0,0-5.216-15.194-25.171-7.257c-19.959,7.937-4.993,14.287,0.223,16.328
				c0,0,3.289,12.133-1.927,13.719c-5.216,1.589-7.823-0.114-7.823-0.114s-8.843-14.287-47.859-4.647l0.565,17.695
				c0,0-19.461-11.528-34.278,31.561c0,0-49.139,13-67.587,38.25c-18.449,25.254-19.049,20.564-33.717,70.915
				c-14.668,50.348-10.429,72.423-10.13,88.452c0.302,16.027,9.679,83.9,35.683,104.931l2.418-3.482
				c0,0-33.76-39.762-31.625-135.472c0,0,11.422-73.03,36.265-110.225c24.842-37.191,61.585-44.452,69.294-45.359
				c0,0,9.075,27.213,18.146,33.113l-6.653-0.605c0,0-23.665-22.531-25.741-24.34l18.335,27.013c0,0-22.46,11.685-18.335,28.323
				c0,0,3.058,9.071,13.797,2.116c0,0,6.049-3.175,7.411-3.175c0,0-1.814,8.164-13.004,11.339c0,0,11.945,27.974,30.695,28.877
				c0,0-4.384,13.322,3.325,14.527c7.712,1.201,11.493-6.359,9.828-15.43c0,0,6.422-3.784,5.747-45.743c0,0,4.533,3.407,8.16-8.388
				c0,0,7.941,11.76,27.449,2.363l12.709,9.165c2.995-0.514,6.531,3.387,8.647,6.233l3.16,2.273
				c4.945-1.593,6.763,0.659,7.339,2.916l0.573,0.408l-0.4,0.467c0.173,1.228,0.098,2.253,0.098,2.253
				c-0.133,1.625-0.91,2.775-1.943,3.666l13.358,11.76c0,0,2.99,1.138,6.936-3.399c0,0,4.859,4.989,11.889-9.075
				c0,0,3.403-9.303-3.404-16.788c0,0-2.041-2.037-2.948,0.911c0,0-9.754-10.013-17.918-10.79c0,0-2.269,1.719-1.13,5.118
				l-3.404,0.227l-13.231-10.28l-2.568-49.59l13.153-2.874l3.604,52.463l5.393-0.828l-3.179-53.754h11.567
				c0,0,1.818,18.369,0.907,29.937c-0.907,11.568-0.678,29.58-0.678,29.58l68.493-4.408c0,0,5.216,0.232,5.671-17.231
				c0.452-17.467-0.91-26.538,1.59-31.075C453.706,147.978,448.489,144.807,442.589,144.127z M415.6,85.686
				c0.923,0,3.78,2.025,3.78,3.859c0,1.833-1.095,2.783-2.017,2.783c-0.923,0-0.856-0.875-0.856-2.712
				C416.507,87.782,414.682,85.686,415.6,85.686z M338.887,85.274c0,0.832-1.935-0.718-3.344-0.718s-1.589-1.74-1.589-2.572
				c0-0.84,2.277-0.455,3.69-0.455C339.045,81.53,338.887,84.434,338.887,85.274z M240.12,220.216c-0.973,0-1.758-0.859-1.758-1.927
				c0-1.064,0.785-1.928,1.758-1.928c0.969,0,1.759,0.864,1.759,1.928C241.879,219.356,241.089,220.216,240.12,220.216z
				 M257.983,246.416c-4.997-3.627,0-14.068,0-14.068l2.379,7.658c0,0,4.082-1.876,3.85,1.531
				C263.989,244.936,262.968,250.039,257.983,246.416z M405.47,83.421c1.754,0,3.179,0.506,3.179,1.135
				c0,0.624-1.425,1.13-3.179,1.13c-1.755,0-3.176-0.506-3.176-1.13C402.294,83.928,403.715,83.421,405.47,83.421z M386.499,108.821
				c0,0,3.093-4.989,4.38-5.519c1.288-0.53,5.107-0.275,1.288,1.248c-3.823,1.519-4.082,4.647-4.082,4.647
				S385.746,111.47,386.499,108.821z M370.874,88.41c0,0-1.845,2.568-0.758,4.083c1.08,1.514,6.932,3.324,2.697,4.458
				c-4.236,1.135-5.397-4.458-5.397-4.458C365.951,84.78,370.874,88.41,370.874,88.41z M337.129,116.004
				c14.519-9.299,27.445-19.053,27.445-19.053s-6.575,13.703-27.445,23.179c0,0-11.112,5.625-19.728,16.061
				C317.402,136.191,322.614,125.302,337.129,116.004z M301.446,98.993c16.027-1.963,23.284,3.78,26.459,8.015
				c3.179,4.236,0.46,4.534-1.966,4.836c-2.418,0.306-3.898-3.195-3.898-3.195s0.122-3.76-3.96-6.029
				c-4.082-2.264-16.933-4.985-18.449,2.724c-1.51,7.713,23.284,6.198,23.284,6.198c1.06,5.597,6.618,4.086,6.618,4.086
				c-0.648,5.444-12.062,9.675-12.062,9.675l-30.675-22.683C286.798,102.619,285.424,100.963,301.446,98.993z M314.756,129.082
				c-3.023,13.609-8.322,11.238-8.322,11.238c0.762-10.838-8.615-19.708-14.966-22.122c-6.346-2.425-4.384-9.683-4.384-9.683
				L314.756,129.082z M281.338,258.647c-1.134,7.242-2.269,12.258-3.851,6.527c-1.59-5.731,5.777-53.46,5.777-53.46
				C285.647,216.248,282.476,251.401,281.338,258.647z M287.461,179.277c-1.13,2.269,0.679,5.216-15.873,3.63
				c-16.556-1.585-15.831-36.971-15.831-36.971c1.413-7.937,2.226-14.06,10.834-23.347c8.612-9.287,24.728,10.194,26.805,17.683
				c2.076,7.482,9.263,11.791,9.263,11.791s-7.713,14.288-7.713,9.071c0-5.216-4.989-14.06-10.814-6.802
				c-5.829,7.258-0.978,18.366,0,20.183C285.11,176.333,288.599,177.008,287.461,179.277z M288.14,188.124
				c9.075-19.28,21.325-38.328,21.325-38.328C306.737,163.019,288.14,188.124,288.14,188.124z M303.789,201.053
				c-6.806-7.662-3.01-20.866-3.01-20.866c-2.339,7.258,13.978,15.195,13.978,15.195
				C314.603,199.012,310.599,208.719,303.789,201.053z M319.215,177.919c-0.459,0.679-0.459,7.713-4.459,1.59
				c-4.004-6.123-9.377-8.192-9.377-8.192s3.932-6.704,5.896-10.334c1.966-3.627,4.537-4.989,6.127-1.209
				C318.988,163.553,319.666,177.236,319.215,177.919z M338.491,193.116c-1.814-1.248-3.855-3.293-3.289-4.993
				c0.569-1.699,0.906-27.444-0.452-31.868c-1.362-4.42,1.021-7.482-9.189-5.896c-10.201,1.589-6.209-2.493-6.209-2.493l6.209-8.619
				c2.387-3.305,4.675,0,4.675,0l10.068,10.547c0,0,1.586,31.071,1.586,37.536C341.891,193.796,340.305,194.361,338.491,193.116z
				 M341.891,145.862c0,0-7.254-5.746-10.429-8.921c-3.175-3.172,4.613-10.579,4.613-10.579s16.556,2.195,7.56,4.836
				c-8.993,2.646-0.986,6.583-0.986,6.583c9.558,8.039,25.101-2.199,25.101-2.199l3.026,4.899L341.891,145.862z M353.764,121.821
				c-1.514-4.608,1.056-6.154,1.056-6.154l17.015,19.724L353.764,121.821z M368.275,112.675l11.343-12.246
				c0,0,2.874-0.075-0.906,4.691C374.932,109.877,364.346,118.5,368.275,112.675z M377.405,135.39c0,0,3.12-16.438,4.325-17.95
				c1.213-1.511,1.213,0.757,1.213,0.757l-3.482,17.192C379.462,135.39,378.375,138.684,377.405,135.39z M436.164,192.053
				l-54.885,5.068v-2.571l54.885-4.989V192.053z M441.915,181.993l-3.329,1.37c0,0,1.955-22.597-0.911-25.847l-54.732,3.317v-7.14
				c0,0,26.459,15.003,39.012-7.83l11.638,5.88l-15.571,3.042l19.806-0.6C437.829,154.184,444.63,154.16,441.915,181.993z
				 M445.69,154.635l-5.896-5.896h5.896V154.635z"/>
			<path fill="#484747" d="M339.637,214.395l8.647,6.233C346.169,217.782,342.632,213.88,339.637,214.395z"/>
			<path fill="#484747" d="M358.957,226.692l-3.686,4.298l1.841,1.621c1.033-0.891,1.81-2.041,1.943-3.666
				C359.055,228.946,359.129,227.921,358.957,226.692z"/>
			<path fill="#484747" d="M356.182,223.957l2.602,1.86c-0.576-2.257-2.394-4.51-7.339-2.916l0.204,0.15L356.182,223.957z"/>
			<path fill="#484747" d="M616.245,559.692c-11.493-0.604-20.34,14.217-20.34,14.217c-1.511,1.208-3.407,0.678-3.407,0.678
				s-10.877,17.236-11.038,31.746c-0.161,14.523,3.788,32.669,23.519,34.93c19.732,2.268,23.056-17.157,23.056-17.157
				c0.149,0.907,7.411-11.038,9.075-31.904C638.767,571.337,627.733,560.296,616.245,559.692z M631.246,606.722
				c0,0-6.563,21.796-19.237,20.862c-12.674-0.934-13.004-8.608-14.515-13.075c0,0,3.552,11.489,15.194,10.582
				c11.646-0.91,20.713-18.146,15.425-33.191l-9.978,13.154c0,0-6.127,10.209-15.575-2.418c0,0-2.798-5.37-7.787-6.049
				c0,0,1.66-31.601,21.317-33.865C635.748,560.453,631.246,606.722,631.246,606.722z"/>
			<polygon fill="#484747" points="563.302,577.578 504.179,589.099 504.673,595.492 562.749,583.435 			"/>
			<path fill="#484747" d="M573.908,272.428c-64.863-93.284-123.834-106.305-123.834-106.305
				c107.05,58.061,125.647,127.461,125.647,127.461s-19.657,10.586-72.702,18.448c-53.04,7.866-101.782,6.351-112.808,5.743
				c-11.022-0.604-12.807,4.537-12.807,4.537s-21.526,38.404-14.57,47.176c6.959,8.765,24.496,9.236,24.496,9.236v-56.412
				c3.478-0.149,92.229-4.082,116.572-5.746c24.343-1.665,75.904-18.445,75.904-18.445
				C580.482,282.696,573.908,272.428,573.908,272.428z"/>
			<path fill="#484747" d="M261.154,486.358c1.359-16.78-11.795-7.101-11.795-7.101c-14.064-8.694-8.843,7.101-8.843,7.101
				c-11.567,4.765,2.038,12.655,2.038,12.655c-7.482,10.378,7.941,11.162,7.941,11.162c6.806,17.691,12.552,1.272,12.552,1.272
				c16.179,3.317,4.455-10.57,4.455-10.57C282.7,489.31,261.154,486.358,261.154,486.358z M240.74,492.945
				c0-0.883,1.476-1.59,3.289-1.59c1.817,0,3.289,0.707,3.289,1.59c0,0.871-1.472,1.582-3.289,1.582
				C242.216,494.527,240.74,493.816,240.74,492.945z M247.318,505.301c-4.989-2.61,1.59-5.445,1.59-5.445
				C249.701,501.109,252.311,507.907,247.318,505.301z M248.908,489.766c-0.879,0-1.59-0.66-1.59-1.476
				c0-0.813,0.711-1.476,1.59-1.476c0.875,0,1.586,0.663,1.586,1.476C250.494,489.106,249.784,489.766,248.908,489.766z
				 M255.388,491.355c-0.545,0-0.997-2.186-0.997-4.879c0-2.689,0.452-4.875,0.997-4.875c0.554,0,1.002,2.187,1.002,4.875
				C256.39,489.169,255.942,491.355,255.388,491.355z M263.989,505.981c-2.155,0.451-5.445-3.694-5.445-3.694
				C262.061,501.086,266.147,505.533,263.989,505.981z M257.3,498.668v-5.723C277.24,490.177,257.3,498.668,257.3,498.668z"/>
			<path fill="#484747" d="M284.175,433.86l-7.144-0.679c5.126,9.464,0.903,11.791,0.903,11.791
				c-3.76,1.676-10.998-6.802-10.998-6.802c-0.95,14.703-5.209,12.247-5.209,12.247c-2.712-0.566-0.801-9.978-0.801-9.978
				c0.338-7.822-2.72-6.123-2.72-6.123c-7.485,6.461-9.867,3.965-9.867,3.965c-4.2-6.01,8.051-9.071,8.051-9.071
				c0.455,1.134,11.567,7.941,15.877,5.106c4.31-2.838-4.757-12.482-8.055-13.157c-3.289-0.675-3.965,0.114-7.822-4.651
				c-3.855-4.765,1.593-3.74,1.593-3.74c9.746,14.742,23.924,11.759,23.924,11.759c-10.319-0.832-14.064-13.459-23.59-17.203
				c-9.523-3.74-9.408,7.941-9.408,7.941c-25.175,0.338-3.859,14.287-3.859,14.287c-14.55,17.048,11.34,12.337,11.34,12.337
				c-1.359,25.258,15.535,6.944,15.535,6.944C292.677,452.116,284.175,433.86,284.175,433.86z"/>
			<path fill="#484747" d="M228.824,392.164c0,0,4.537-16.627-8.067-9.672c0,0-10.484-14.519-12.144,2.87
				c0,0-15.273,3.521-3.171,12.721c0,0-10.288,11.32,3.171,11.167c0,0,2.414,20.568,9.373,3.026c0,0,13.306,9.377,10.433-6.649
				C228.419,405.627,243.743,396.399,228.824,392.164z M209.52,405.627c-1.252,0-2.269-0.919-2.269-2.045
				c0-1.127,1.016-2.037,2.269-2.037c1.252,0,2.273,0.91,2.273,2.037C211.792,404.708,210.771,405.627,209.52,405.627z
				 M212.997,394.255c-4.537,1.79-4.537-2.092-4.537-2.092C210.273,391.712,217.535,392.466,212.997,394.255z M220.757,394.255
				l-1.334-2.998C219.423,391.257,230.19,379.87,220.757,394.255z M222.669,402.177c-4.541,0.482-1.912-5.024-1.912-5.024
				s0,0,6.756,0C234.259,397.153,227.21,401.694,222.669,402.177z"/>
			<path fill="#484747" d="M185.517,351.644c0,0,12.247-29.595-6.574-17.235c0,0-3.408-28.237-14.064-0.907
				c0,0-17.011-11.87-6.579,14.362c0,0-21.208-3.25-7.822,11.493c0,0-9.412,14.064,3.061,16.215c0,0-7.147,25.172,12.584,9.754
				c0,0,17.338,27.872,12.353-8.514c0,0,15.429,8.168,8.062-11.108C186.538,365.705,203.208,351.417,185.517,351.644z
				 M152.178,370.583c-3.175-1.248,1.699-7.599,2.834-7.599s11.795-1.134,1.021-6.347c-10.775-5.22-0.679-5.334,4.993-3.175
				c5.668,2.151,2.72,13.267,2.72,13.267C160.118,366.497,155.353,371.832,152.178,370.583z M171.113,383.968
				c-1.81-7.944-1.696-16.238-6.124-7.155c-4.42,9.079-12.47,11.575-5.554-1.805c0,0,2.383-4.534,6.688-5.216
				c0,0,1.135,3.289,5.33,2.492c4.2-0.793,1.021,3.741,3.062,10.998C176.561,390.542,172.929,391.901,171.113,383.968z
				 M184.839,373.869c-1.818,6.241-5.182-2.264-6.618-4.078c-1.437-1.814-3.25-1.363-4.043-1.363
				c-0.797,0,3.062-17.011-1.814-17.804c-4.879-0.793-3.517-2.402-3.517-2.402s-1.511-6.441,1.001-12.341
				c2.516-5.896,4.212-4.082,3.875,4.196c-0.342,8.278,1.472,12.136,5.785,5.102c4.305-7.03,5.554-4.835,1.244,2.685
				c-4.31,7.525-4.648,11.607-0.797,10.021c3.858-1.589,9.039-5.13,7.944,1.695c-1.099,6.834-10.099,2.383-11.457,2.838
				c-1.358,0.455-1.472,1.814,0.797,3.74C179.508,368.087,186.648,367.635,184.839,373.869z"/>
			<polygon fill="#484747" points="289.729,230.425 373.417,314.874 291.307,223.293 			"/>
			<path fill="#484747" d="M320.235,262.968c0,0,6.693-15.422-9.867-10.661c0,0-8.278-21.427-16.215-4.647
				c0,0-14.966-0.452-3.74,9.64c0,0-7.599,10.315,11.339,9.067c0,0,1.924,19.281,11.678,3.973
				C313.43,270.34,331.689,277.707,320.235,262.968z M290.413,251.059c3.359-3.76,10.205,3.851,10.205,3.851
				C288.03,252.857,290.413,251.059,290.413,251.059z M292.905,262.85c0,0,4.651-7.257,9.754-4.647
				C302.659,258.203,303.338,263.757,292.905,262.85z M300.618,245.278c4.761,0.636,8.051,7.599,4.801,6.01
				C302.168,249.701,300.618,245.278,300.618,245.278z M306.737,271.019c-2.402-4.361-0.789-9.412-0.789-9.412
				C311.537,261.316,309.143,275.383,306.737,271.019z M317.743,269.083c-3.635-0.573-3.517-7.481-3.517-7.481
				C319.898,263.75,321.366,269.656,317.743,269.083z"/>
			<path fill="#484747" d="M359.129,295.056c0,0,0.911-13.035-9.412-7.937c0,0-13.722-17.577-19.504,1.476
				c0,0-26.761,0.129-4.764,12.878c0,0-9.637,20.121,11.908,11.163c0,0,1.248,29.144,13.494,6.461c0,0,19.956,9.982,13.267-9.75
				C364.118,309.347,373.649,297.325,359.129,295.056z M322.614,293.361c3.176-4.993,13.381,4.195,13.381,4.195
				C334.974,297.325,319.439,298.35,322.614,293.361z M351.758,312.295c-3.513-6.351-4.989,0.342-4.647,3.744
				c0.342,3.4-0.797,7.823-4.082,6.347c-3.293-1.472-1.703-10.77-1.703-11.336c0-0.565,3.061-9.867-4.306-3.517
				c-7.371,6.351-8.961,3.404-8.961,3.404c-7.258-7.482,10.547-8.055,10.547-8.055c2.037-0.141,3.375,1.586,3.375,1.586
				c7.913,4.428,11.249,3.179,11.249,3.179c6.17-7.375-9.298-14.064-13.149-14.287c-3.859-0.228-6.692-3.404-4.086-7.49
				c2.61-4.082,23.668,15.124,21.548,17.863c-2.115,2.74-2.041-0.059,1.7,7.426C362.988,318.646,355.271,318.646,351.758,312.295z"
				/>
			<path fill="#484747" d="M545.447,262.914c0,0,4.99-14.351-9.078-9.472c0,0-10.429-14.633-12.019,4.196
				c0,0-14.742-0.338-2.948,10.774c0,0-8.843,14.351,2.948,12.051c0,0,2.045,19.472,12.019,6.205c0,0,11.457,3.517,9.416-9.294
				C545.784,277.374,561.321,269.099,545.447,262.914z M523.443,276.604c-3.399-2.697,4.083-4.793,4.083-4.793
				C527.643,274.084,526.846,279.293,523.443,276.604z M527.541,266.144c-2.826,1.699-3.411-4.761-3.411-4.761
				C526.167,262.741,530.363,264.444,527.541,266.144z M532.235,261.944c-0.785,0-1.417-0.735-1.417-1.649
				c0-0.915,0.632-1.649,1.417-1.649c0.781,0,1.417,0.734,1.417,1.649C533.652,261.209,533.017,261.944,532.235,261.944z
				 M540.341,258.647c2.379-0.805,0.569,8.631-2.61,6.527C534.559,263.074,540.341,258.647,540.341,258.647z M543.178,273.967
				c-4.879,0.341-4.282,1.793-4.074,3.391c0.215,1.598-2.618,1.461-3.183,0c-0.569-1.46-0.114-3.391,1.472-4.412
				c0,0,4.875-7.367,8.506-4.082C549.53,272.153,548.054,273.629,543.178,273.967z"/>
			<path fill="#484747" d="M507.079,217.072c0,0,6.048-13.757-8.769-12.702c0,0,2.944-15.115-13.723-6.496
				c0,0-13.043-7.712-11.983,3.627c0,0-18.295-2.124-5.896,11.638c0,0-9.687,12.097,5.06,11.194c0,0-1.574,15.12,13.769,6.198
				c0,0,11.257,12.698,14.429-2.425C499.966,228.105,520.232,229.169,507.079,217.072z M478.802,200.822c0,0,0.075-1.887,1.665,0
				c1.585,1.896,1.891,5.068-0.758,3.714C477.068,203.173,478.575,202.337,478.802,200.822z M472.679,207.251
				c2.343,1.586,6.123,1.056,6.123,1.056s-4.161,3.552-8.462,1.059C466.03,206.875,470.34,205.666,472.679,207.251z
				 M469.429,218.289c0,0,4.157-5.154,13.302-4.62C482.732,213.669,466.933,224.109,469.429,218.289z M477.822,229.023
				c-3.859-2.339,4.612-10.586,8.054-12.171C485.875,216.852,481.679,231.367,477.822,229.023z M488.027,206.191
				c-0.302-2.496,3.784-4.463,4.31-4.761c0,0,1.814,6.575,0,7.258C490.523,209.367,488.329,208.688,488.027,206.191z
				 M493.933,230.228c-2.127,0.385-6.359-4.529-1.146-10.958C492.788,219.27,496.061,229.852,493.933,230.228z M494.381,212.542
				c-1.664-1.887,1.884-2.288,1.884-2.288s3.027-0.887,5.291-0.358c2.268,0.531,1.059,1.59-1.355,2.646
				C497.777,213.602,496.038,214.43,494.381,212.542z M503.523,224.412c-1.813,0.455-4.215-5.593-4.215-5.593
				s5.201,1.059,5.958,2.806C506.024,223.376,505.34,223.957,503.523,224.412z"/>
			<path fill="#484747" d="M406.529,280.463c0,0,7.964-24.634-9.298-15.289c0,0-10.045-20.003-15.952,0
				c0,0-22.377-15.756-10.81,9.617c0,0-16.298,8.153,2.617,16.505c0,0-4.431,15.929,13.031,8.537c0,0,9.982,28.356,17.24,1.641
				c0,0,16.442,6.842,7.426-6.759C410.784,294.715,427.172,280.494,406.529,280.463z M389.184,262.952
				c2.489-0.805,4.643,12.039,4.643,12.039l7.713-5.216c2.155,7.481-1.924,14.739-9.64,8.05
				C384.187,271.132,389.184,262.952,389.184,262.952z M373.417,267.278c3.179-3.065,10.209,9.75,10.209,9.75
				C370.245,268.185,373.417,267.278,373.417,267.278z M401.655,289.05c0,0-3.117-0.695-4.279,5.664
				c-1.166,6.355,1.334,10.853-1.845,11.716c0,0-3.403,1.441-3.63-8.875c0,0,1.817-8.631-6.575-2.842c0,0-9.527,3.521-4.196-1.923
				c0,0,9.982-6.237,1.021-6.579c0,0-11.112-0.227-10.092-4.647c0,0,2.834-6.469,11.905,0c0,0,6.574,11.795,11.681,8.961
				c5.103-2.838,2.72-3.407,6.461-4.765c3.744-1.362,9.302-1.134,8.62,1.359C410.046,289.616,401.655,289.05,401.655,289.05z"/>
			<path fill="#484747" d="M441.008,212.621c0,0,21.54,15.116-1.138,14.888c0,0-2.191,19.205-20.336,3.403
				c0,0-31.527,14.244-18.597-7.847c0,0-26.907-11.885,4.459-15.284c0,0,8.847,2.465-2.195,3.913c0,0-20.564,5.986,3.859,5.836
				l5.142,0.079c0,0-13.761,14.362-8.392,15.347c0,0,4.538,1.205,13.836-9.302c0,0,4.687,4.353,6.955,6.602
				c2.269,2.245,6.579,3.752,8.239,2.092c1.661-1.664-2.115-7.222-4.31-9.888c0,0,12.623,4.255,13.911,0
				c1.284-4.251-6.881-6.064-11.72-6.743c0,0,8.996-2.85,6.127-7.325c0,0-4.236-4.274-12.247,0.542c0,0-2.649-9.711-11.19-8.953
				c0,0-5.747,1.982-2.343,6.556c0,0-12.172-4.275,0.153-8.51c0,0,13.53-3.482,14.06,5.668
				C425.279,203.695,450.302,199.994,441.008,212.621z"/>
			<path fill="#484747" d="M413.182,208.935c0,0-4.764,3.6,1.131,8.329c5.899,4.73,8.321,4.726,10.515,3.898
				c2.186-0.832,2.186-5.974,0-8.318C422.634,210.501,419.152,205.928,413.182,208.935z"/>
			<path fill="#484747" d="M354.895,216.628c0,0-4.836-24.798-19.732-4.235c0,0-16.027-12.097-17.236,4.003
				c0,0-26.157,0.907-4.384,14.292c0,0-12.548,21.054,12.019,12.717c0,0,4.369,29.655,15.03,5.444c0,0,22.251,9.77,15.06-9.165
				C355.652,239.684,378.563,216.703,354.895,216.628z M324.012,212.695c0,0,3.889-4.078,11.237,9.526
				C335.249,222.221,319.357,221.087,324.012,212.695z M309.913,221.77c1.739-3.556,8.843-0.832,8.843-0.832
				c6.582,1.13,5.754,4.985,5.754,4.985c-0.154,2.496-8.699,0.455-8.699,0.455C308.558,224.867,309.913,221.77,309.913,221.77z
				 M350.361,248.398c-2.646,3.953-12.627-8.714-12.627-8.714c-1.432,16.788-5.743,12.777-5.743,12.777
				c-4.773-3.258-2.194-15.877-2.194-15.877c-12.777,7.414-13.683,4.659-13.683,4.659c-6.503-8.271,11.265-9.946,11.265-9.946
				c11.265,8.698,14.589,5.059,14.589,5.059c4.157-2.646-1.97-12.474-1.97-12.474c1.967-0.605,2.803-2.795,2.803-2.795
				c-6.516-0.953-4.459-6.276-4.459-6.276c4.612-3.325,11.791,8.482,11.791,8.482c9.982-4.227,8.921,5.653,8.921,5.653
				c-0.605,7.332-13.078,6.123-13.078,6.123C354.973,244.748,350.361,248.398,350.361,248.398z"/>
			<path fill="#484747" d="M271.132,141.065c0,0-7.257,11.45,0.228,24.603c0,0,4.996,4.537,5.899-2.72
				C278.166,155.695,277.934,136.297,271.132,141.065z"/>
		</g>
	</g>

</g>
</svg>
